<svg version="1.1" xmlns="http://www.w3.org/2000/svg" viewBox="0 0 509 523" width="1018" height="1046">
  <!-- svg-source:excalidraw -->
  
  <defs>
    <style class="style-fonts">
      @font-face {
        font-family: "Virgil";
        src: url("https://excalidraw.com/Virgil.woff2");
      }
      @font-face {
        font-family: "Cascadia";
        src: url("https://excalidraw.com/Cascadia.woff2");
      }
      @font-face {
        font-family: "Assistant";
        src: url("https://excalidraw.com/Assistant-Regular.woff2");
      }
    </style>
    
  </defs>
  <rect x="0" y="0" width="509" height="523" fill="#ffffff"></rect><g transform="translate(90 96) rotate(0 67 183.5)" stroke="none"><path fill="#1e1e1e" d="M 1.55,0.11 Q 1.55,0.11 1.23,3.85 0.91,7.58 0.77,20.62 0.62,33.66 0.26,49.58 -0.08,65.50 -0.24,76.86 -0.40,88.22 -1.33,99.13 -2.27,110.05 -3.25,118.71 -4.22,127.37 -5.22,135.08 -6.21,142.78 -6.92,149.78 -7.62,156.77 -8.51,162.09 -9.39,167.41 -10.05,171.66 -10.71,175.91 -11.29,178.61 -11.86,181.32 -11.99,182.74 -12.11,184.15 -12.38,186.40 -12.64,188.66 -13.43,191.45 -14.23,194.25 -15.17,197.46 -16.11,200.68 -16.80,204.26 -17.49,207.85 -18.39,210.91 -19.30,213.97 -19.67,216.03 -20.04,218.08 -20.41,219.67 -20.79,221.27 -21.20,222.57 -21.61,223.88 -21.67,225.38 -21.74,226.89 -22.09,227.93 -22.45,228.97 -22.41,230.17 -22.37,231.36 -23.02,234.19 -23.67,237.03 -25.25,239.89 -26.83,242.76 -28.97,247.07 -31.11,251.38 -33.24,255.25 -35.36,259.13 -37.14,262.46 -38.92,265.79 -40.85,269.49 -42.78,273.20 -44.49,276.23 -46.20,279.26 -47.80,281.98 -49.40,284.70 -50.35,286.66 -51.29,288.62 -51.93,289.89 -52.56,291.15 -53.04,292.23 -53.52,293.31 -54.15,294.69 -54.79,296.07 -55.94,297.36 -57.10,298.65 -57.04,300.25 -56.97,301.86 -57.88,303.50 -58.79,305.15 -59.63,306.41 -60.47,307.67 -61.11,309.61 -61.75,311.54 -62.31,312.50 -62.87,313.46 -63.77,315.00 -64.67,316.54 -65.55,318.70 -66.42,320.86 -67.03,322.10 -67.64,323.35 -68.18,324.47 -68.72,325.58 -69.23,326.63 -69.75,327.68 -70.24,328.71 -70.74,329.73 -71.36,331.21 -71.98,332.69 -72.97,333.92 -73.97,335.16 -74.23,335.41 -74.50,335.66 -74.81,335.84 -75.13,336.02 -75.48,336.11 -75.83,336.21 -76.19,336.22 -76.56,336.24 -76.91,336.16 -77.27,336.08 -77.60,335.93 -77.92,335.77 -78.20,335.53 -78.48,335.30 -78.70,335.01 -78.91,334.72 -79.05,334.38 -79.19,334.04 -79.25,333.69 -79.30,333.33 -79.27,332.96 -79.24,332.60 -79.12,332.26 -79.00,331.91 -78.81,331.61 -78.61,331.30 -76.38,331.16 -74.16,331.03 -69.98,331.24 -65.79,331.46 -61.83,331.63 -57.86,331.79 -51.86,331.91 -45.86,332.04 -38.93,332.70 -31.99,333.37 -25.63,333.96 -19.27,334.56 -10.78,335.70 -2.30,336.84 4.46,337.91 11.23,338.98 19.21,339.44 27.18,339.90 37.21,340.39 47.23,340.89 55.81,341.39 64.40,341.89 73.24,342.69 82.08,343.48 92.99,344.11 103.91,344.73 112.89,345.58 121.87,346.42 132.93,348.52 143.99,350.61 153.02,352.94 162.04,355.28 170.18,357.42 178.31,359.56 185.49,361.33 192.68,363.10 197.12,363.84 201.56,364.58 204.16,364.32 206.77,364.06 207.72,363.22 208.67,362.37 208.80,362.18 208.93,361.98 209.12,361.84 209.31,361.70 209.54,361.62 209.76,361.55 210.00,361.55 210.24,361.55 210.46,361.62 210.69,361.70 210.88,361.85 211.06,361.99 211.20,362.19 211.33,362.38 211.39,362.61 211.45,362.84 211.44,363.08 211.43,363.32 211.34,363.54 211.25,363.76 211.09,363.94 210.94,364.12 210.74,364.24 210.53,364.36 210.30,364.41 210.07,364.46 209.83,364.43 209.60,364.41 209.38,364.31 209.17,364.21 208.99,364.04 208.82,363.88 208.71,363.67 208.60,363.46 208.57,363.22 208.53,362.99 208.57,362.75 208.61,362.52 208.72,362.31 208.83,362.10 209.00,361.94 209.18,361.78 209.39,361.68 209.61,361.58 209.85,361.55 210.08,361.53 210.31,361.58 210.54,361.63 210.75,361.76 210.95,361.88 211.10,362.06 211.26,362.24 211.34,362.47 211.43,362.69 211.44,362.92 211.45,363.16 211.39,363.39 211.32,363.62 211.32,363.62 211.32,363.62 209.17,365.15 207.02,366.68 204.08,366.93 201.14,367.18 196.60,366.42 192.05,365.66 184.84,363.89 177.64,362.12 169.51,359.98 161.38,357.85 152.44,355.54 143.49,353.23 132.56,351.16 121.62,349.09 112.69,348.26 103.75,347.43 92.79,346.81 81.84,346.20 73.04,345.42 64.24,344.65 55.67,344.18 47.10,343.70 37.06,343.24 27.02,342.78 18.90,342.36 10.78,341.94 4.04,340.93 -2.69,339.93 -11.12,338.89 -19.54,337.85 -25.92,337.38 -32.29,336.91 -39.08,336.42 -45.87,335.93 -51.88,336.04 -57.88,336.15 -61.87,336.28 -65.85,336.42 -69.19,336.57 -72.52,336.72 -74.73,336.52 -76.93,336.32 -75.45,335.74 -73.97,335.16 -74.23,335.41 -74.50,335.66 -74.81,335.84 -75.13,336.02 -75.48,336.11 -75.83,336.21 -76.19,336.22 -76.56,336.24 -76.91,336.16 -77.27,336.08 -77.60,335.93 -77.92,335.77 -78.20,335.53 -78.48,335.30 -78.70,335.01 -78.91,334.72 -79.05,334.38 -79.19,334.05 -79.25,333.69 -79.30,333.33 -79.27,332.96 -79.24,332.60 -79.12,332.26 -79.00,331.91 -78.81,331.61 -78.61,331.30 -77.75,330.42 -76.89,329.55 -76.32,328.40 -75.75,327.25 -75.24,326.24 -74.72,325.23 -74.20,324.19 -73.68,323.16 -73.15,322.08 -72.62,321.00 -72.07,319.78 -71.51,318.57 -70.97,317.16 -70.43,315.76 -69.90,314.38 -69.37,313.00 -68.55,311.69 -67.74,310.38 -66.97,308.97 -66.21,307.57 -65.72,306.14 -65.23,304.72 -64.53,303.54 -63.83,302.36 -62.74,300.73 -61.65,299.10 -61.38,297.80 -61.12,296.49 -59.83,295.32 -58.53,294.14 -57.64,292.84 -56.75,291.54 -56.06,290.49 -55.38,289.45 -54.63,288.42 -53.87,287.40 -52.91,285.32 -51.95,283.24 -50.41,280.51 -48.88,277.79 -47.27,274.77 -45.65,271.75 -43.82,267.99 -41.99,264.23 -40.33,260.82 -38.68,257.40 -36.77,253.52 -34.87,249.64 -32.95,245.18 -31.04,240.72 -29.83,237.83 -28.62,234.93 -28.08,233.02 -27.55,231.11 -27.34,229.85 -27.13,228.59 -26.56,227.49 -26.00,226.40 -25.49,224.47 -24.98,222.55 -24.43,221.45 -23.89,220.34 -23.38,218.97 -22.88,217.59 -22.52,215.38 -22.16,213.16 -21.35,210.23 -20.55,207.30 -19.91,203.55 -19.28,199.81 -18.46,196.60 -17.65,193.38 -17.01,190.52 -16.37,187.66 -15.77,185.65 -15.16,183.63 -14.80,182.20 -14.45,180.77 -13.89,178.14 -13.33,175.50 -12.67,171.24 -12.01,166.97 -11.14,161.74 -10.28,156.50 -9.57,149.47 -8.87,142.44 -7.89,134.76 -6.91,127.07 -5.95,118.44 -4.99,109.82 -4.08,99.00 -3.16,88.18 -3.03,76.81 -2.90,65.44 -2.58,49.54 -2.26,33.63 -2.16,20.49 -2.06,7.36 -1.81,3.62 -1.55,-0.11 -1.52,-0.30 -1.48,-0.48 -1.40,-0.65 -1.32,-0.82 -1.20,-0.97 -1.08,-1.12 -0.93,-1.23 -0.78,-1.34 -0.61,-1.42 -0.44,-1.49 -0.25,-1.52 -0.06,-1.56 0.11,-1.54 0.30,-1.53 0.48,-1.47 0.66,-1.41 0.82,-1.31 0.98,-1.21 1.11,-1.07 1.24,-0.94 1.34,-0.78 1.43,-0.61 1.48,-0.43 1.54,-0.25 1.54,-0.06 1.55,0.11 1.55,0.11 L 1.55,0.11 Z"></path></g><g transform="translate(86 94) rotate(0 177.5 183.5)" stroke="none"><path fill="#1e1e1e" d="M 0.49,-1.48 Q 0.49,-1.48 7.38,0.85 14.27,3.18 24.92,6.18 35.57,9.18 49.04,13.35 62.52,17.52 76.57,21.88 90.62,26.24 103.79,30.40 116.95,34.56 132.01,38.91 147.08,43.27 159.22,46.56 171.37,49.84 183.15,52.97 194.92,56.09 206.84,59.44 218.75,62.78 230.46,66.80 242.17,70.82 256.72,78.61 271.26,86.39 283.21,94.60 295.16,102.82 306.01,111.50 316.85,120.18 324.35,127.05 331.85,133.91 334.99,136.51 338.14,139.11 339.75,140.16 341.35,141.21 342.63,141.62 343.91,142.03 345.64,141.86 347.37,141.70 348.67,142.82 349.97,143.93 351.10,146.12 352.24,148.30 353.25,152.20 354.26,156.10 354.93,160.93 355.60,165.77 355.86,172.75 356.13,179.74 355.64,186.20 355.16,192.67 354.07,198.90 352.99,205.13 351.36,212.38 349.74,219.63 348.47,224.45 347.19,229.26 346.05,232.23 344.91,235.20 343.85,237.61 342.78,240.02 342.11,241.65 341.44,243.27 340.54,245.35 339.64,247.43 338.70,250.55 337.75,253.67 336.47,257.63 335.18,261.58 333.79,266.96 332.39,272.33 330.91,276.97 329.44,281.60 328.24,285.28 327.04,288.97 325.67,293.95 324.31,298.93 323.15,303.08 321.98,307.23 320.92,311.00 319.85,314.78 319.41,317.46 318.97,320.14 318.48,322.49 318.00,324.83 317.51,328.08 317.02,331.33 316.82,333.84 316.62,336.34 316.24,339.18 315.86,342.02 315.70,345.74 315.54,349.46 315.18,352.27 314.82,355.09 314.68,357.37 314.53,359.65 313.88,362.17 313.23,364.68 311.73,365.35 310.24,366.01 306.22,365.27 302.20,364.52 297.39,363.02 292.58,361.53 288.01,360.32 283.45,359.12 276.33,357.46 269.22,355.79 261.89,354.22 254.57,352.64 246.25,350.53 237.93,348.41 232.69,347.23 227.46,346.05 224.35,345.25 221.24,344.45 219.30,343.84 217.35,343.24 216.29,343.11 215.22,342.98 213.98,343.02 212.74,343.06 211.32,343.18 209.91,343.30 208.84,343.40 207.76,343.50 206.25,343.62 204.74,343.74 203.24,343.84 201.73,343.93 200.50,344.58 199.27,345.22 199.92,344.06 200.57,342.90 201.43,345.01 202.28,347.12 202.71,348.13 203.13,349.13 204.06,350.65 204.98,352.16 205.82,353.60 206.66,355.05 207.66,356.54 208.67,358.03 210.07,358.75 211.47,359.46 213.21,360.05 214.95,360.64 217.89,361.15 220.82,361.66 221.33,361.88 221.84,362.10 222.26,362.47 222.67,362.84 222.95,363.32 223.22,363.81 223.32,364.35 223.43,364.90 223.35,365.45 223.28,366.00 223.03,366.50 222.79,367.00 222.39,367.39 222.00,367.78 221.50,368.03 221.01,368.28 220.45,368.35 219.90,368.43 219.36,368.33 218.81,368.22 218.33,367.95 217.84,367.67 217.47,367.26 217.10,366.85 216.88,366.34 216.66,365.83 216.62,365.27 216.57,364.72 216.70,364.18 216.84,363.64 217.14,363.17 217.44,362.70 217.87,362.35 218.30,362.00 218.82,361.81 219.35,361.62 219.90,361.61 220.46,361.59 220.99,361.75 221.52,361.92 221.97,362.24 222.42,362.56 222.75,363.02 223.07,363.47 223.24,364.00 223.40,364.53 223.38,365.09 223.37,365.64 223.18,366.16 222.99,366.69 222.64,367.12 222.29,367.55 221.82,367.85 221.35,368.15 220.81,368.29 220.27,368.42 219.72,368.37 219.17,368.33 219.17,368.33 219.17,368.33 217.01,367.81 214.86,367.29 213.23,366.72 211.59,366.15 209.91,365.68 208.22,365.21 207.09,364.45 205.96,363.69 204.60,362.28 203.25,360.87 202.45,360.06 201.66,359.25 201.19,358.05 200.73,356.86 199.69,355.23 198.66,353.61 198.05,352.64 197.45,351.67 196.91,350.51 196.38,349.36 195.58,347.57 194.78,345.78 194.55,344.47 194.33,343.15 195.67,341.12 197.01,339.09 198.27,338.55 199.53,338.01 200.63,338.03 201.73,338.06 203.24,338.15 204.74,338.25 206.26,338.37 207.78,338.50 208.88,338.61 209.97,338.72 211.51,338.90 213.05,339.08 214.52,339.44 215.99,339.80 217.11,340.20 218.22,340.60 220.06,341.23 221.90,341.87 224.97,342.65 228.05,343.44 233.32,344.62 238.59,345.80 246.86,347.89 255.13,349.98 262.49,351.54 269.85,353.10 277.00,354.75 284.15,356.40 288.79,357.58 293.43,358.77 298.10,360.18 302.77,361.60 306.18,362.30 309.60,362.99 310.70,362.99 311.80,362.99 311.85,361.23 311.91,359.48 312.06,357.11 312.22,354.75 312.57,352.05 312.92,349.35 313.08,345.51 313.25,341.67 313.62,338.90 313.99,336.12 314.21,333.53 314.42,330.94 314.92,327.62 315.41,324.30 315.89,322.00 316.36,319.71 316.83,316.88 317.30,314.06 318.36,310.29 319.43,306.51 320.58,302.37 321.74,298.23 323.11,293.19 324.49,288.14 325.67,284.46 326.86,280.79 328.30,276.22 329.75,271.65 331.15,266.19 332.55,260.74 333.80,256.80 335.05,252.87 336.01,249.59 336.97,246.31 337.85,244.17 338.72,242.02 339.51,240.48 340.30,238.93 341.33,236.57 342.35,234.22 343.43,231.39 344.51,228.56 345.74,223.79 346.97,219.02 348.54,211.83 350.11,204.64 351.13,198.55 352.15,192.46 352.55,186.17 352.96,179.87 352.62,173.07 352.27,166.27 351.51,161.67 350.74,157.07 349.73,153.64 348.72,150.22 347.80,148.71 346.89,147.19 345.44,146.28 343.99,145.37 342.92,145.07 341.84,144.77 340.82,144.13 339.80,143.49 338.13,142.32 336.47,141.14 333.27,138.50 330.07,135.86 322.63,129.05 315.20,122.24 304.44,113.61 293.67,104.99 281.84,96.85 270.01,88.72 255.66,81.02 241.31,73.32 229.67,69.33 218.04,65.34 206.14,62.00 194.24,58.67 182.45,55.55 170.67,52.43 158.50,49.15 146.33,45.86 131.23,41.51 116.13,37.16 102.97,33.02 89.81,28.89 75.75,24.55 61.69,20.21 48.24,16.09 34.80,11.97 24.06,8.99 13.32,6.01 6.41,3.74 -0.49,1.48 -0.66,1.40 -0.83,1.32 -0.98,1.20 -1.12,1.08 -1.23,0.93 -1.35,0.78 -1.42,0.60 -1.50,0.43 -1.53,0.24 -1.56,0.06 -1.54,-0.12 -1.53,-0.31 -1.47,-0.49 -1.41,-0.66 -1.31,-0.82 -1.21,-0.98 -1.07,-1.11 -0.93,-1.24 -0.77,-1.34 -0.61,-1.43 -0.43,-1.48 -0.25,-1.54 -0.06,-1.54 0.12,-1.55 0.30,-1.51 0.49,-1.48 0.49,-1.48 L 0.49,-1.48 Z"></path></g><g transform="translate(45 454) rotate(0 60.5 14)" stroke="none"><path fill="#1e1e1e" d="M 0.17,-1.59 Q 0.17,-1.59 5.34,-0.97 10.51,-0.36 21.35,1.06 32.18,2.48 42.29,4.54 52.40,6.60 62.46,9.21 72.52,11.82 80.53,14.08 88.54,16.35 95.43,18.76 102.32,21.18 107.78,22.76 113.24,24.35 117.30,25.53 121.37,26.71 121.56,26.81 121.76,26.90 121.91,27.05 122.07,27.20 122.17,27.39 122.27,27.58 122.30,27.80 122.33,28.01 122.29,28.22 122.26,28.44 122.15,28.63 122.05,28.82 121.89,28.96 121.73,29.11 121.54,29.20 121.34,29.29 121.12,29.31 120.91,29.33 120.70,29.28 120.49,29.23 120.30,29.12 120.12,29.00 119.98,28.84 119.84,28.67 119.77,28.47 119.69,28.27 119.68,28.05 119.67,27.84 119.73,27.63 119.79,27.42 119.91,27.24 120.04,27.07 120.21,26.94 120.38,26.81 120.59,26.74 120.79,26.67 121.01,26.68 121.23,26.68 121.43,26.75 121.63,26.82 121.80,26.95 121.97,27.09 122.09,27.27 122.21,27.45 122.27,27.66 122.32,27.87 122.31,28.08 122.30,28.30 122.21,28.50 122.13,28.70 121.99,28.86 121.85,29.02 121.66,29.13 121.48,29.24 121.26,29.29 121.05,29.33 120.84,29.30 120.62,29.28 120.62,29.28 120.62,29.28 116.56,28.10 112.49,26.93 106.96,25.33 101.42,23.74 94.61,21.36 87.80,18.99 79.81,16.75 71.82,14.52 61.83,11.95 51.84,9.39 41.82,7.39 31.81,5.39 20.99,4.02 10.18,2.66 5.00,2.12 -0.17,1.59 -0.36,1.54 -0.55,1.50 -0.72,1.41 -0.89,1.32 -1.04,1.20 -1.18,1.07 -1.29,0.91 -1.41,0.75 -1.48,0.57 -1.55,0.39 -1.57,0.20 -1.60,0.01 -1.57,-0.17 -1.55,-0.36 -1.49,-0.54 -1.42,-0.72 -1.31,-0.88 -1.20,-1.04 -1.06,-1.17 -0.92,-1.30 -0.75,-1.40 -0.58,-1.49 -0.39,-1.53 -0.20,-1.58 -0.01,-1.58 0.17,-1.59 0.17,-1.59 L 0.17,-1.59 Z"></path></g><g transform="translate(207 493) rotate(0 41.5 -1)" stroke="none"><path fill="#1e1e1e" d="M -0.13,-1.86 Q -0.13,-1.86 3.89,-2.07 7.92,-2.29 16.53,-2.93 25.14,-3.57 32.86,-3.83 40.58,-4.09 47.05,-3.90 53.53,-3.70 60.05,-3.04 66.57,-2.37 70.45,-2.08 74.33,-1.79 76.37,-1.40 78.41,-1.00 80.78,-0.81 83.15,-0.62 83.41,-0.55 83.66,-0.48 83.88,-0.34 84.10,-0.19 84.26,0.01 84.43,0.21 84.51,0.46 84.60,0.71 84.60,0.97 84.61,1.24 84.53,1.49 84.44,1.74 84.29,1.95 84.13,2.16 83.91,2.31 83.70,2.47 83.44,2.54 83.19,2.61 82.93,2.60 82.66,2.59 82.42,2.50 82.17,2.40 81.97,2.23 81.77,2.07 81.63,1.84 81.49,1.62 81.43,1.36 81.37,1.10 81.39,0.84 81.42,0.58 81.53,0.34 81.63,0.10 81.81,-0.09 81.99,-0.28 82.22,-0.41 82.46,-0.53 82.71,-0.58 82.97,-0.62 83.24,-0.59 83.50,-0.55 83.73,-0.43 83.97,-0.30 84.15,-0.12 84.33,0.06 84.45,0.30 84.56,0.54 84.59,0.80 84.62,1.06 84.57,1.32 84.52,1.58 84.38,1.81 84.25,2.03 84.05,2.21 83.85,2.38 83.61,2.48 83.37,2.58 83.10,2.60 82.84,2.62 82.84,2.62 82.84,2.62 80.33,2.21 77.83,1.81 75.98,1.39 74.13,0.98 70.21,0.72 66.29,0.46 59.87,-0.14 53.45,-0.76 47.07,-0.90 40.69,-1.03 33.05,-0.69 25.40,-0.36 16.78,0.38 8.17,1.14 4.15,1.50 0.13,1.86 -0.09,1.85 -0.31,1.84 -0.53,1.78 -0.74,1.71 -0.94,1.60 -1.13,1.48 -1.29,1.32 -1.46,1.17 -1.57,0.97 -1.69,0.78 -1.76,0.57 -1.83,0.35 -1.85,0.13 -1.86,-0.09 -1.83,-0.31 -1.79,-0.53 -1.70,-0.74 -1.61,-0.95 -1.47,-1.13 -1.33,-1.30 -1.16,-1.45 -0.98,-1.59 -0.78,-1.68 -0.57,-1.78 -0.35,-1.82 -0.13,-1.86 -0.13,-1.86 L -0.13,-1.86 Z"></path></g><g transform="translate(215 511) rotate(0 30 1)" stroke="none"><path fill="#1e1e1e" d="M 0.11,-1.84 Q 0.11,-1.84 4.71,-1.48 9.30,-1.12 16.14,-0.66 22.98,-0.20 28.16,0.01 33.35,0.22 38.13,0.32 42.92,0.42 46.39,0.47 49.87,0.53 52.20,0.55 54.54,0.58 57.27,0.47 60.00,0.36 60.26,0.40 60.52,0.45 60.76,0.57 60.99,0.70 61.17,0.89 61.35,1.08 61.46,1.32 61.57,1.56 61.60,1.83 61.63,2.09 61.57,2.35 61.51,2.61 61.38,2.83 61.24,3.06 61.04,3.23 60.83,3.40 60.59,3.50 60.34,3.59 60.08,3.61 59.81,3.62 59.56,3.55 59.30,3.48 59.08,3.33 58.87,3.18 58.71,2.97 58.55,2.76 58.46,2.50 58.38,2.25 58.38,1.99 58.38,1.72 58.47,1.47 58.55,1.22 58.71,1.01 58.87,0.80 59.09,0.66 59.31,0.51 59.57,0.44 59.82,0.37 60.09,0.38 60.35,0.40 60.60,0.50 60.84,0.60 61.04,0.77 61.25,0.94 61.38,1.17 61.52,1.40 61.57,1.65 61.63,1.91 61.60,2.18 61.57,2.44 61.46,2.68 61.35,2.92 61.16,3.11 60.98,3.30 60.75,3.42 60.51,3.55 60.25,3.59 59.99,3.63 59.99,3.63 59.99,3.63 57.26,3.50 54.53,3.37 52.18,3.37 49.84,3.37 46.36,3.36 42.88,3.35 38.06,3.30 33.25,3.26 28.01,3.12 22.78,2.98 15.94,2.63 9.09,2.27 4.48,2.06 -0.11,1.84 -0.33,1.80 -0.55,1.76 -0.75,1.67 -0.95,1.58 -1.13,1.44 -1.30,1.30 -1.44,1.12 -1.58,0.95 -1.67,0.74 -1.76,0.54 -1.80,0.32 -1.84,0.10 -1.83,-0.11 -1.81,-0.33 -1.75,-0.54 -1.68,-0.76 -1.56,-0.95 -1.45,-1.14 -1.29,-1.30 -1.13,-1.45 -0.94,-1.57 -0.75,-1.68 -0.54,-1.75 -0.32,-1.81 -0.10,-1.83 0.11,-1.84 0.11,-1.84 L 0.11,-1.84 Z"></path></g><g transform="translate(331 505) rotate(0 46 -1.5)" stroke="none"><path fill="#1e1e1e" d="M -0.17,-1.55 Q -0.17,-1.55 2.41,-1.80 5.00,-2.06 8.40,-2.44 11.80,-2.82 17.29,-3.27 22.79,-3.72 28.31,-3.90 33.83,-4.09 41.07,-4.16 48.31,-4.24 56.87,-3.98 65.42,-3.72 71.05,-3.60 76.69,-3.49 81.09,-3.44 85.49,-3.39 88.75,-3.36 92.01,-3.32 92.22,-3.29 92.43,-3.25 92.62,-3.15 92.81,-3.04 92.96,-2.89 93.10,-2.73 93.19,-2.53 93.28,-2.34 93.30,-2.12 93.32,-1.91 93.27,-1.70 93.22,-1.49 93.11,-1.31 93.00,-1.13 92.83,-0.99 92.67,-0.85 92.47,-0.77 92.27,-0.70 92.05,-0.69 91.84,-0.68 91.63,-0.74 91.43,-0.80 91.25,-0.92 91.07,-1.04 90.94,-1.21 90.82,-1.39 90.75,-1.59 90.68,-1.79 90.69,-2.01 90.69,-2.22 90.76,-2.43 90.83,-2.63 90.96,-2.80 91.09,-2.97 91.27,-3.09 91.45,-3.21 91.66,-3.26 91.87,-3.32 92.08,-3.30 92.29,-3.29 92.49,-3.21 92.69,-3.12 92.85,-2.98 93.02,-2.84 93.12,-2.66 93.23,-2.47 93.28,-2.26 93.32,-2.05 93.30,-1.84 93.27,-1.63 93.18,-1.43 93.09,-1.24 92.94,-1.08 92.79,-0.93 92.60,-0.83 92.41,-0.73 92.19,-0.70 91.98,-0.67 91.98,-0.67 91.98,-0.67 88.72,-0.70 85.46,-0.73 81.05,-0.77 76.63,-0.81 70.99,-0.92 65.34,-1.02 56.84,-1.26 48.34,-1.51 41.14,-1.42 33.93,-1.32 28.48,-1.12 23.03,-0.91 17.58,-0.43 12.14,0.04 8.74,0.47 5.34,0.91 2.75,1.23 0.17,1.55 -0.01,1.55 -0.20,1.54 -0.38,1.50 -0.56,1.45 -0.73,1.36 -0.90,1.27 -1.04,1.15 -1.17,1.02 -1.28,0.86 -1.39,0.71 -1.45,0.53 -1.52,0.35 -1.54,0.17 -1.56,-0.01 -1.53,-0.20 -1.51,-0.38 -1.44,-0.56 -1.37,-0.74 -1.26,-0.89 -1.15,-1.04 -1.01,-1.17 -0.87,-1.29 -0.70,-1.38 -0.53,-1.46 -0.35,-1.50 -0.17,-1.55 -0.17,-1.55 L -0.17,-1.55 Z"></path></g><g transform="translate(123 179) rotate(0 17 27)" stroke="none"><path fill="#1e1e1e" d="M -0.18,-1.86 Q -0.18,-1.86 2.69,-2.07 5.57,-2.29 7.99,-2.36 10.41,-2.43 12.30,-2.50 14.19,-2.57 16.53,-2.25 18.88,-1.93 21.03,-1.49 23.19,-1.05 25.41,0.06 27.63,1.18 29.11,1.84 30.59,2.49 31.94,3.38 33.29,4.27 34.67,5.19 36.05,6.11 37.18,7.58 38.31,9.04 39.06,10.93 39.81,12.82 40.07,15.20 40.32,17.58 40.51,19.11 40.69,20.64 40.82,21.88 40.95,23.12 41.05,24.23 41.14,25.34 40.93,27.38 40.73,29.41 40.32,30.49 39.91,31.58 38.17,33.79 36.43,36.00 35.70,36.82 34.97,37.64 33.64,38.66 32.30,39.69 30.54,41.05 28.77,42.42 27.22,43.54 25.66,44.66 24.34,45.05 23.02,45.44 21.87,45.58 20.71,45.72 19.03,45.83 17.34,45.94 15.69,45.99 14.03,46.03 12.62,46.07 11.21,46.10 9.61,46.12 8.00,46.15 6.48,46.17 4.96,46.19 3.58,46.21 2.20,46.23 1.01,46.26 -0.17,46.28 -1.46,46.39 -2.75,46.49 -2.49,44.80 -2.23,43.11 -0.13,44.48 1.95,45.85 3.55,46.67 5.15,47.49 6.96,48.20 8.78,48.92 10.47,49.51 12.17,50.10 13.54,50.62 14.92,51.14 16.30,51.62 17.68,52.10 19.25,52.24 20.83,52.38 22.02,52.34 23.21,52.29 24.73,52.20 26.25,52.11 29.12,52.03 32.00,51.95 32.48,52.03 32.97,52.11 33.40,52.34 33.84,52.57 34.17,52.93 34.51,53.29 34.72,53.73 34.93,54.18 34.98,54.67 35.03,55.16 34.93,55.64 34.82,56.12 34.57,56.54 34.31,56.96 33.94,57.28 33.56,57.60 33.11,57.78 32.65,57.97 32.16,57.99 31.67,58.02 31.19,57.89 30.72,57.76 30.31,57.48 29.90,57.20 29.61,56.81 29.31,56.42 29.15,55.95 28.99,55.49 28.99,54.99 28.99,54.50 29.15,54.04 29.31,53.57 29.61,53.18 29.90,52.79 30.31,52.51 30.72,52.23 31.19,52.10 31.67,51.97 32.16,52.00 32.65,52.02 33.11,52.21 33.56,52.39 33.94,52.71 34.31,53.03 34.57,53.45 34.82,53.87 34.93,54.35 35.03,54.83 34.98,55.32 34.93,55.81 34.72,56.26 34.51,56.70 34.17,57.06 33.83,57.42 33.40,57.65 32.97,57.88 32.48,57.96 31.99,58.04 31.99,58.04 31.99,58.04 30.12,58.01 28.25,57.99 26.74,57.90 25.22,57.81 24.14,57.73 23.06,57.65 21.70,57.49 20.35,57.34 18.24,56.86 16.14,56.38 14.69,55.85 13.24,55.31 12.03,54.78 10.81,54.26 9.11,53.75 7.41,53.24 5.31,52.71 3.21,52.19 1.00,51.44 -1.20,50.69 -3.31,49.56 -5.42,48.43 -6.35,47.15 -7.28,45.87 -5.81,43.03 -4.33,40.18 -2.78,39.93 -1.22,39.68 -0.14,39.71 0.93,39.73 2.38,39.75 3.83,39.77 5.05,39.80 6.27,39.83 7.82,39.85 9.36,39.88 11.10,39.89 12.85,39.91 14.11,39.95 15.37,39.99 17.12,40.00 18.87,40.01 20.31,39.96 21.75,39.90 23.02,39.47 24.29,39.05 25.87,38.02 27.45,37.00 28.31,36.31 29.17,35.62 30.93,34.10 32.69,32.57 33.60,31.55 34.51,30.52 35.31,29.23 36.10,27.94 36.44,26.68 36.79,25.43 36.84,24.36 36.89,23.29 36.92,22.12 36.95,20.94 36.89,19.49 36.84,18.03 36.54,16.11 36.23,14.18 35.67,12.69 35.11,11.21 34.50,10.14 33.89,9.07 32.54,8.09 31.19,7.10 30.16,6.23 29.14,5.35 27.73,4.55 26.33,3.76 24.46,2.81 22.60,1.86 20.55,1.51 18.51,1.15 16.39,0.93 14.27,0.72 12.42,0.75 10.57,0.79 8.24,0.96 5.92,1.14 3.05,1.50 0.18,1.86 -0.03,1.86 -0.26,1.85 -0.48,1.79 -0.70,1.74 -0.90,1.63 -1.09,1.52 -1.26,1.36 -1.43,1.21 -1.55,1.02 -1.67,0.83 -1.75,0.62 -1.83,0.41 -1.85,0.18 -1.87,-0.03 -1.84,-0.26 -1.81,-0.48 -1.72,-0.69 -1.64,-0.90 -1.51,-1.09 -1.37,-1.27 -1.20,-1.42 -1.03,-1.56 -0.83,-1.66 -0.62,-1.76 -0.40,-1.81 -0.18,-1.86 -0.18,-1.86 L -0.18,-1.86 Z"></path></g><g transform="translate(194 190) rotate(0 25.5 22)" stroke="none"><path fill="#1e1e1e" d="M -2.11,-1.20 Q -2.11,-1.20 -0.83,-3.15 0.44,-5.09 1.64,-6.44 2.83,-7.78 4.22,-9.13 5.60,-10.47 6.97,-11.28 8.33,-12.09 9.90,-13.21 11.46,-14.34 12.85,-15.23 14.23,-16.13 16.19,-16.80 18.16,-17.47 20.19,-17.63 22.22,-17.78 23.30,-17.81 24.39,-17.83 25.71,-17.82 27.04,-17.81 28.18,-17.82 29.31,-17.83 31.68,-17.82 34.06,-17.82 35.19,-17.83 36.32,-17.83 38.40,-17.86 40.48,-17.88 42.72,-17.57 44.96,-17.26 46.19,-17.16 47.42,-17.05 49.09,-16.26 50.77,-15.47 51.90,-14.35 53.04,-13.23 54.46,-11.78 55.88,-10.33 56.68,-9.19 57.49,-8.05 58.15,-6.54 58.81,-5.03 59.31,-3.95 59.81,-2.87 60.32,-1.82 60.83,-0.78 61.17,0.55 61.51,1.89 61.63,3.06 61.76,4.24 61.87,5.94 61.97,7.64 62.02,9.18 62.06,10.72 61.64,12.65 61.23,14.59 60.23,16.26 59.24,17.93 58.15,19.18 57.05,20.44 55.98,21.19 54.91,21.93 53.52,23.16 52.13,24.40 51.05,25.11 49.97,25.83 48.71,26.58 47.44,27.33 45.98,27.84 44.51,28.35 43.19,28.74 41.86,29.13 40.15,29.68 38.44,30.23 36.83,30.45 35.22,30.68 34.01,30.75 32.81,30.83 31.72,30.86 30.62,30.90 29.29,30.89 27.95,30.88 25.88,30.89 23.80,30.91 22.08,30.95 20.35,30.99 19.10,31.03 17.85,31.08 16.70,31.09 15.55,31.10 15.15,30.86 14.74,30.62 14.36,30.57 13.98,30.52 13.62,30.39 13.26,30.25 12.94,30.03 12.62,29.81 12.37,29.52 12.11,29.24 11.93,28.90 11.75,28.55 11.66,28.18 11.57,27.81 11.57,27.42 11.57,27.03 11.66,26.66 11.75,26.29 11.93,25.94 12.11,25.60 12.37,25.31 12.62,25.03 12.94,24.81 13.26,24.59 13.62,24.45 13.98,24.32 14.36,24.27 14.74,24.22 16.02,24.03 17.29,23.84 18.50,24.26 19.71,24.68 21.24,25.06 22.77,25.44 24.35,25.95 25.94,26.45 27.55,26.55 29.17,26.66 31.38,27.05 33.59,27.44 34.70,27.92 35.81,28.40 37.32,29.03 38.82,29.66 40.05,30.12 41.29,30.57 42.12,31.38 42.95,32.18 44.66,33.03 46.37,33.87 47.06,34.86 47.75,35.85 48.83,37.43 49.91,39.00 50.49,40.12 51.07,41.24 51.20,42.39 51.34,43.54 51.37,45.24 51.41,46.94 51.39,48.56 51.37,50.19 50.93,51.44 50.48,52.69 49.93,53.92 49.37,55.15 47.35,56.48 45.34,57.81 44.10,58.46 42.86,59.10 41.84,59.73 40.83,60.36 39.39,61.14 37.96,61.92 36.76,62.09 35.55,62.26 34.23,62.33 32.91,62.41 31.55,62.42 30.19,62.43 28.71,62.43 27.24,62.42 25.29,62.38 23.34,62.34 22.06,61.94 20.78,61.54 19.03,61.08 17.28,60.62 15.01,60.12 12.74,59.62 11.66,59.50 10.58,59.38 9.17,58.98 7.76,58.58 6.67,58.03 5.57,57.47 4.30,56.88 3.02,56.30 1.93,55.92 0.84,55.55 -0.54,54.95 -1.93,54.35 -3.41,53.17 -4.89,51.99 -5.74,50.65 -6.58,49.31 -7.80,47.64 -9.01,45.98 -9.56,43.83 -10.12,41.69 -10.57,40.66 -11.03,39.63 -11.20,36.83 -11.38,34.03 -11.29,33.49 -11.21,32.94 -10.96,32.46 -10.70,31.97 -10.31,31.59 -9.92,31.21 -9.42,30.98 -8.93,30.75 -8.39,30.68 -7.84,30.62 -7.31,30.73 -6.77,30.84 -6.30,31.12 -5.83,31.40 -5.47,31.81 -5.11,32.23 -4.91,32.73 -4.70,33.24 -4.67,33.78 -4.63,34.33 -4.77,34.86 -4.91,35.39 -5.22,35.84 -5.52,36.30 -5.95,36.63 -6.38,36.97 -6.90,37.15 -7.42,37.33 -7.97,37.33 -8.51,37.34 -9.03,37.17 -9.55,37.00 -9.99,36.67 -10.43,36.34 -10.74,35.89 -11.05,35.44 -11.20,34.92 -11.35,34.39 -11.33,33.84 -11.30,33.30 -11.11,32.79 -10.91,32.28 -10.56,31.86 -10.21,31.44 -9.74,31.15 -9.27,30.87 -8.74,30.74 -8.21,30.62 -7.66,30.68 -7.12,30.73 -6.62,30.95 -6.12,31.18 -5.72,31.55 -5.32,31.93 -5.06,32.41 -4.80,32.89 -4.71,33.43 -4.61,33.97 -4.61,33.96 -4.61,33.96 -4.58,36.22 -4.54,38.47 -3.98,40.49 -3.41,42.51 -2.42,43.80 -1.44,45.08 -0.71,46.64 0.01,48.19 1.76,48.84 3.50,49.49 5.05,50.13 6.59,50.77 7.63,51.26 8.68,51.76 9.94,52.27 11.21,52.78 12.87,53.04 14.53,53.30 16.11,53.62 17.69,53.95 19.23,54.40 20.76,54.86 22.15,55.25 23.53,55.65 25.38,55.61 27.24,55.57 28.70,55.56 30.16,55.55 31.95,55.54 33.73,55.52 34.84,55.53 35.94,55.53 37.51,54.52 39.08,53.51 40.15,53.24 41.21,52.97 42.25,52.40 43.29,51.82 43.95,50.85 44.61,49.87 44.58,48.46 44.55,47.06 44.50,45.59 44.46,44.12 44.11,42.82 43.76,41.51 42.98,40.24 42.20,38.96 41.11,38.37 40.01,37.78 39.17,37.08 38.33,36.37 36.88,35.82 35.44,35.26 34.37,34.82 33.30,34.37 31.98,33.82 30.65,33.27 29.07,33.22 27.49,33.18 26.40,33.08 25.31,32.98 23.81,32.48 22.31,31.98 20.82,31.52 19.32,31.06 17.96,30.25 16.59,29.45 15.67,30.03 14.74,30.62 14.36,30.57 13.98,30.52 13.62,30.39 13.26,30.25 12.94,30.03 12.62,29.81 12.37,29.53 12.11,29.24 11.93,28.90 11.75,28.55 11.66,28.18 11.57,27.81 11.57,27.42 11.57,27.03 11.66,26.66 11.75,26.29 11.93,25.95 12.11,25.60 12.37,25.32 12.62,25.03 12.94,24.81 13.26,24.59 13.62,24.45 13.98,24.32 14.36,24.27 14.74,24.22 16.29,24.57 17.85,24.91 19.10,24.96 20.35,25.00 22.07,25.04 23.79,25.07 25.85,25.08 27.90,25.08 30.18,25.02 32.46,24.97 34.39,24.82 36.32,24.68 38.19,24.13 40.06,23.58 42.12,22.92 44.18,22.26 45.37,21.40 46.57,20.53 47.92,19.49 49.26,18.45 50.33,17.50 51.40,16.55 52.35,15.81 53.30,15.07 54.04,14.22 54.79,13.37 55.35,12.05 55.92,10.74 55.94,9.25 55.97,7.75 55.96,6.26 55.95,4.77 55.80,3.23 55.65,1.69 55.14,0.64 54.62,-0.41 54.07,-1.54 53.52,-2.68 52.58,-4.42 51.64,-6.17 50.16,-7.69 48.69,-9.21 47.71,-10.15 46.73,-11.09 45.15,-11.34 43.57,-11.58 42.03,-11.84 40.48,-12.11 38.40,-12.13 36.32,-12.16 35.19,-12.16 34.06,-12.17 31.69,-12.16 29.32,-12.16 28.19,-12.16 27.06,-12.17 25.76,-12.14 24.45,-12.12 22.36,-12.10 20.27,-12.09 19.08,-12.04 17.89,-11.99 16.69,-11.60 15.50,-11.22 13.83,-10.26 12.17,-9.31 10.34,-8.42 8.50,-7.54 7.26,-6.18 6.01,-4.83 5.08,-3.89 4.15,-2.95 3.13,-0.87 2.11,1.20 1.93,1.44 1.76,1.67 1.53,1.86 1.31,2.05 1.04,2.17 0.78,2.30 0.49,2.36 0.20,2.42 -0.08,2.41 -0.37,2.40 -0.66,2.32 -0.94,2.24 -1.19,2.09 -1.45,1.95 -1.66,1.75 -1.87,1.54 -2.03,1.30 -2.19,1.05 -2.28,0.77 -2.38,0.49 -2.40,0.20 -2.43,-0.08 -2.38,-0.37 -2.34,-0.66 -2.22,-0.93 -2.11,-1.20 -2.11,-1.20 L -2.11,-1.20 Z"></path></g><g transform="translate(95 248) rotate(0 111 -27)" stroke="none"><path fill="#1e1e1e" d="M 0.54,-1.46 Q 0.54,-1.46 2.83,-0.56 5.12,0.32 8.66,1.57 12.20,2.81 17.11,4.20 22.03,5.59 26.47,7.06 30.91,8.54 34.73,9.43 38.56,10.33 43.39,11.59 48.22,12.85 52.24,13.66 56.26,14.47 60.86,15.40 65.46,16.32 69.41,17.00 73.35,17.68 77.37,18.55 81.38,19.42 84.79,20.08 88.19,20.73 90.81,21.30 93.43,21.87 95.34,22.07 97.25,22.27 99.29,22.65 101.33,23.03 103.10,23.44 104.86,23.84 106.90,24.04 108.93,24.24 111.41,24.94 113.90,25.65 116.03,26.23 118.17,26.80 120.69,27.04 123.22,27.27 125.54,27.68 127.87,28.08 130.01,28.54 132.15,29.01 134.48,29.49 136.81,29.98 138.34,30.08 139.87,30.18 141.08,30.15 142.28,30.13 143.41,29.68 144.55,29.24 145.25,27.67 145.95,26.11 147.55,22.73 149.15,19.34 150.74,16.43 152.32,13.52 153.88,10.85 155.43,8.18 156.64,5.41 157.84,2.64 158.98,0.52 160.11,-1.59 160.81,-3.30 161.51,-5.01 162.04,-6.60 162.58,-8.20 163.06,-9.52 163.54,-10.85 163.99,-12.23 164.44,-13.61 165.29,-15.01 166.14,-16.40 166.65,-17.63 167.17,-18.86 168.09,-20.80 169.01,-22.74 170.01,-24.53 171.02,-26.32 172.02,-27.95 173.02,-29.58 173.64,-31.03 174.26,-32.49 174.80,-33.76 175.33,-35.04 175.87,-36.01 176.41,-36.99 177.70,-39.02 179.00,-41.06 180.37,-43.25 181.73,-45.43 182.75,-46.66 183.76,-47.89 184.33,-48.84 184.91,-49.79 185.86,-50.95 186.81,-52.10 187.79,-53.16 188.77,-54.21 190.40,-56.08 192.04,-57.94 193.56,-59.55 195.07,-61.16 195.93,-61.94 196.78,-62.72 197.89,-64.25 199.00,-65.78 200.07,-67.00 201.14,-68.23 202.13,-69.30 203.12,-70.37 204.02,-71.76 204.93,-73.15 205.96,-74.30 206.98,-75.46 207.97,-76.50 208.96,-77.54 209.95,-78.55 210.94,-79.57 211.93,-80.58 212.92,-81.59 214.27,-82.53 215.62,-83.46 216.62,-84.44 217.63,-85.43 218.95,-87.21 220.27,-89.00 220.80,-89.20 221.32,-89.39 221.88,-89.41 222.44,-89.43 222.98,-89.27 223.52,-89.11 223.97,-88.78 224.43,-88.46 224.76,-88.00 225.09,-87.55 225.26,-87.02 225.42,-86.48 225.41,-85.92 225.40,-85.36 225.21,-84.83 225.02,-84.31 224.67,-83.87 224.32,-83.43 223.85,-83.13 223.38,-82.82 222.84,-82.68 222.30,-82.55 221.74,-82.59 221.18,-82.63 220.66,-82.85 220.15,-83.07 219.73,-83.44 219.31,-83.81 219.03,-84.30 218.75,-84.78 218.64,-85.33 218.53,-85.88 218.61,-86.44 218.68,-86.99 218.93,-87.50 219.17,-88.00 219.57,-88.40 219.96,-88.80 220.46,-89.05 220.96,-89.30 221.52,-89.38 222.07,-89.46 222.62,-89.35 223.17,-89.25 223.66,-88.98 224.15,-88.71 224.53,-88.29 224.90,-87.88 225.13,-87.36 225.35,-86.85 225.40,-86.29 225.45,-85.73 225.32,-85.19 225.18,-84.64 224.88,-84.17 224.58,-83.70 224.15,-83.34 223.72,-82.99 223.72,-82.99 223.72,-82.99 223.32,-82.54 222.92,-82.09 221.60,-80.79 220.28,-79.49 218.94,-78.20 217.59,-76.92 216.58,-75.93 215.58,-74.94 214.57,-73.96 213.56,-72.97 212.58,-72.01 211.60,-71.05 210.56,-70.04 209.52,-69.02 208.99,-68.09 208.46,-67.17 207.41,-66.16 206.36,-65.16 205.33,-64.18 204.31,-63.20 203.25,-62.10 202.19,-60.99 201.31,-59.87 200.44,-58.74 198.79,-57.41 197.14,-56.09 195.60,-54.57 194.06,-53.05 193.25,-51.92 192.44,-50.79 191.53,-49.83 190.62,-48.87 189.84,-47.98 189.06,-47.09 188.27,-45.94 187.48,-44.79 186.62,-43.78 185.77,-42.77 184.95,-41.50 184.13,-40.23 182.67,-38.37 181.22,-36.52 180.07,-34.92 178.93,-33.32 178.29,-32.13 177.66,-30.95 176.88,-29.32 176.10,-27.70 175.16,-26.14 174.22,-24.59 173.35,-22.94 172.49,-21.29 171.73,-19.20 170.97,-17.11 170.23,-15.62 169.50,-14.13 168.76,-13.19 168.02,-12.25 167.43,-10.84 166.84,-9.42 166.22,-8.24 165.61,-7.05 164.94,-5.44 164.26,-3.82 163.46,-2.04 162.65,-0.26 161.60,1.76 160.56,3.80 159.33,6.74 158.11,9.69 156.65,12.36 155.19,15.02 153.75,17.89 152.32,20.76 150.85,24.22 149.39,27.68 148.30,30.04 147.21,32.41 145.89,33.10 144.56,33.79 143.30,33.70 142.04,33.60 140.76,33.41 139.48,33.21 137.88,32.90 136.27,32.59 133.93,32.12 131.59,31.64 129.50,31.20 127.41,30.76 125.19,30.38 122.97,30.01 120.21,29.76 117.46,29.51 115.29,28.96 113.13,28.40 110.89,27.79 108.66,27.18 106.37,26.99 104.08,26.81 102.43,26.31 100.79,25.80 98.85,25.41 96.92,25.01 94.89,24.73 92.87,24.45 90.28,23.89 87.69,23.32 84.26,22.67 80.82,22.01 76.86,21.16 72.91,20.30 68.92,19.62 64.93,18.94 60.33,18.02 55.73,17.10 51.64,16.28 47.54,15.46 42.74,14.22 37.94,12.99 33.99,12.07 30.04,11.16 25.66,9.73 21.28,8.30 16.27,6.92 11.25,5.54 7.66,4.33 4.07,3.12 1.76,2.29 -0.54,1.46 -0.71,1.37 -0.88,1.28 -1.02,1.16 -1.16,1.04 -1.27,0.88 -1.38,0.73 -1.44,0.55 -1.51,0.37 -1.53,0.19 -1.56,0.00 -1.54,-0.18 -1.51,-0.36 -1.45,-0.54 -1.38,-0.72 -1.27,-0.87 -1.17,-1.03 -1.03,-1.15 -0.89,-1.28 -0.72,-1.37 -0.55,-1.45 -0.37,-1.50 -0.19,-1.55 -0.00,-1.55 0.18,-1.55 0.36,-1.50 0.54,-1.46 0.54,-1.46 L 0.54,-1.46 Z"></path></g><g transform="translate(152 310) rotate(0 17.5 29)" stroke="none"><path fill="#1e1e1e" d="M -0.83,-1.45 Q -0.83,-1.45 1.21,-2.56 3.25,-3.67 7.16,-4.77 11.07,-5.87 14.73,-6.60 18.38,-7.32 21.95,-7.91 25.52,-8.50 28.23,-8.75 30.94,-9.00 33.06,-8.84 35.18,-8.68 37.51,-8.29 39.84,-7.91 41.75,-7.49 43.66,-7.08 45.52,-5.95 47.39,-4.82 49.03,-3.45 50.67,-2.07 51.80,-0.53 52.94,0.99 53.94,2.81 54.94,4.62 55.73,5.93 56.51,7.24 56.96,8.87 57.40,10.50 57.60,12.08 57.79,13.65 57.92,14.89 58.04,16.14 57.75,18.02 57.47,19.91 56.30,22.03 55.13,24.15 53.71,25.90 52.28,27.65 49.56,29.87 46.83,32.10 44.23,33.88 41.62,35.65 38.80,37.53 35.97,39.42 32.41,41.39 28.86,43.36 25.89,44.77 22.92,46.18 20.47,47.08 18.01,47.98 15.80,48.65 13.60,49.32 11.84,49.93 10.08,50.54 7.82,51.07 5.57,51.59 3.71,51.88 1.84,52.18 0.31,52.61 -1.22,53.04 -3.17,53.24 -5.12,53.44 -6.66,53.82 -8.19,54.20 -9.54,54.45 -10.88,54.69 -12.05,54.84 -13.22,54.99 -14.93,55.17 -16.64,55.34 -17.89,55.45 -19.14,55.56 -20.69,55.68 -22.25,55.80 -22.58,55.76 -22.92,55.72 -23.23,55.60 -23.55,55.48 -23.83,55.29 -24.11,55.10 -24.33,54.84 -24.56,54.59 -24.71,54.29 -24.87,53.99 -24.95,53.66 -25.03,53.33 -25.03,53.00 -25.03,52.66 -24.95,52.33 -24.87,52.00 -24.71,51.70 -24.56,51.40 -24.33,51.15 -24.11,50.90 -23.83,50.70 -23.55,50.51 -23.24,50.39 -22.92,50.27 -22.59,50.23 -22.25,50.19 -20.16,50.21 -18.08,50.23 -16.61,50.26 -15.14,50.29 -13.42,50.63 -11.69,50.98 -10.07,51.16 -8.45,51.34 -6.68,51.74 -4.90,52.14 -3.74,52.24 -2.58,52.34 -1.27,52.39 0.03,52.44 1.18,52.43 2.32,52.43 3.39,52.41 4.46,52.38 5.83,52.70 7.19,53.01 9.21,53.11 11.23,53.22 12.47,53.58 13.71,53.94 15.48,54.02 17.26,54.11 19.57,54.45 21.88,54.79 23.35,54.89 24.82,54.99 26.33,55.36 27.84,55.73 30.09,56.22 32.35,56.72 34.27,57.26 36.19,57.79 37.91,58.22 39.63,58.65 41.24,59.14 42.85,59.63 44.38,60.11 45.91,60.59 47.56,60.68 49.21,60.77 50.50,61.15 51.79,61.54 53.30,62.12 54.81,62.70 56.44,62.70 58.07,62.69 58.59,62.79 59.12,62.89 59.59,63.15 60.05,63.41 60.41,63.81 60.77,64.20 60.98,64.69 61.20,65.18 61.24,65.71 61.29,66.25 61.16,66.77 61.04,67.29 60.75,67.74 60.46,68.19 60.05,68.53 59.63,68.86 59.13,69.05 58.63,69.24 58.10,69.25 57.56,69.27 57.05,69.12 56.54,68.96 56.11,68.65 55.67,68.34 55.36,67.91 55.04,67.48 54.88,66.97 54.72,66.46 54.74,65.92 54.75,65.39 54.93,64.89 55.11,64.38 55.45,63.97 55.78,63.55 56.23,63.26 56.68,62.97 57.19,62.84 57.71,62.70 58.24,62.75 58.78,62.79 59.27,63.00 59.76,63.20 60.16,63.56 60.56,63.91 60.82,64.38 61.09,64.84 61.19,65.37 61.30,65.89 61.23,66.42 61.16,66.95 60.92,67.43 60.69,67.91 60.31,68.29 59.93,68.67 59.46,68.91 58.98,69.15 58.45,69.22 57.92,69.30 57.92,69.30 57.92,69.30 55.64,69.12 53.35,68.94 51.52,68.25 49.68,67.57 48.59,67.31 47.50,67.06 46.42,66.95 45.33,66.85 43.83,66.32 42.33,65.80 40.83,65.28 39.32,64.76 37.75,64.25 36.18,63.73 34.61,63.20 33.03,62.66 31.02,62.17 29.00,61.68 26.73,61.26 24.46,60.84 22.49,60.58 20.53,60.32 18.77,60.02 17.01,59.72 15.62,59.65 14.23,59.59 12.58,59.10 10.93,58.61 9.55,58.56 8.17,58.50 6.26,58.04 4.36,57.57 3.28,57.53 2.21,57.49 1.01,57.43 -0.17,57.37 -1.66,57.30 -3.14,57.22 -4.51,57.03 -5.88,56.85 -7.34,56.57 -8.80,56.29 -10.74,56.22 -12.69,56.16 -13.93,55.93 -15.16,55.70 -16.62,55.73 -18.08,55.76 -20.16,55.78 -22.25,55.80 -22.58,55.76 -22.92,55.72 -23.23,55.60 -23.55,55.48 -23.83,55.29 -24.11,55.10 -24.33,54.84 -24.56,54.59 -24.71,54.29 -24.87,53.99 -24.95,53.66 -25.03,53.34 -25.03,53.00 -25.03,52.66 -24.95,52.33 -24.87,52.00 -24.71,51.70 -24.56,51.40 -24.33,51.15 -24.11,50.90 -23.83,50.70 -23.55,50.51 -23.24,50.39 -22.92,50.27 -22.59,50.23 -22.25,50.19 -20.70,50.30 -19.16,50.42 -17.93,50.52 -16.70,50.61 -15.08,50.71 -13.47,50.81 -12.40,50.83 -11.34,50.85 -10.14,50.79 -8.94,50.73 -7.18,50.40 -5.42,50.07 -3.70,49.95 -1.97,49.82 -0.25,49.48 1.46,49.15 3.18,48.99 4.91,48.83 7.05,48.30 9.19,47.76 10.99,47.24 12.80,46.71 14.92,46.05 17.05,45.39 19.38,44.52 21.70,43.65 24.57,42.24 27.45,40.84 30.87,38.89 34.29,36.95 37.06,35.02 39.83,33.10 42.27,31.33 44.71,29.57 47.10,27.51 49.48,25.46 50.61,23.91 51.74,22.35 52.52,20.76 53.31,19.17 53.55,17.74 53.79,16.31 53.81,15.15 53.82,14.00 53.76,12.64 53.70,11.28 53.55,10.06 53.40,8.85 52.78,7.52 52.15,6.18 51.20,4.49 50.24,2.80 49.48,1.50 48.71,0.20 47.23,-1.03 45.75,-2.27 44.33,-3.25 42.91,-4.22 41.16,-4.69 39.40,-5.15 37.16,-5.50 34.92,-5.84 33.06,-6.04 31.20,-6.24 28.60,-5.97 26.00,-5.71 22.48,-5.10 18.97,-4.48 15.43,-3.73 11.89,-2.98 8.34,-1.95 4.79,-0.92 2.81,0.26 0.83,1.45 0.64,1.53 0.45,1.61 0.25,1.64 0.05,1.67 -0.14,1.65 -0.34,1.63 -0.53,1.57 -0.72,1.50 -0.89,1.40 -1.06,1.29 -1.20,1.14 -1.34,0.99 -1.44,0.82 -1.54,0.64 -1.59,0.45 -1.65,0.26 -1.66,0.05 -1.66,-0.14 -1.62,-0.33 -1.58,-0.53 -1.49,-0.71 -1.41,-0.90 -1.28,-1.05 -1.15,-1.21 -0.99,-1.33 -0.83,-1.45 -0.83,-1.45 L -0.83,-1.45 Z"></path></g><g transform="translate(330 310) rotate(0 -36 24)" stroke="none"><path fill="#1e1e1e" d="M 0.70,1.40 Q 0.70,1.40 -3.33,3.38 -7.37,5.36 -11.09,7.33 -14.80,9.31 -18.13,11.01 -21.46,12.71 -24.56,14.56 -27.65,16.40 -30.16,17.78 -32.67,19.16 -34.89,20.32 -37.11,21.48 -39.41,23.07 -41.72,24.67 -43.92,25.97 -46.13,27.26 -47.89,28.37 -49.65,29.48 -50.87,30.55 -52.10,31.62 -53.24,32.48 -54.39,33.34 -55.70,34.27 -57.01,35.20 -57.96,35.73 -58.91,36.26 -60.89,37.47 -62.86,38.69 -63.80,39.39 -64.73,40.09 -65.96,40.64 -67.20,41.19 -68.40,40.35 -69.61,39.51 -67.84,39.59 -66.06,39.67 -63.70,40.27 -61.33,40.87 -59.08,41.50 -56.84,42.14 -54.32,42.44 -51.80,42.73 -49.70,43.18 -47.61,43.63 -46.25,43.72 -44.88,43.81 -43.48,43.83 -42.07,43.84 -40.89,43.81 -39.71,43.78 -38.13,44.07 -36.55,44.36 -35.24,44.45 -33.93,44.53 -31.86,44.52 -29.79,44.50 -28.70,44.48 -27.61,44.45 -25.67,44.39 -23.74,44.33 -22.66,44.31 -21.59,44.29 -19.95,44.22 -18.31,44.16 -16.79,44.11 -15.26,44.05 -13.76,44.01 -12.25,43.97 -10.35,44.38 -8.44,44.79 -7.15,44.82 -5.86,44.85 -5.36,44.96 -4.86,45.06 -4.42,45.32 -3.98,45.58 -3.65,45.96 -3.32,46.34 -3.12,46.82 -2.93,47.29 -2.90,47.79 -2.86,48.30 -2.99,48.79 -3.13,49.29 -3.41,49.71 -3.69,50.14 -4.09,50.45 -4.49,50.76 -4.97,50.93 -5.45,51.10 -5.96,51.10 -6.47,51.11 -6.96,50.95 -7.44,50.79 -7.85,50.49 -8.26,50.18 -8.55,49.76 -8.84,49.35 -8.98,48.86 -9.12,48.37 -9.10,47.86 -9.08,47.35 -8.89,46.88 -8.71,46.40 -8.38,46.01 -8.06,45.62 -7.62,45.35 -7.19,45.08 -6.69,44.97 -6.20,44.85 -5.69,44.90 -5.18,44.95 -4.72,45.16 -4.26,45.37 -3.88,45.72 -3.51,46.06 -3.27,46.51 -3.02,46.96 -2.94,47.46 -2.85,47.96 -2.93,48.47 -3.00,48.97 -3.24,49.42 -3.47,49.87 -3.84,50.23 -4.20,50.58 -4.66,50.80 -5.12,51.02 -5.63,51.08 -6.13,51.14 -6.13,51.14 -6.13,51.14 -9.19,50.58 -12.25,50.02 -13.76,49.98 -15.26,49.94 -16.79,49.88 -18.31,49.83 -19.95,49.77 -21.59,49.70 -22.67,49.68 -23.75,49.65 -25.70,49.58 -27.65,49.51 -28.77,49.47 -29.88,49.42 -32.11,49.25 -34.33,49.08 -35.92,48.91 -37.50,48.74 -38.66,48.44 -39.83,48.13 -41.04,48.04 -42.26,47.95 -43.79,47.83 -45.32,47.71 -46.80,47.48 -48.29,47.26 -50.19,46.96 -52.10,46.66 -54.92,46.56 -57.75,46.45 -59.96,46.14 -62.18,45.83 -64.91,45.55 -67.63,45.28 -68.73,44.98 -69.83,44.69 -71.29,44.07 -72.74,43.44 -73.41,42.52 -74.08,41.60 -72.70,39.50 -71.32,37.40 -69.94,36.81 -68.57,36.22 -67.55,35.73 -66.54,35.25 -64.71,34.73 -62.88,34.21 -60.93,33.19 -58.99,32.17 -57.61,31.32 -56.23,30.48 -55.09,29.87 -53.96,29.26 -52.52,28.24 -51.08,27.21 -49.28,26.09 -47.48,24.96 -45.36,23.71 -43.25,22.46 -40.81,20.78 -38.37,19.09 -36.18,17.93 -33.99,16.77 -31.53,15.40 -29.08,14.03 -25.92,12.12 -22.76,10.21 -19.47,8.48 -16.18,6.76 -12.45,4.72 -8.72,2.68 -4.71,0.64 -0.70,-1.40 -0.52,-1.46 -0.34,-1.52 -0.15,-1.54 0.03,-1.56 0.21,-1.54 0.40,-1.51 0.58,-1.44 0.75,-1.37 0.90,-1.26 1.06,-1.15 1.18,-1.00 1.30,-0.86 1.39,-0.69 1.47,-0.52 1.51,-0.34 1.56,-0.15 1.55,0.03 1.55,0.21 1.50,0.40 1.45,0.58 1.36,0.75 1.27,0.91 1.14,1.05 1.01,1.19 0.85,1.29 0.70,1.40 0.70,1.40 L 0.70,1.40 Z"></path></g><g transform="translate(335 311) rotate(0 -12 49)" stroke="none"><path fill="#1e1e1e" d="M 1.81,1.08 Q 1.81,1.08 0.95,2.51 0.09,3.93 -0.13,5.13 -0.36,6.33 -0.47,7.68 -0.58,9.03 -0.93,10.44 -1.27,11.85 -1.73,13.48 -2.19,15.10 -2.35,16.52 -2.50,17.94 -3.32,20.21 -4.13,22.47 -4.34,23.84 -4.55,25.21 -4.99,27.01 -5.43,28.82 -5.94,30.72 -6.45,32.63 -6.58,33.93 -6.70,35.23 -7.06,36.80 -7.41,38.37 -7.49,39.45 -7.57,40.53 -7.91,41.82 -8.26,43.11 -8.34,44.21 -8.41,45.32 -8.77,46.68 -9.13,48.04 -9.56,50.00 -9.99,51.96 -10.46,54.15 -10.93,56.33 -11.39,57.45 -11.84,58.57 -11.94,59.77 -12.04,60.97 -12.41,62.24 -12.79,63.51 -12.87,64.72 -12.94,65.93 -13.32,67.24 -13.70,68.55 -14.23,69.53 -14.77,70.50 -15.25,71.98 -15.74,73.47 -16.15,75.08 -16.56,76.69 -17.07,78.64 -17.57,80.58 -18.12,81.54 -18.66,82.50 -18.74,83.86 -18.81,85.23 -19.26,86.35 -19.72,87.48 -20.13,89.66 -20.54,91.84 -20.61,93.10 -20.69,94.37 -20.69,96.19 -20.69,98.01 -20.78,98.53 -20.87,99.06 -21.12,99.53 -21.37,100.00 -21.76,100.37 -22.15,100.73 -22.64,100.96 -23.12,101.18 -23.65,101.24 -24.19,101.29 -24.71,101.17 -25.23,101.06 -25.69,100.78 -26.14,100.50 -26.49,100.10 -26.83,99.69 -27.03,99.19 -27.22,98.69 -27.25,98.16 -27.28,97.63 -27.13,97.11 -26.99,96.60 -26.69,96.16 -26.38,95.72 -25.96,95.39 -25.53,95.07 -25.02,94.90 -24.52,94.73 -23.98,94.74 -23.45,94.74 -22.94,94.91 -22.44,95.08 -22.01,95.41 -21.59,95.73 -21.29,96.18 -20.99,96.62 -20.85,97.14 -20.71,97.65 -20.74,98.18 -20.77,98.72 -20.97,99.21 -21.17,99.71 -21.52,100.11 -21.87,100.52 -22.33,100.79 -22.78,101.07 -23.31,101.18 -23.83,101.29 -24.36,101.23 -24.89,101.17 -25.37,100.95 -25.86,100.72 -26.25,100.35 -26.63,99.98 -26.88,99.51 -27.13,99.04 -27.21,98.51 -27.30,97.98 -27.30,97.98 -27.30,97.98 -27.22,95.41 -27.14,92.84 -26.83,91.24 -26.53,89.64 -26.22,88.45 -25.91,87.25 -25.33,85.02 -24.76,82.79 -24.40,81.10 -24.03,79.40 -23.44,78.24 -22.84,77.07 -22.33,75.12 -21.82,73.17 -21.26,71.61 -20.71,70.06 -20.04,68.35 -19.37,66.64 -19.02,65.03 -18.68,63.41 -18.20,61.91 -17.72,60.42 -17.29,58.42 -16.86,56.42 -16.12,54.72 -15.39,53.03 -15.17,51.77 -14.96,50.51 -14.62,49.44 -14.28,48.37 -13.71,46.57 -13.13,44.76 -12.54,42.35 -11.96,39.94 -11.72,38.63 -11.48,37.33 -11.10,36.00 -10.72,34.66 -10.45,33.20 -10.18,31.73 -9.77,29.83 -9.36,27.92 -8.99,26.18 -8.61,24.44 -8.27,22.87 -7.93,21.29 -7.43,19.35 -6.93,17.41 -6.72,15.69 -6.50,13.97 -6.09,12.27 -5.67,10.57 -5.31,9.56 -4.95,8.56 -4.75,6.93 -4.55,5.30 -4.04,3.55 -3.54,1.81 -2.67,0.36 -1.81,-1.08 -1.65,-1.28 -1.50,-1.49 -1.30,-1.64 -1.10,-1.80 -0.86,-1.91 -0.63,-2.01 -0.38,-2.06 -0.13,-2.11 0.11,-2.09 0.37,-2.08 0.61,-2.00 0.86,-1.93 1.08,-1.80 1.29,-1.66 1.48,-1.48 1.66,-1.31 1.79,-1.09 1.92,-0.87 2.00,-0.63 2.07,-0.38 2.09,-0.13 2.11,0.12 2.06,0.37 2.02,0.62 1.91,0.85 1.81,1.08 1.81,1.08 L 1.81,1.08 Z"></path></g><g transform="translate(471 128) rotate(0 -22.5 29.5)" stroke="none"><path fill="#1e1e1e" d="M 1.51,0.96 Q 1.51,0.96 -0.55,4.09 -2.61,7.22 -4.39,9.71 -6.16,12.20 -8.68,15.29 -11.19,18.39 -13.41,21.12 -15.62,23.84 -17.40,26.40 -19.18,28.95 -21.10,31.77 -23.02,34.58 -24.11,36.34 -25.19,38.09 -26.22,39.53 -27.25,40.97 -27.91,41.92 -28.58,42.87 -30.22,45.16 -31.87,47.44 -32.87,48.77 -33.87,50.11 -34.91,51.36 -35.95,52.61 -36.96,53.73 -37.97,54.85 -38.54,55.79 -39.12,56.74 -41.34,58.86 -43.56,60.99 -43.91,61.17 -44.27,61.34 -44.66,61.40 -45.06,61.45 -45.45,61.38 -45.84,61.30 -46.19,61.11 -46.53,60.91 -46.80,60.62 -47.06,60.32 -47.22,59.96 -47.38,59.59 -47.41,59.20 -47.45,58.80 -47.35,58.41 -47.26,58.03 -47.04,57.69 -46.83,57.36 -46.52,57.11 -46.21,56.86 -45.84,56.72 -45.46,56.58 -45.06,56.57 -44.67,56.56 -44.29,56.67 -43.91,56.79 -43.58,57.02 -43.26,57.25 -43.03,57.58 -42.79,57.90 -42.68,58.28 -42.56,58.66 -42.57,59.06 -42.58,59.45 -42.72,59.83 -42.85,60.20 -43.10,60.51 -43.35,60.82 -43.68,61.04 -44.02,61.25 -44.41,61.35 -44.79,61.45 -45.19,61.41 -45.59,61.38 -45.95,61.23 -46.32,61.07 -46.61,60.80 -46.91,60.54 -47.11,60.19 -47.30,59.85 -47.38,59.46 -47.45,59.07 -47.40,58.67 -47.35,58.28 -47.17,57.92 -46.99,57.56 -46.71,57.28 -46.43,57.00 -46.43,57.00 -46.43,57.00 -44.59,55.60 -42.76,54.21 -41.90,53.09 -41.04,51.97 -40.03,50.95 -39.02,49.93 -38.02,48.84 -37.02,47.74 -35.92,46.28 -34.82,44.82 -33.78,43.69 -32.75,42.56 -32.00,41.58 -31.25,40.59 -30.46,39.84 -29.66,39.08 -28.60,37.86 -27.54,36.64 -26.43,34.84 -25.32,33.03 -23.41,30.19 -21.50,27.34 -19.69,24.69 -17.88,22.03 -15.71,19.28 -13.54,16.52 -11.14,13.47 -8.75,10.42 -7.09,7.92 -5.43,5.42 -3.47,2.23 -1.51,-0.96 -1.37,-1.13 -1.24,-1.30 -1.06,-1.43 -0.89,-1.56 -0.69,-1.64 -0.49,-1.72 -0.28,-1.76 -0.06,-1.79 0.14,-1.77 0.36,-1.76 0.57,-1.69 0.77,-1.62 0.95,-1.50 1.14,-1.38 1.29,-1.23 1.44,-1.07 1.54,-0.88 1.65,-0.70 1.71,-0.49 1.77,-0.28 1.78,-0.06 1.79,0.14 1.74,0.36 1.70,0.57 1.61,0.77 1.51,0.96 1.51,0.96 L 1.51,0.96 Z"></path></g><g transform="translate(450 221) rotate(0 0.00004999999998744897 0.00004999999998744897)" stroke="none"><path fill="#1e1e1e" d="M 1.57,-1.57 Q 1.57,-1.57 1.77,-1.27 1.98,-0.98 2.09,-0.64 2.20,-0.29 2.19,0.05 2.18,0.41 2.05,0.75 1.93,1.09 1.70,1.37 1.48,1.65 1.18,1.84 0.87,2.04 0.52,2.12 0.18,2.21 -0.17,2.18 -0.53,2.15 -0.86,2.01 -1.19,1.87 -1.46,1.63 -1.73,1.39 -1.90,1.07 -2.08,0.76 -2.15,0.41 -2.21,0.05 -2.17,-0.29 -2.12,-0.65 -1.96,-0.97 -1.80,-1.29 -1.54,-1.54 -1.29,-1.80 -0.97,-1.96 -0.65,-2.12 -0.29,-2.17 0.06,-2.21 0.41,-2.15 0.76,-2.08 1.07,-1.90 1.39,-1.73 1.63,-1.46 1.87,-1.19 2.01,-0.86 2.15,-0.53 2.18,-0.17 2.21,0.18 2.12,0.52 2.03,0.87 1.84,1.18 1.65,1.48 1.37,1.70 1.09,1.93 0.75,2.05 0.41,2.18 0.05,2.19 -0.30,2.20 -0.64,2.09 -0.98,1.98 -1.27,1.77 -1.57,1.56 -1.57,1.57 -1.57,1.57 -1.73,1.35 -1.90,1.14 -2.01,0.90 -2.12,0.66 -2.16,0.39 -2.21,0.13 -2.20,-0.13 -2.18,-0.40 -2.10,-0.65 -2.02,-0.91 -1.88,-1.14 -1.74,-1.36 -1.55,-1.55 -1.36,-1.74 -1.14,-1.88 -0.91,-2.02 -0.65,-2.10 -0.40,-2.18 -0.13,-2.20 0.13,-2.21 0.39,-2.16 0.66,-2.12 0.90,-2.01 1.14,-1.90 1.35,-1.73 1.57,-1.57 1.57,-1.57 L 1.57,-1.57 Z"></path></g><g transform="translate(450 221) rotate(0 24.5 -7.5)" stroke="none"><path fill="#1e1e1e" d="M -0.49,-1.81 Q -0.49,-1.81 2.68,-2.60 5.86,-3.39 8.61,-4.26 11.36,-5.13 13.74,-5.79 16.11,-6.45 19.38,-7.56 22.64,-8.68 25.30,-9.18 27.96,-9.67 29.86,-10.17 31.76,-10.67 33.74,-11.17 35.72,-11.67 36.86,-12.01 38.01,-12.34 39.73,-13.05 41.44,-13.75 42.51,-14.38 43.57,-15.01 45.82,-16.21 48.06,-17.42 48.47,-17.50 48.88,-17.59 49.30,-17.54 49.71,-17.49 50.09,-17.31 50.47,-17.13 50.78,-16.84 51.08,-16.55 51.27,-16.17 51.46,-15.80 51.53,-15.38 51.59,-14.97 51.52,-14.55 51.45,-14.14 51.25,-13.77 51.05,-13.40 50.74,-13.12 50.43,-12.83 50.05,-12.66 49.66,-12.49 49.25,-12.45 48.83,-12.40 48.42,-12.50 48.01,-12.59 47.65,-12.81 47.29,-13.03 47.03,-13.36 46.76,-13.68 46.61,-14.07 46.45,-14.46 46.44,-14.88 46.42,-15.30 46.53,-15.71 46.65,-16.11 46.89,-16.45 47.13,-16.80 47.47,-17.05 47.80,-17.30 48.20,-17.43 48.60,-17.56 49.02,-17.56 49.44,-17.55 49.84,-17.41 50.23,-17.28 50.57,-17.02 50.90,-16.76 51.13,-16.41 51.36,-16.06 51.47,-15.65 51.58,-15.25 51.55,-14.83 51.52,-14.41 51.37,-14.02 51.21,-13.63 50.93,-13.32 50.66,-13.00 50.29,-12.79 49.93,-12.57 49.93,-12.57 49.93,-12.57 48.74,-11.97 47.55,-11.36 45.88,-10.97 44.21,-10.57 42.64,-10.11 41.07,-9.66 39.86,-9.34 38.64,-9.02 37.54,-8.93 36.43,-8.85 34.45,-8.35 32.48,-7.85 30.49,-7.36 28.50,-6.87 26.06,-6.38 23.62,-5.90 20.30,-4.70 16.98,-3.51 14.69,-2.79 12.40,-2.07 9.59,-1.06 6.78,-0.05 3.63,0.87 0.49,1.81 0.27,1.84 0.04,1.88 -0.17,1.85 -0.40,1.83 -0.61,1.76 -0.83,1.68 -1.02,1.56 -1.21,1.43 -1.36,1.27 -1.52,1.10 -1.63,0.90 -1.74,0.71 -1.80,0.49 -1.86,0.27 -1.86,0.04 -1.87,-0.18 -1.82,-0.40 -1.77,-0.62 -1.67,-0.82 -1.57,-1.03 -1.42,-1.20 -1.28,-1.37 -1.09,-1.51 -0.91,-1.64 -0.70,-1.72 -0.49,-1.81 -0.49,-1.81 L -0.49,-1.81 Z"></path></g><g transform="translate(118 47) rotate(0 -23.5 -18.5)" stroke="none"><path fill="#1e1e1e" d="M -1.06,1.77 Q -1.06,1.77 -2.50,0.91 -3.94,0.05 -5.70,-1.29 -7.46,-2.64 -9.05,-3.76 -10.63,-4.88 -12.17,-5.92 -13.71,-6.96 -15.04,-8.00 -16.37,-9.04 -17.54,-10.04 -18.71,-11.04 -20.16,-11.96 -21.62,-12.88 -22.99,-13.93 -24.36,-14.97 -25.54,-15.98 -26.73,-16.99 -28.25,-18.30 -29.77,-19.61 -30.99,-20.36 -32.22,-21.11 -33.71,-22.42 -35.19,-23.74 -36.41,-24.83 -37.62,-25.92 -38.62,-26.54 -39.62,-27.16 -40.93,-28.03 -42.24,-28.91 -43.19,-29.57 -44.14,-30.23 -46.53,-32.82 -48.91,-35.40 -49.12,-35.75 -49.32,-36.10 -49.40,-36.49 -49.49,-36.89 -49.44,-37.29 -49.39,-37.69 -49.22,-38.05 -49.04,-38.42 -48.76,-38.71 -48.48,-39.00 -48.12,-39.18 -47.76,-39.37 -47.36,-39.43 -46.97,-39.49 -46.57,-39.42 -46.17,-39.35 -45.82,-39.15 -45.46,-38.96 -45.19,-38.67 -44.92,-38.37 -44.75,-38.00 -44.59,-37.63 -44.55,-37.23 -44.51,-36.83 -44.60,-36.44 -44.69,-36.04 -44.90,-35.70 -45.11,-35.36 -45.42,-35.10 -45.74,-34.84 -46.11,-34.70 -46.49,-34.55 -46.89,-34.54 -47.29,-34.52 -47.68,-34.63 -48.07,-34.75 -48.40,-34.98 -48.73,-35.21 -48.97,-35.53 -49.21,-35.85 -49.34,-36.24 -49.46,-36.62 -49.45,-37.02 -49.45,-37.43 -49.32,-37.81 -49.18,-38.19 -48.94,-38.51 -48.69,-38.83 -48.35,-39.05 -48.01,-39.27 -47.62,-39.37 -47.23,-39.48 -46.83,-39.45 -46.43,-39.42 -46.06,-39.27 -45.68,-39.12 -45.38,-38.85 -45.08,-38.59 -45.08,-38.59 -45.08,-38.59 -43.76,-36.76 -42.45,-34.93 -41.15,-33.68 -39.85,-32.44 -38.52,-31.52 -37.20,-30.61 -36.05,-29.72 -34.91,-28.84 -33.78,-27.75 -32.66,-26.65 -31.35,-25.53 -30.03,-24.41 -28.73,-23.49 -27.42,-22.57 -25.70,-21.31 -23.98,-20.04 -22.94,-19.05 -21.90,-18.06 -20.75,-17.10 -19.59,-16.14 -17.81,-15.06 -16.03,-13.97 -15.00,-12.96 -13.97,-11.95 -12.84,-10.95 -11.70,-9.95 -10.15,-8.91 -8.60,-7.87 -6.96,-6.79 -5.32,-5.71 -3.56,-4.60 -1.80,-3.50 -0.37,-2.63 1.06,-1.77 1.26,-1.62 1.45,-1.46 1.61,-1.27 1.76,-1.07 1.86,-0.84 1.97,-0.62 2.01,-0.37 2.06,-0.13 2.05,0.11 2.03,0.36 1.96,0.60 1.88,0.84 1.76,1.05 1.63,1.27 1.45,1.44 1.28,1.62 1.06,1.75 0.85,1.88 0.61,1.95 0.37,2.03 0.13,2.04 -0.11,2.06 -0.36,2.02 -0.60,1.97 -0.83,1.87 -1.06,1.77 -1.06,1.77 L -1.06,1.77 Z"></path></g><g transform="translate(64 97) rotate(0 -27 -10)" stroke="none"><path fill="#1e1e1e" d="M -0.58,1.74 Q -0.58,1.74 -4.00,0.52 -7.43,-0.69 -11.42,-1.78 -15.41,-2.88 -18.60,-3.96 -21.79,-5.03 -24.85,-6.07 -27.92,-7.11 -30.34,-7.84 -32.77,-8.57 -34.69,-9.15 -36.61,-9.73 -38.63,-10.60 -40.65,-11.47 -41.98,-11.69 -43.31,-11.91 -44.60,-12.28 -45.89,-12.65 -47.05,-13.07 -48.21,-13.48 -49.53,-14.01 -50.84,-14.53 -51.85,-14.93 -52.85,-15.33 -54.34,-16.82 -55.83,-18.31 -56.05,-18.65 -56.28,-18.99 -56.38,-19.38 -56.48,-19.77 -56.45,-20.17 -56.42,-20.57 -56.27,-20.94 -56.11,-21.32 -55.84,-21.62 -55.58,-21.92 -55.23,-22.12 -54.88,-22.33 -54.48,-22.41 -54.09,-22.49 -53.69,-22.44 -53.29,-22.39 -52.92,-22.21 -52.56,-22.04 -52.27,-21.75 -51.98,-21.47 -51.80,-21.11 -51.62,-20.75 -51.56,-20.35 -51.50,-19.95 -51.57,-19.56 -51.64,-19.16 -51.84,-18.81 -52.03,-18.45 -52.33,-18.18 -52.63,-17.91 -53.00,-17.74 -53.37,-17.58 -53.77,-17.54 -54.17,-17.51 -54.56,-17.60 -54.96,-17.69 -55.30,-17.91 -55.64,-18.12 -55.90,-18.43 -56.15,-18.74 -56.30,-19.12 -56.44,-19.50 -56.45,-19.90 -56.47,-20.31 -56.36,-20.69 -56.24,-21.08 -56.01,-21.41 -55.78,-21.74 -55.45,-21.98 -55.13,-22.22 -54.74,-22.34 -54.36,-22.46 -53.95,-22.46 -53.55,-22.45 -53.17,-22.31 -52.79,-22.18 -52.47,-21.93 -52.16,-21.68 -52.16,-21.68 -52.16,-21.68 -50.76,-20.26 -49.36,-18.84 -47.98,-17.98 -46.60,-17.11 -45.62,-16.58 -44.63,-16.05 -43.57,-15.55 -42.52,-15.05 -41.04,-14.56 -39.55,-14.08 -37.65,-13.29 -35.75,-12.51 -33.86,-11.90 -31.97,-11.30 -29.49,-10.59 -27.00,-9.89 -23.93,-8.90 -20.85,-7.92 -17.73,-6.94 -14.60,-5.96 -10.48,-4.93 -6.36,-3.90 -2.89,-2.82 0.58,-1.74 0.78,-1.64 0.98,-1.55 1.15,-1.41 1.32,-1.27 1.45,-1.09 1.59,-0.91 1.67,-0.71 1.76,-0.51 1.79,-0.29 1.83,-0.07 1.81,0.14 1.80,0.36 1.73,0.57 1.66,0.78 1.54,0.97 1.42,1.16 1.26,1.31 1.10,1.46 0.91,1.57 0.72,1.68 0.50,1.75 0.29,1.81 0.07,1.82 -0.14,1.83 -0.36,1.78 -0.58,1.74 -0.58,1.74 L -0.58,1.74 Z"></path></g></svg>