<svg version="1.1" xmlns="http://www.w3.org/2000/svg" viewBox="0 0 680 621.6666666666666" width="1360" height="1243.3333333333333" filter="invert(93%) hue-rotate(180deg)">
  <!-- svg-source:excalidraw -->
  
  <defs>
    <style class="style-fonts">
      @font-face {
        font-family: "Virgil";
        src: url("https://excalidraw.com/Virgil.woff2");
      }
      @font-face {
        font-family: "Cascadia";
        src: url("https://excalidraw.com/Cascadia.woff2");
      }
      @font-face {
        font-family: "Assistant";
        src: url("https://excalidraw.com/Assistant-Regular.woff2");
      }
    </style>
    
  </defs>
  <g transform="translate(316.6666666666665 268.33333333333326) rotate(0 25.833333333333485 -4.1666666666666)" stroke="none"><path fill="#1e1e1e" d="M 1.92,0 Q 1.92,0 1.84,3.35 1.75,6.71 1.21,10.16 0.66,13.62 -0.06,17.92 -0.79,22.22 -1.10,26.37 -1.42,30.52 -2.05,33.84 -2.69,37.15 -2.96,39.42 -3.22,41.70 -3.23,43.15 -3.23,44.61 -3.17,45.69 -3.11,46.77 -3.07,48.18 -3.02,49.58 -3.00,51.14 -2.97,52.69 -2.90,53.83 -2.84,54.98 -2.95,57.38 -3.06,59.78 -3.02,61.28 -2.98,62.78 -2.99,64.48 -3.00,66.19 -3.57,67.37 -4.13,68.56 -4.80,70.20 -5.47,71.84 -5.53,73.02 -5.60,74.20 -6.07,74.98 -6.54,75.76 -6.62,76.08 -6.70,76.40 -6.85,76.68 -7.00,76.97 -7.22,77.21 -7.44,77.46 -7.70,77.64 -7.97,77.83 -8.28,77.94 -8.58,78.06 -8.90,78.09 -9.23,78.13 -9.55,78.09 -9.87,78.05 -10.18,77.94 -10.48,77.82 -10.75,77.64 -11.02,77.45 -11.23,77.21 -11.45,76.96 -11.60,76.67 -11.75,76.39 -11.83,76.07 -11.90,75.75 -11.90,75.43 -11.90,75.10 -7.30,74.48 -2.70,73.85 2.35,74.13 7.42,74.40 12.95,74.56 18.48,74.72 24.73,75.30 30.98,75.88 37.88,76.15 44.78,76.41 50.11,76.54 55.45,76.67 58.07,76.27 60.69,75.87 62.16,75.20 63.64,74.52 65.25,73.75 66.87,72.97 68.70,72.54 70.54,72.11 72.06,71.51 73.58,70.91 74.57,70.19 75.57,69.46 76.74,68.97 77.90,68.48 79.17,67.88 80.43,67.28 81.66,66.90 82.89,66.52 84.06,66.62 85.23,66.73 85.92,65.16 86.60,63.59 87.00,62.04 87.39,60.49 87.57,58.86 87.76,57.24 88.97,55.21 90.18,53.18 90.48,52.12 90.77,51.07 90.87,48.97 90.97,46.88 91.55,45.06 92.12,43.24 92.88,41.55 93.64,39.86 94.46,38.20 95.28,36.55 95.54,35.12 95.80,33.70 96.48,31.89 97.16,30.07 97.95,28.36 98.73,26.65 98.97,25.20 99.22,23.75 99.33,22.19 99.44,20.63 99.49,19.01 99.53,17.39 99.49,16.21 99.45,15.04 99.34,13.17 99.23,11.31 99.22,9.99 99.21,8.67 98.84,7.55 98.48,6.43 97.61,5.73 96.74,5.03 95.48,4.17 94.22,3.31 92.74,2.43 91.26,1.54 88.90,0.66 86.54,-0.21 83.59,-1.12 80.64,-2.03 77.02,-2.92 73.40,-3.81 70.81,-4.71 68.23,-5.61 64.38,-6.46 60.52,-7.30 56.46,-8.16 52.39,-9.01 48.73,-9.87 45.07,-10.72 42.06,-11.58 39.04,-12.43 36.89,-12.78 34.74,-13.12 32.89,-13.23 31.03,-13.33 29.29,-13.34 27.55,-13.34 26.33,-13.26 25.11,-13.19 23.64,-13.14 22.17,-13.08 21.06,-13.01 19.96,-12.93 18.13,-12.79 16.30,-12.66 15.01,-12.76 13.73,-12.85 13.10,-11.36 12.48,-9.86 11.53,-8.89 10.58,-7.92 9.10,-6.35 7.62,-4.78 7.89,-3.58 8.17,-2.37 8.07,-2.01 7.97,-1.64 7.78,-1.31 7.60,-0.98 7.34,-0.71 7.08,-0.43 6.77,-0.22 6.45,-0.02 6.09,0.10 5.74,0.22 5.36,0.26 4.98,0.29 4.61,0.24 4.23,0.18 3.88,0.04 3.53,-0.09 3.23,-0.32 2.92,-0.54 2.68,-0.83 2.43,-1.12 2.27,-1.46 2.10,-1.80 2.02,-2.17 1.94,-2.54 1.95,-2.92 1.96,-3.29 1.63,-4.42 1.31,-5.54 0.17,-6.91 -0.96,-8.27 -2.48,-8.32 -4.01,-8.37 -5.75,-9.02 -7.50,-9.67 -9.33,-9.97 -11.15,-10.27 -12.06,-9.62 -12.96,-8.98 -14.68,-8.17 -16.39,-7.36 -18.71,-6.60 -21.03,-5.84 -22.52,-5.42 -24.02,-5.00 -26.23,-3.70 -28.43,-2.41 -29.21,-1.41 -29.99,-0.41 -30.87,0.93 -31.74,2.28 -32.67,3.51 -33.59,4.74 -34.46,5.77 -35.33,6.81 -36.20,7.76 -37.06,8.72 -38.22,9.39 -39.38,10.05 -41.84,11.09 -44.30,12.13 -46.33,11.72 -48.36,11.32 -50.68,9.94 -52.99,8.57 -54.56,6.88 -56.13,5.19 -57.67,3.00 -59.21,0.80 -60.33,-1.14 -61.45,-3.09 -61.99,-5.57 -62.52,-8.05 -63.15,-10.39 -63.78,-12.73 -64.07,-16.28 -64.36,-19.83 -64.46,-22.27 -64.57,-24.70 -64.64,-26.70 -64.71,-28.71 -64.27,-30.71 -63.83,-32.71 -63.70,-34.34 -63.58,-35.97 -62.46,-39.25 -61.34,-42.53 -59.87,-45.39 -58.39,-48.25 -56.26,-50.97 -54.13,-53.69 -51.73,-55.83 -49.33,-57.98 -46.34,-59.88 -43.35,-61.78 -40.75,-63.94 -38.14,-66.10 -35.07,-68.48 -32.00,-70.87 -28.26,-73.35 -24.53,-75.82 -21.00,-77.84 -17.48,-79.86 -13.99,-81.23 -10.50,-82.60 -7.60,-83.65 -4.71,-84.70 -2.03,-85.62 0.63,-86.55 2.81,-86.96 5.00,-87.38 6.39,-87.67 7.79,-87.96 9.38,-88.11 10.97,-88.26 12.12,-88.39 13.27,-88.52 16.10,-88.59 18.93,-88.66 20.19,-88.73 21.46,-88.79 22.97,-88.81 24.48,-88.84 26.37,-88.31 28.26,-87.78 30.36,-86.98 32.46,-86.18 34.78,-85.33 37.09,-84.48 38.50,-84.24 39.90,-83.99 42.01,-83.28 44.12,-82.57 46.56,-81.23 49.00,-79.90 50.55,-78.89 52.11,-77.87 53.15,-77.57 54.19,-77.27 55.08,-76.38 55.98,-75.49 56.76,-74.17 57.54,-72.86 58.26,-72.00 58.99,-71.15 59.53,-69.97 60.07,-68.79 60.32,-67.73 60.57,-66.66 60.72,-64.33 60.87,-61.99 60.96,-60.01 61.04,-58.04 61.10,-56.31 61.17,-54.59 61.22,-52.91 61.27,-51.23 61.30,-49.56 61.34,-47.89 61.37,-46.23 61.40,-44.56 61.38,-42.41 61.36,-40.27 61.37,-38.31 61.38,-36.35 62.93,-35.01 64.48,-33.67 65.64,-32.73 66.81,-31.79 68.40,-31.56 69.99,-31.34 71.81,-30.66 73.62,-29.99 75.64,-29.12 77.66,-28.25 79.93,-27.35 82.21,-26.44 84.00,-26.09 85.80,-25.73 87.37,-25.08 88.94,-24.42 90.46,-23.68 91.98,-22.94 93.35,-22.71 94.72,-22.49 96.16,-21.83 97.60,-21.17 98.77,-21.03 99.94,-20.89 101.37,-20.23 102.81,-19.57 103.93,-18.77 105.06,-17.97 106.32,-17.23 107.57,-16.48 108.54,-15.37 109.50,-14.25 109.88,-13.22 110.26,-12.19 111.70,-10.76 113.14,-9.34 114.12,-8.39 115.10,-7.44 116.21,-6.39 117.31,-5.34 117.51,-4.07 117.71,-2.80 117.15,-1.26 116.60,0.28 115.79,1.32 114.97,2.36 114.11,3.28 113.24,4.20 111.97,4.89 110.71,5.59 109.11,6.35 107.52,7.12 106.49,8.18 105.46,9.24 105.04,10.25 104.63,11.26 104.35,11.70 104.07,12.14 103.66,12.47 103.26,12.80 102.77,12.98 102.28,13.16 101.76,13.18 101.23,13.19 100.73,13.04 100.23,12.89 99.81,12.59 99.38,12.28 99.08,11.86 98.77,11.44 98.62,10.94 98.46,10.44 98.48,9.92 98.49,9.39 98.67,8.90 98.85,8.41 99.17,8.01 99.50,7.60 99.94,7.32 100.38,7.03 100.89,6.91 101.39,6.78 101.91,6.82 102.43,6.86 102.91,7.07 103.39,7.27 103.78,7.62 104.17,7.97 104.43,8.42 104.69,8.87 104.79,9.39 104.89,9.90 104.82,10.42 104.75,10.94 104.52,11.40 104.29,11.87 103.92,12.24 103.55,12.61 103.08,12.85 102.62,13.08 102.10,13.15 101.58,13.22 101.07,13.12 100.56,13.03 100.10,12.77 99.64,12.52 99.30,12.13 98.95,11.74 98.74,11.26 98.53,10.78 98.49,10.26 98.44,9.74 98.57,9.23 98.69,8.73 98.69,8.73 98.69,8.73 100.82,6.39 102.96,4.06 103.92,3.16 104.88,2.27 106.60,1.15 108.32,0.03 109.32,-0.69 110.31,-1.43 111.43,-2.30 112.55,-3.17 111.68,-4.10 110.81,-5.04 109.63,-6.32 108.45,-7.60 107.06,-8.92 105.67,-10.24 105.37,-11.38 105.06,-12.51 103.60,-13.34 102.14,-14.18 100.61,-15.36 99.09,-16.54 96.48,-17.49 93.87,-18.44 92.04,-18.84 90.21,-19.25 88.70,-19.99 87.19,-20.73 86.15,-21.32 85.10,-21.91 83.00,-22.22 80.90,-22.52 78.53,-23.18 76.16,-23.84 73.99,-24.39 71.83,-24.94 70.58,-25.35 69.33,-25.77 67.65,-25.98 65.96,-26.18 64.67,-26.76 63.39,-27.34 62.43,-28.07 61.48,-28.80 59.86,-29.73 58.25,-30.66 56.93,-32.25 55.61,-33.84 55.44,-35.10 55.28,-36.35 55.29,-38.31 55.30,-40.27 55.28,-42.41 55.25,-44.56 55.28,-46.23 55.31,-47.89 55.35,-49.56 55.39,-51.23 55.44,-52.91 55.49,-54.58 55.55,-56.30 55.61,-58.01 55.66,-59.95 55.71,-61.89 55.69,-63.89 55.68,-65.88 55.54,-67.18 55.40,-68.48 54.59,-69.64 53.78,-70.80 53.17,-72.39 52.55,-73.98 51.38,-74.52 50.22,-75.07 48.85,-76.05 47.48,-77.03 45.30,-78.14 43.11,-79.25 41.09,-79.77 39.08,-80.30 37.53,-80.71 35.99,-81.12 33.63,-81.80 31.27,-82.49 29.14,-83.06 27.02,-83.63 25.72,-84.06 24.43,-84.48 22.95,-84.50 21.46,-84.53 20.20,-84.59 18.94,-84.64 16.15,-84.68 13.37,-84.72 12.25,-84.78 11.13,-84.85 9.65,-84.86 8.16,-84.87 6.82,-84.83 5.48,-84.79 3.49,-84.42 1.49,-84.05 -1.15,-83.13 -3.80,-82.21 -6.67,-81.17 -9.54,-80.13 -12.84,-78.84 -16.15,-77.55 -19.60,-75.57 -23.05,-73.59 -26.69,-71.17 -30.34,-68.75 -33.37,-66.37 -36.40,-64.00 -39.13,-61.72 -41.87,-59.45 -44.66,-57.67 -47.46,-55.89 -49.66,-53.90 -51.87,-51.91 -53.80,-49.40 -55.74,-46.89 -57.07,-44.22 -58.39,-41.54 -59.36,-38.57 -60.32,-35.59 -60.58,-33.77 -60.84,-31.96 -61.32,-30.36 -61.79,-28.76 -61.76,-26.80 -61.72,-24.84 -61.58,-22.46 -61.44,-20.08 -61.14,-16.82 -60.85,-13.56 -60.12,-11.15 -59.38,-8.73 -58.95,-6.78 -58.52,-4.83 -57.38,-3.13 -56.24,-1.42 -54.70,0.47 -53.16,2.36 -52.00,3.53 -50.85,4.71 -48.99,5.56 -47.14,6.42 -45.35,6.68 -43.56,6.95 -42.00,6.14 -40.44,5.32 -39.62,4.51 -38.81,3.70 -37.97,2.82 -37.14,1.95 -36.31,0.95 -35.48,-0.05 -34.48,-1.70 -33.48,-3.35 -32.10,-4.90 -30.72,-6.45 -29.34,-7.21 -27.96,-7.96 -26.59,-8.68 -25.22,-9.39 -23.95,-9.69 -22.68,-9.99 -20.75,-10.93 -18.81,-11.87 -17.29,-12.80 -15.78,-13.73 -13.57,-14.93 -11.37,-16.12 -9.61,-16.09 -7.84,-16.06 -6.57,-15.78 -5.29,-15.50 -3.49,-15.10 -1.68,-14.69 -0.58,-14.50 0.51,-14.32 2.35,-13.27 4.19,-12.22 5.48,-10.49 6.77,-8.76 7.45,-7.29 8.12,-5.82 8.15,-4.10 8.17,-2.37 8.07,-2.01 7.97,-1.64 7.79,-1.31 7.60,-0.98 7.34,-0.71 7.08,-0.43 6.77,-0.22 6.45,-0.02 6.09,0.10 5.74,0.22 5.36,0.26 4.98,0.29 4.61,0.24 4.23,0.18 3.88,0.04 3.53,-0.09 3.23,-0.32 2.92,-0.54 2.68,-0.83 2.43,-1.12 2.27,-1.46 2.10,-1.80 2.02,-2.17 1.94,-2.54 1.95,-2.92 1.96,-3.29 2.02,-4.09 2.07,-4.88 2.30,-5.97 2.53,-7.07 3.59,-8.16 4.66,-9.25 5.17,-10.29 5.68,-11.34 6.77,-12.50 7.85,-13.67 9.08,-14.73 10.31,-15.79 11.20,-16.46 12.09,-17.14 14.19,-17.23 16.30,-17.33 18.14,-17.19 19.98,-17.04 21.09,-16.96 22.20,-16.87 23.69,-16.80 25.19,-16.72 26.43,-16.59 27.67,-16.46 29.46,-16.34 31.26,-16.21 33.21,-16.02 35.17,-15.82 37.48,-15.46 39.78,-15.10 42.74,-14.28 45.70,-13.47 49.34,-12.66 52.97,-11.84 57.06,-11.03 61.14,-10.22 65.18,-9.40 69.21,-8.58 71.67,-7.81 74.13,-7.04 77.87,-6.25 81.60,-5.46 84.68,-4.69 87.76,-3.92 90.58,-3.09 93.39,-2.26 95.06,-1.37 96.73,-0.48 98.37,0.57 100.02,1.63 101.47,3.19 102.92,4.75 103.52,6.68 104.11,8.61 104.09,9.97 104.08,11.33 103.94,13.23 103.80,15.13 103.71,16.33 103.62,17.53 103.55,19.24 103.49,20.95 103.33,22.73 103.17,24.50 102.78,26.38 102.40,28.26 101.70,29.88 101.00,31.50 100.44,33.01 99.89,34.52 99.48,36.41 99.08,38.30 98.35,39.94 97.62,41.57 96.99,43.11 96.35,44.65 95.90,45.92 95.45,47.18 95.32,48.69 95.19,50.19 94.88,51.33 94.58,52.46 93.98,53.80 93.39,55.14 92.53,56.49 91.66,57.84 91.45,59.65 91.24,61.47 90.72,63.50 90.20,65.53 88.73,67.89 87.25,70.25 84.71,70.72 82.16,71.19 79.87,71.95 77.58,72.72 76.20,73.48 74.82,74.23 73.01,74.87 71.20,75.50 69.71,75.72 68.21,75.94 66.51,76.69 64.81,77.44 62.99,78.10 61.17,78.76 58.28,79.23 55.40,79.71 50.04,79.66 44.68,79.61 37.69,79.44 30.70,79.28 24.57,78.85 18.44,78.41 12.87,78.45 7.30,78.48 2.04,78.45 -3.22,78.42 -4.88,77.09 -6.54,75.76 -6.62,76.08 -6.70,76.40 -6.85,76.68 -7.00,76.97 -7.22,77.21 -7.44,77.46 -7.70,77.64 -7.97,77.83 -8.28,77.94 -8.58,78.06 -8.90,78.09 -9.23,78.13 -9.55,78.09 -9.87,78.05 -10.18,77.94 -10.48,77.82 -10.75,77.64 -11.02,77.45 -11.23,77.21 -11.45,76.96 -11.60,76.67 -11.75,76.39 -11.83,76.07 -11.90,75.75 -11.90,75.43 -11.90,75.10 -11.16,73.25 -10.42,71.40 -9.51,69.81 -8.60,68.21 -7.79,66.98 -6.98,65.75 -7.00,64.26 -7.01,62.78 -6.97,61.28 -6.92,59.77 -7.03,57.37 -7.14,54.96 -7.07,53.82 -6.99,52.67 -6.95,51.10 -6.91,49.52 -6.83,48.07 -6.74,46.62 -6.59,45.50 -6.44,44.37 -6.22,42.88 -6.01,41.39 -5.77,39.01 -5.52,36.62 -4.95,33.47 -4.38,30.32 -4.12,26.03 -3.85,21.74 -3.21,17.45 -2.57,13.16 -2.16,9.93 -1.75,6.70 -1.84,3.35 -1.92,0 -1.89,-0.22 -1.86,-0.45 -1.78,-0.67 -1.70,-0.89 -1.57,-1.08 -1.43,-1.27 -1.26,-1.42 -1.09,-1.58 -0.88,-1.68 -0.68,-1.79 -0.45,-1.85 -0.23,-1.90 0.00,-1.90 0.23,-1.90 0.45,-1.85 0.68,-1.79 0.88,-1.68 1.09,-1.58 1.26,-1.42 1.43,-1.27 1.57,-1.08 1.70,-0.89 1.78,-0.67 1.86,-0.45 1.89,-0.22 1.92,0.00 1.92,0.00 L 1.92,0 Z"></path></g><g transform="translate(345 358.33333333333326) rotate(0 -18.333333333333258 114.16666666666669)" stroke="none"><path fill="#1e1e1e" d="M 1.46,-0.97 Q 1.46,-0.97 2.44,0.44 3.42,1.86 4.32,2.85 5.21,3.84 5.81,5.01 6.41,6.18 6.59,8.29 6.78,10.39 7.64,12.34 8.49,14.29 8.93,17.40 9.37,20.51 9.51,22.75 9.65,24.98 9.69,27.38 9.73,29.79 9.74,32.72 9.74,35.66 9.74,37.86 9.73,40.07 9.72,42.44 9.71,44.81 10.17,47.13 10.63,49.45 10.86,51.51 11.09,53.56 11.17,55.90 11.25,58.23 11.28,60.65 11.30,63.08 11.35,65.07 11.39,67.05 11.45,68.86 11.51,70.66 11.57,72.39 11.63,74.11 11.73,75.32 11.83,76.54 11.76,79.93 11.69,83.32 11.64,86.67 11.58,90.03 11.55,93.85 11.51,97.68 11.48,100.74 11.45,103.80 11.43,106.54 11.41,109.28 11.40,111.40 11.39,113.52 11.48,114.97 11.57,116.41 10.53,118.34 9.50,120.26 7.09,123.35 4.68,126.43 1.26,130.60 -2.15,134.76 -4.47,140.19 -6.79,145.61 -9.77,150.93 -12.76,156.24 -15.93,161.83 -19.11,167.41 -20.90,172.09 -22.69,176.76 -24.94,181.25 -27.18,185.73 -29.09,189.52 -30.99,193.32 -32.26,196.33 -33.53,199.34 -34.54,202.49 -35.55,205.65 -36.47,208.46 -37.38,211.26 -38.77,213.99 -40.16,216.71 -41.21,218.78 -42.26,220.86 -43.18,222.70 -44.09,224.54 -44.61,226.67 -45.13,228.81 -45.25,229.04 -45.37,229.27 -45.55,229.45 -45.73,229.63 -45.97,229.75 -46.20,229.86 -46.46,229.89 -46.71,229.93 -46.97,229.88 -47.22,229.83 -47.45,229.70 -47.67,229.57 -47.84,229.38 -48.01,229.18 -48.12,228.95 -48.22,228.71 -48.24,228.45 -48.26,228.19 -48.19,227.94 -48.13,227.69 -47.99,227.47 -47.85,227.25 -47.65,227.09 -47.44,226.93 -47.20,226.84 -46.96,226.76 -46.70,226.75 -46.44,226.74 -46.19,226.82 -45.94,226.90 -45.73,227.05 -45.52,227.20 -45.37,227.41 -45.22,227.62 -45.15,227.87 -45.07,228.12 -45.08,228.38 -45.09,228.64 -45.18,228.88 -45.27,229.12 -45.44,229.32 -45.60,229.52 -45.82,229.66 -46.04,229.80 -46.29,229.86 -46.54,229.92 -46.80,229.90 -47.06,229.88 -47.29,229.78 -47.53,229.67 -47.72,229.50 -47.91,229.32 -48.04,229.10 -48.17,228.87 -48.21,228.62 -48.26,228.36 -48.23,228.11 -48.19,227.85 -48.19,227.85 -48.19,227.85 -47.34,225.59 -46.50,223.34 -45.56,221.50 -44.62,219.66 -43.56,217.59 -42.51,215.51 -41.21,212.97 -39.90,210.44 -38.99,207.64 -38.08,204.84 -37.03,201.57 -35.99,198.30 -34.69,195.21 -33.39,192.12 -31.49,188.32 -29.60,184.52 -27.42,180.15 -25.24,175.79 -23.38,170.92 -21.52,166.05 -18.37,160.46 -15.22,154.87 -12.34,149.67 -9.45,144.47 -6.98,138.68 -4.50,132.89 -1.16,128.71 2.18,124.53 4.42,121.51 6.66,118.50 7.54,117.33 8.42,116.16 8.51,114.84 8.60,113.52 8.59,111.40 8.58,109.28 8.56,106.54 8.54,103.80 8.51,100.74 8.48,97.68 8.44,93.85 8.40,90.03 8.35,86.67 8.30,83.32 8.23,79.93 8.16,76.54 8.26,75.33 8.35,74.12 8.41,72.39 8.46,70.67 8.51,68.87 8.56,67.08 8.57,65.10 8.58,63.12 8.53,60.73 8.48,58.33 8.39,56.09 8.29,53.85 8.11,51.91 7.94,49.98 7.43,47.40 6.93,44.83 6.91,42.46 6.89,40.09 6.85,37.89 6.82,35.69 6.75,32.79 6.69,29.89 6.58,27.57 6.46,25.25 6.23,23.14 6.00,21.02 5.57,18.41 5.13,15.80 3.93,13.32 2.74,10.83 2.45,8.54 2.16,6.26 1.28,5.07 0.40,3.88 -0.53,2.43 -1.46,0.97 -1.56,0.78 -1.65,0.59 -1.70,0.39 -1.75,0.18 -1.75,-0.02 -1.74,-0.24 -1.69,-0.44 -1.63,-0.65 -1.53,-0.83 -1.43,-1.02 -1.29,-1.18 -1.14,-1.33 -0.97,-1.45 -0.79,-1.57 -0.59,-1.64 -0.39,-1.71 -0.18,-1.74 0.02,-1.76 0.23,-1.73 0.44,-1.70 0.64,-1.62 0.84,-1.54 1.01,-1.42 1.19,-1.30 1.32,-1.13 1.46,-0.97 1.46,-0.97 L 1.46,-0.97 Z"></path></g><g transform="translate(366.6666666666665 495) rotate(0 33.333333333333485 55.833333333333314)" stroke="none"><path fill="#1e1e1e" d="M 0.82,-1.32 Q 0.82,-1.32 4.67,1.13 8.52,3.59 10.83,7.74 13.15,11.88 17.34,17.79 21.53,23.69 24.81,30.16 28.10,36.62 31.86,43.63 35.62,50.64 38.68,58.00 41.74,65.36 44.94,72.27 48.13,79.18 51.41,85.95 54.68,92.72 57.46,96.97 60.25,101.22 61.92,103.51 63.58,105.80 64.42,107.29 65.25,108.79 66.49,109.55 67.73,110.31 67.92,110.52 68.11,110.73 68.22,110.98 68.33,111.24 68.35,111.51 68.38,111.79 68.31,112.06 68.25,112.33 68.10,112.57 67.95,112.80 67.73,112.98 67.52,113.15 67.26,113.25 67.00,113.35 66.72,113.36 66.44,113.37 66.17,113.29 65.91,113.21 65.68,113.05 65.45,112.89 65.29,112.66 65.13,112.44 65.04,112.17 64.96,111.90 64.96,111.63 64.97,111.35 65.06,111.09 65.16,110.82 65.33,110.61 65.51,110.39 65.74,110.24 65.97,110.09 66.24,110.02 66.51,109.95 66.79,109.97 67.07,109.99 67.32,110.10 67.58,110.21 67.79,110.39 68.00,110.58 68.13,110.82 68.27,111.06 68.33,111.33 68.38,111.61 68.34,111.88 68.31,112.16 68.19,112.41 68.06,112.66 67.87,112.86 67.67,113.05 67.42,113.18 67.18,113.30 66.90,113.34 66.62,113.38 66.35,113.33 66.08,113.28 65.83,113.14 65.59,113.01 65.59,113.01 65.59,113.01 64.11,111.61 62.62,110.21 62.03,108.78 61.44,107.35 59.73,105.01 58.03,102.67 55.16,98.28 52.28,93.89 48.99,87.10 45.70,80.31 42.48,73.35 39.25,66.40 36.23,59.16 33.21,51.93 29.42,44.90 25.63,37.87 22.43,31.60 19.23,25.32 14.92,19.29 10.61,13.26 8.71,9.62 6.80,5.98 2.98,3.65 -0.82,1.32 -0.97,1.20 -1.12,1.08 -1.23,0.93 -1.34,0.78 -1.42,0.61 -1.49,0.44 -1.52,0.25 -1.56,0.07 -1.54,-0.11 -1.53,-0.30 -1.47,-0.48 -1.41,-0.66 -1.31,-0.82 -1.21,-0.98 -1.08,-1.11 -0.94,-1.24 -0.78,-1.33 -0.61,-1.43 -0.43,-1.48 -0.25,-1.54 -0.07,-1.54 0.11,-1.55 0.30,-1.52 0.48,-1.48 0.65,-1.40 0.82,-1.32 0.82,-1.32 L 0.82,-1.32 Z"></path></g><g transform="translate(180 53.333333333333314) rotate(0 90 41.666666666666686)" stroke="none"><path fill="#1e1e1e" d="M -1.44,0.96 Q -1.44,0.96 -2.43,-0.46 -3.41,-1.88 -3.99,-3.13 -4.58,-4.37 -4.85,-6.01 -5.12,-7.64 -5.10,-10.26 -5.09,-12.88 -5.06,-14.95 -5.04,-17.02 -3.97,-19.63 -2.90,-22.24 -0.43,-25.30 2.03,-28.36 6.03,-31.60 10.02,-34.84 15.18,-37.21 20.34,-39.58 24.45,-41.04 28.55,-42.50 31.81,-43.14 35.07,-43.77 37.42,-44.03 39.78,-44.29 41.77,-44.44 43.76,-44.59 45.42,-44.17 47.08,-43.75 48.89,-41.38 50.69,-39.00 52.35,-35.07 54.00,-31.14 54.70,-27.47 55.40,-23.80 55.68,-21.29 55.96,-18.79 55.83,-17.12 55.69,-15.46 58.76,-16.67 61.83,-17.87 65.97,-19.36 70.11,-20.85 74.64,-23.34 79.17,-25.83 84.68,-26.97 90.19,-28.11 96.32,-29.04 102.45,-29.98 107.97,-30.37 113.49,-30.77 117.77,-30.93 122.06,-31.09 126.99,-29.19 131.92,-27.29 135.51,-24.49 139.10,-21.69 142.12,-17.54 145.13,-13.38 147.38,-8.69 149.62,-4.01 150.59,-0.51 151.56,2.97 151.97,5.44 152.38,7.90 152.56,10.03 152.74,12.15 151.83,13.88 150.92,15.60 149.45,16.86 147.98,18.12 146.79,18.76 145.60,19.40 143.63,19.27 141.65,19.14 140.94,18.15 140.23,17.15 140.44,14.29 140.65,11.42 143.71,9.92 146.77,8.43 152.57,7.90 158.36,7.38 164.58,7.21 170.81,7.03 177.77,6.98 184.72,6.93 193.55,8.37 202.37,9.80 210.48,12.36 218.58,14.92 226.34,17.93 234.09,20.94 239.36,23.69 244.62,26.44 247.44,28.68 250.27,30.91 251.59,34.48 252.92,38.04 252.90,40.74 252.88,43.44 250.33,46.23 247.79,49.01 244.18,50.65 240.57,52.30 237.06,52.99 233.55,53.68 230.62,53.96 227.69,54.24 225.00,54.36 222.30,54.47 219.93,53.94 217.57,53.42 215.91,51.12 214.24,48.81 213.50,47.33 212.76,45.85 213.07,43.30 213.38,40.75 217.08,38.12 220.79,35.49 225.86,34.43 230.93,33.38 237.44,33.44 243.95,33.51 250.15,35.00 256.36,36.50 261.91,38.60 267.46,40.71 271.43,44.61 275.40,48.50 277.52,51.12 279.64,53.74 280.63,56.45 281.61,59.17 282.02,61.79 282.42,64.42 282.58,67.99 282.73,71.55 281.24,74.81 279.75,78.06 276.04,80.02 272.33,81.98 266.35,82.77 260.37,83.56 253.55,83.87 246.73,84.18 239.52,84.32 232.31,84.45 225.90,84.50 219.48,84.56 215.71,84.10 211.94,83.64 209.75,82.93 207.57,82.22 206.27,80.91 204.96,79.60 206.63,78.13 208.29,76.65 210.50,77.13 212.70,77.60 215.21,79.42 217.72,81.25 219.77,84.08 221.82,86.91 222.71,90.19 223.60,93.47 223.91,96.89 224.23,100.31 222.34,103.48 220.45,106.65 216.64,109.45 212.82,112.25 207.24,113.93 201.66,115.62 194.45,116.31 187.25,117.01 178.85,116.33 170.46,115.66 161.59,113.92 152.73,112.18 145.15,110.49 137.56,108.79 132.37,107.10 127.17,105.40 124.53,104.69 121.90,103.98 120.51,103.21 119.13,102.44 117.56,102.29 116.00,102.15 113.53,104.09 111.06,106.04 108.61,108.06 106.17,110.07 101.20,112.87 96.24,115.66 91.22,117.79 86.21,119.92 80.20,121.79 74.19,123.65 68.25,124.91 62.31,126.18 56.85,126.72 51.38,127.25 46.00,126.02 40.62,124.78 36.33,122.26 32.03,119.75 29.18,116.67 26.33,113.59 24.14,109.82 21.95,106.06 20.06,101.55 18.17,97.05 17.35,92.63 16.52,88.22 16.18,83.46 15.84,78.69 15.70,75.24 15.55,71.79 15.49,68.87 15.44,65.96 15.82,64.25 16.20,62.55 16.21,62.38 16.23,62.20 16.29,62.04 16.35,61.87 16.45,61.72 16.54,61.58 16.67,61.46 16.80,61.34 16.96,61.25 17.11,61.17 17.28,61.12 17.45,61.08 17.63,61.07 17.80,61.07 17.98,61.11 18.15,61.15 18.31,61.22 18.46,61.30 18.60,61.42 18.73,61.53 18.84,61.67 18.94,61.82 19.00,61.98 19.07,62.14 19.09,62.32 19.12,62.49 17.81,65.15 16.50,67.80 13.45,71.14 10.39,74.47 5.12,77.41 -0.14,80.35 -6.69,83.02 -13.25,85.68 -21.43,86.84 -29.61,88.00 -37.39,88.48 -45.16,88.95 -53.74,89.16 -62.33,89.36 -69.94,87.99 -77.55,86.62 -82.86,83.56 -88.17,80.50 -91.47,76.20 -94.77,71.90 -96.65,67.61 -98.53,63.32 -99.82,58.10 -101.10,52.87 -101.64,47.73 -102.19,42.59 -101.45,37.41 -100.71,32.23 -100.40,28.20 -100.09,24.18 -98.45,20.79 -96.82,17.40 -95.09,15.44 -93.37,13.47 -92.13,12.49 -90.90,11.51 -89.53,11.02 -88.16,10.53 -86.25,11.38 -84.35,12.24 -82.59,14.81 -80.84,17.39 -80.12,20.55 -79.40,23.72 -79.14,26.48 -78.89,29.24 -78.80,31.86 -78.70,34.48 -79.23,36.80 -79.75,39.13 -81.05,40.42 -82.36,41.70 -84.06,42.28 -85.75,42.85 -87.68,43.01 -89.61,43.16 -92.19,41.03 -94.78,38.90 -95.84,35.35 -96.90,31.80 -97.26,27.42 -97.63,23.05 -97.76,19.29 -97.90,15.53 -96.95,11.35 -96.01,7.17 -92.62,2.83 -89.23,-1.50 -85.34,-4.76 -81.46,-8.03 -77.36,-10.39 -73.26,-12.76 -69.11,-14.72 -64.96,-16.68 -61.24,-18.00 -57.52,-19.33 -54.51,-20.36 -51.51,-21.39 -47.71,-21.86 -43.91,-22.33 -40.87,-22.52 -37.84,-22.71 -35.59,-22.78 -33.34,-22.86 -31.32,-22.91 -29.29,-22.95 -27.18,-21.39 -25.06,-19.83 -23.23,-17.16 -21.39,-14.49 -19.25,-11.51 -17.10,-8.54 -15.65,-5.74 -14.20,-2.94 -13.56,-0.71 -12.92,1.52 -12.62,3.36 -12.32,5.20 -12.29,5.37 -12.26,5.54 -12.28,5.71 -12.30,5.88 -12.35,6.05 -12.41,6.21 -12.50,6.36 -12.59,6.50 -12.72,6.62 -12.85,6.74 -13.00,6.83 -13.15,6.91 -13.31,6.96 -13.48,7.01 -13.65,7.01 -13.83,7.02 -14.00,6.98 -14.17,6.95 -14.32,6.87 -14.48,6.80 -14.61,6.69 -14.75,6.58 -14.85,6.44 -14.95,6.30 -15.02,6.14 -15.09,5.98 -15.12,3.86 -15.16,1.75 -14.55,-0.46 -13.94,-2.68 -11.55,-4.79 -9.17,-6.90 -6.76,-8.62 -4.35,-10.34 -2.92,-11.55 -1.49,-12.75 -0.26,-13.46 0.95,-14.18 2.05,-14.55 3.15,-14.92 4.24,-15.09 5.33,-15.27 6.80,-14.71 8.27,-14.16 9.08,-13.13 9.90,-12.09 10.22,-11.02 10.55,-9.95 10.66,-8.88 10.77,-7.82 10.20,-6.34 9.63,-4.87 5.56,-1.55 1.50,1.77 1.18,1.96 0.85,2.16 0.49,2.24 0.12,2.32 -0.25,2.28 -0.62,2.23 -0.96,2.08 -1.30,1.92 -1.57,1.66 -1.85,1.40 -2.02,1.07 -2.20,0.73 -2.26,0.36 -2.32,-0.00 -2.26,-0.37 -2.20,-0.74 -2.02,-1.07 -1.84,-1.40 -1.57,-1.66 -1.30,-1.92 -0.96,-2.08 -0.61,-2.24 -0.24,-2.28 0.12,-2.32 0.49,-2.23 0.86,-2.15 1.18,-1.96 1.50,-1.76 1.75,-1.48 1.99,-1.19 2.13,-0.84 2.27,-0.49 2.29,-0.12 2.31,0.25 2.20,0.61 2.10,0.97 1.89,1.29 1.68,1.60 1.38,1.82 1.08,2.05 0.72,2.17 0.37,2.29 -0.00,2.29 -0.37,2.29 -0.73,2.17 -1.09,2.05 -1.39,1.82 -1.69,1.59 -1.90,1.28 -2.11,0.97 -2.21,0.61 -2.31,0.24 -2.29,-0.12 -2.26,-0.50 -2.12,-0.85 -1.98,-1.20 -1.74,-1.48 -1.50,-1.77 -1.50,-1.77 -1.50,-1.77 2.07,-5.37 5.65,-8.96 4.84,-10.03 4.03,-11.10 2.25,-10.71 0.46,-10.33 -1.05,-9.11 -2.56,-7.90 -4.84,-6.18 -7.12,-4.46 -8.99,-2.99 -10.86,-1.51 -11.25,0.18 -11.64,1.89 -11.98,3.54 -12.32,5.20 -12.29,5.37 -12.26,5.54 -12.28,5.71 -12.30,5.88 -12.35,6.05 -12.41,6.21 -12.50,6.36 -12.59,6.50 -12.72,6.62 -12.85,6.74 -13.00,6.83 -13.15,6.91 -13.31,6.96 -13.48,7.01 -13.65,7.01 -13.83,7.02 -14.00,6.98 -14.17,6.95 -14.32,6.87 -14.48,6.80 -14.61,6.69 -14.75,6.58 -14.85,6.44 -14.95,6.30 -15.02,6.14 -15.09,5.98 -15.29,4.11 -15.49,2.24 -16.04,0.25 -16.59,-1.72 -17.94,-4.34 -19.29,-6.95 -21.47,-9.96 -23.65,-12.96 -25.24,-15.33 -26.82,-17.70 -28.25,-18.98 -29.67,-20.27 -31.46,-20.25 -33.25,-20.23 -35.46,-20.15 -37.68,-20.07 -40.63,-19.88 -43.59,-19.70 -47.12,-19.29 -50.66,-18.88 -53.64,-17.84 -56.62,-16.81 -60.21,-15.53 -63.81,-14.25 -67.85,-12.33 -71.90,-10.41 -75.80,-8.16 -79.70,-5.92 -83.37,-2.83 -87.05,0.24 -90.16,4.07 -93.28,7.91 -94.11,11.67 -94.95,15.43 -94.76,19.10 -94.57,22.77 -94.17,26.85 -93.78,30.93 -93.05,33.75 -92.32,36.56 -90.70,38.13 -89.07,39.70 -87.85,39.54 -86.64,39.38 -85.45,39.21 -84.26,39.05 -83.28,38.59 -82.31,38.13 -81.97,36.36 -81.64,34.59 -81.78,32.07 -81.92,29.55 -82.23,26.99 -82.53,24.43 -83.12,21.83 -83.71,19.24 -85.04,17.29 -86.37,15.33 -87.79,14.72 -89.22,14.10 -90.32,14.67 -91.43,15.24 -92.95,16.92 -94.48,18.59 -95.98,21.52 -97.49,24.45 -97.80,28.53 -98.11,32.61 -98.84,37.47 -99.57,42.33 -99.06,47.29 -98.54,52.25 -97.33,57.27 -96.12,62.28 -94.39,66.30 -92.66,70.32 -89.72,74.30 -86.77,78.27 -81.90,81.15 -77.03,84.03 -69.70,85.37 -62.38,86.70 -53.85,86.50 -45.33,86.29 -37.66,85.82 -29.98,85.35 -22.12,84.26 -14.25,83.18 -7.85,80.57 -1.45,77.97 3.46,75.27 8.39,72.57 11.28,69.40 14.16,66.23 15.18,64.39 16.20,62.55 16.21,62.38 16.23,62.20 16.29,62.04 16.35,61.87 16.45,61.72 16.54,61.58 16.67,61.46 16.80,61.34 16.96,61.25 17.11,61.17 17.28,61.12 17.45,61.08 17.63,61.07 17.80,61.07 17.98,61.11 18.15,61.15 18.31,61.22 18.46,61.30 18.60,61.42 18.73,61.53 18.83,61.67 18.94,61.82 19.00,61.98 19.07,62.14 19.09,62.32 19.12,62.49 18.59,64.21 18.07,65.93 18.13,68.80 18.19,71.68 18.33,75.09 18.48,78.50 18.80,83.12 19.13,87.74 19.88,91.89 20.63,96.03 22.45,100.38 24.27,104.72 26.30,108.25 28.32,111.78 30.88,114.61 33.44,117.43 37.36,119.77 41.28,122.12 46.22,123.30 51.15,124.47 56.43,123.93 61.71,123.39 67.51,122.11 73.31,120.84 79.15,118.97 84.99,117.11 89.81,114.98 94.63,112.86 99.28,110.15 103.93,107.44 106.06,105.52 108.19,103.61 110.63,100.95 113.07,98.29 115.87,98.55 118.66,98.80 119.76,99.33 120.87,99.86 121.75,100.66 122.63,101.45 125.31,102.17 127.99,102.88 133.07,104.54 138.14,106.20 145.69,107.88 153.24,109.56 161.96,111.27 170.67,112.98 178.84,113.65 187.00,114.31 193.94,113.65 200.89,112.99 206.06,111.48 211.23,109.97 214.67,107.52 218.10,105.07 219.76,102.64 221.41,100.22 221.04,97.23 220.66,94.25 219.93,91.49 219.20,88.72 217.44,86.34 215.68,83.97 213.73,82.56 211.78,81.15 210.12,80.46 208.46,79.76 210.37,80.40 212.27,81.03 215.87,81.48 219.46,81.93 225.86,81.88 232.27,81.82 239.44,81.69 246.61,81.56 253.33,81.25 260.04,80.94 265.63,80.27 271.21,79.60 274.42,78.14 277.62,76.67 278.87,74.10 280.12,71.53 279.96,68.17 279.80,64.81 279.45,62.42 279.10,60.03 278.32,57.70 277.55,55.37 275.52,52.89 273.50,50.40 269.96,46.79 266.42,43.19 261.07,41.18 255.72,39.16 249.81,37.73 243.90,36.29 237.69,36.23 231.48,36.16 226.90,37.06 222.33,37.96 219.13,39.92 215.92,41.88 215.77,43.37 215.61,44.86 216.03,46.12 216.45,47.38 217.52,49.28 218.59,51.18 220.40,51.51 222.21,51.84 224.83,51.72 227.44,51.61 230.25,51.34 233.06,51.08 236.28,50.47 239.51,49.87 242.73,48.49 245.94,47.10 248.18,45.01 250.42,42.91 250.39,40.89 250.36,38.88 249.40,35.86 248.45,32.85 245.89,30.87 243.34,28.88 238.21,26.22 233.08,23.56 225.40,20.61 217.73,17.65 209.81,15.19 201.90,12.72 193.33,11.37 184.76,10.01 177.84,10.15 170.93,10.29 164.81,10.57 158.69,10.85 153.48,11.39 148.26,11.92 145.72,12.92 143.17,13.92 143.79,15.44 144.40,16.96 145.18,16.21 145.95,15.46 147.16,14.64 148.36,13.82 149.22,12.91 150.09,11.99 149.93,10.16 149.78,8.33 149.39,6.00 149.01,3.67 148.12,0.39 147.23,-2.87 145.10,-7.35 142.97,-11.84 140.20,-15.73 137.43,-19.62 134.17,-22.22 130.91,-24.82 126.49,-26.61 122.07,-28.40 117.88,-28.22 113.68,-28.04 108.28,-27.64 102.87,-27.23 96.81,-26.29 90.76,-25.34 85.65,-24.30 80.54,-23.27 75.85,-20.65 71.16,-18.03 67.15,-16.51 63.14,-15.00 59.88,-13.66 56.62,-12.32 55.28,-13.05 53.94,-13.78 53.56,-16.12 53.17,-18.46 52.87,-20.86 52.57,-23.26 51.91,-26.62 51.26,-29.99 49.71,-33.59 48.16,-37.20 46.00,-39.47 43.85,-41.74 41.97,-41.66 40.08,-41.59 37.84,-41.32 35.60,-41.06 32.55,-40.46 29.50,-39.85 25.52,-38.41 21.55,-36.96 16.72,-34.74 11.89,-32.52 8.16,-29.46 4.44,-26.41 2.28,-23.68 0.11,-20.95 -0.70,-18.96 -1.53,-16.97 -1.44,-14.98 -1.35,-12.99 -1.19,-10.57 -1.02,-8.14 -0.72,-6.00 -0.41,-3.86 0.51,-2.41 1.44,-0.96 1.53,-0.77 1.63,-0.58 1.67,-0.38 1.72,-0.18 1.72,0.02 1.71,0.23 1.66,0.43 1.61,0.64 1.51,0.82 1.41,1.00 1.27,1.16 1.12,1.31 0.95,1.43 0.78,1.54 0.58,1.62 0.38,1.69 0.17,1.71 -0.02,1.73 -0.23,1.70 -0.44,1.67 -0.63,1.60 -0.83,1.52 -1.00,1.40 -1.17,1.28 -1.30,1.12 -1.44,0.96 -1.44,0.96 L -1.44,0.96 Z"></path></g><g transform="translate(118.33333333333348 376.66666666666663) rotate(0 112.5 -0.8333333333333144)" stroke="none"><path fill="#1e1e1e" d="M 0,-1.56 Q 0,-1.56 2.39,-1.52 4.79,-1.49 7.24,-1.46 9.70,-1.44 14.10,-1.42 18.49,-1.40 23.72,-1.39 28.94,-1.38 35.47,-1.37 42.01,-1.36 48.61,-1.35 55.22,-1.34 61.87,-1.34 68.51,-1.33 75.64,-1.33 82.78,-1.33 89.17,-1.32 95.55,-1.32 101.14,-1.32 106.73,-1.32 111.98,-1.32 117.23,-1.32 121.31,-1.79 125.38,-2.26 128.61,-2.47 131.85,-2.68 133.69,-2.82 135.54,-2.97 137.30,-3.07 139.06,-3.17 140.28,-3.29 141.50,-3.41 143.89,-3.57 146.28,-3.73 147.83,-3.75 149.38,-3.78 150.99,-3.78 152.61,-3.79 154.73,-3.68 156.85,-3.58 158.24,-3.64 159.62,-3.70 160.69,-3.77 161.75,-3.84 163.16,-3.87 164.57,-3.90 166.13,-3.91 167.69,-3.91 169.31,-3.90 170.93,-3.89 172.58,-3.88 174.23,-3.87 176.36,-3.76 178.50,-3.64 181.33,-3.55 184.15,-3.46 186.79,-3.39 189.43,-3.33 191.99,-3.28 194.55,-3.23 196.60,-3.22 198.65,-3.20 200.67,-2.72 202.69,-2.24 203.89,-2.15 205.09,-2.06 206.49,-2.04 207.90,-2.02 208.99,-2.07 210.08,-2.11 211.90,-2.23 213.71,-2.35 215.03,-2.37 216.36,-2.39 218.81,-2.44 221.26,-2.49 223.13,-2.53 225.00,-2.58 225.41,-2.52 225.82,-2.45 226.19,-2.25 226.56,-2.06 226.85,-1.75 227.14,-1.45 227.31,-1.07 227.49,-0.69 227.53,-0.27 227.58,0.14 227.49,0.54 227.40,0.95 227.18,1.31 226.97,1.67 226.65,1.94 226.33,2.21 225.94,2.37 225.55,2.52 225.13,2.55 224.71,2.57 224.31,2.46 223.91,2.34 223.56,2.11 223.21,1.87 222.96,1.54 222.71,1.21 222.57,0.81 222.44,0.41 222.44,-0.00 222.44,-0.41 222.57,-0.81 222.71,-1.21 222.96,-1.54 223.22,-1.87 223.56,-2.11 223.91,-2.34 224.31,-2.46 224.72,-2.57 225.13,-2.55 225.55,-2.52 225.94,-2.37 226.33,-2.21 226.65,-1.94 226.97,-1.67 227.18,-1.31 227.40,-0.95 227.49,-0.54 227.58,-0.13 227.53,0.27 227.49,0.69 227.31,1.07 227.14,1.45 226.85,1.75 226.56,2.06 226.19,2.25 225.82,2.45 225.41,2.52 224.99,2.58 224.99,2.58 224.99,2.58 223.12,2.53 221.25,2.48 218.80,2.43 216.35,2.38 215.01,2.36 213.67,2.33 211.81,2.17 209.95,2.00 208.81,1.89 207.68,1.77 206.10,1.61 204.52,1.46 203.21,1.14 201.89,0.82 200.26,0.34 198.62,-0.12 196.59,-0.11 194.55,-0.09 191.99,-0.04 189.43,0.00 186.79,0.06 184.15,0.13 181.33,0.21 178.50,0.30 176.36,0.42 174.23,0.54 172.58,0.55 170.93,0.56 169.31,0.57 167.69,0.58 166.13,0.57 164.58,0.57 163.16,0.54 161.75,0.51 160.69,0.43 159.62,0.36 158.24,0.30 156.86,0.24 154.73,0.35 152.61,0.46 150.99,0.45 149.38,0.45 147.83,0.42 146.29,0.40 143.92,0.26 141.55,0.12 140.34,0.03 139.12,-0.05 137.40,-0.07 135.68,-0.10 133.85,-0.07 132.01,-0.05 128.85,0.15 125.68,0.35 121.46,0.83 117.23,1.32 111.98,1.32 106.73,1.32 101.14,1.32 95.55,1.32 89.17,1.32 82.78,1.33 75.64,1.33 68.51,1.33 61.87,1.34 55.22,1.34 48.61,1.35 42.01,1.36 35.47,1.37 28.94,1.38 23.72,1.39 18.49,1.40 14.10,1.42 9.70,1.44 7.24,1.46 4.79,1.49 2.39,1.52 0,1.56 -0.18,1.53 -0.37,1.51 -0.54,1.45 -0.72,1.38 -0.88,1.27 -1.03,1.16 -1.16,1.02 -1.28,0.88 -1.37,0.72 -1.46,0.55 -1.50,0.37 -1.55,0.18 -1.55,-0.00 -1.55,-0.18 -1.50,-0.37 -1.46,-0.55 -1.37,-0.72 -1.28,-0.88 -1.16,-1.02 -1.03,-1.16 -0.88,-1.27 -0.72,-1.38 -0.54,-1.45 -0.37,-1.51 -0.18,-1.53 0.00,-1.56 0.00,-1.56 L 0,-1.56 Z"></path></g><g transform="translate(360 371.66666666666663) rotate(0 155 68.33333333333331)" stroke="none"><path fill="#1e1e1e" d="M 0.25,-1.54 Q 0.25,-1.54 3.12,-1.02 5.99,-0.51 10.55,0.18 15.11,0.89 21.35,1.67 27.58,2.46 33.55,2.80 39.51,3.13 45.88,3.28 52.25,3.43 60.22,3.49 68.20,3.56 75.90,3.59 83.61,3.62 90.71,3.63 97.82,3.65 105.63,3.65 113.45,3.66 120.60,3.66 127.75,3.67 134.63,3.67 141.50,3.67 148.69,3.20 155.88,2.72 162.33,2.52 168.78,2.31 174.40,2.23 180.02,2.14 184.80,2.10 189.59,2.07 194.02,2.05 198.45,2.04 202.72,2.03 207.00,2.02 210.26,2.02 213.51,2.02 216.34,2.02 219.16,2.02 221.31,2.02 223.47,2.02 225.35,1.96 227.22,1.91 228.98,1.84 230.73,1.78 231.96,1.68 233.18,1.57 235.57,1.42 237.95,1.27 239.50,1.24 241.04,1.22 242.41,1.25 243.77,1.28 244.86,1.95 245.94,2.61 247.29,4.45 248.63,6.30 248.87,7.35 249.10,8.40 249.24,10.13 249.37,11.86 250.10,13.29 250.82,14.73 251.28,15.83 251.74,16.94 252.38,18.45 253.01,19.96 253.37,21.88 253.73,23.81 254.22,25.26 254.71,26.72 255.32,28.93 255.93,31.14 256.62,32.97 257.31,34.79 258.09,35.93 258.87,37.07 259.29,39.40 259.70,41.74 260.23,43.95 260.76,46.16 261.44,48.56 262.12,50.95 262.87,53.42 263.62,55.88 264.84,58.26 266.06,60.64 266.66,62.81 267.25,64.97 267.54,66.84 267.82,68.70 269.22,70.63 270.61,72.56 271.36,74.63 272.11,76.70 272.86,78.40 273.62,80.10 274.78,81.67 275.95,83.24 277.80,84.83 279.66,86.41 281.04,87.58 282.41,88.75 284.00,90.81 285.58,92.87 287.14,94.63 288.69,96.40 290.31,98.11 291.92,99.82 293.17,101.59 294.41,103.36 295.45,105.07 296.48,106.78 297.42,108.46 298.35,110.13 299.23,111.19 300.11,112.24 300.97,113.11 301.84,113.98 302.71,114.80 303.58,115.61 304.44,116.42 305.31,117.22 306.20,118.04 307.08,118.87 307.71,120.02 308.34,121.17 308.62,122.24 308.90,123.30 309.37,124.37 309.84,125.44 310.06,126.50 310.27,127.55 311.01,128.16 311.74,128.77 311.77,129.08 311.80,129.40 311.76,129.72 311.71,130.04 311.59,130.34 311.47,130.63 311.28,130.89 311.09,131.15 310.85,131.36 310.60,131.57 310.32,131.71 310.03,131.85 309.72,131.92 309.40,131.99 309.08,131.98 308.76,131.98 308.45,131.89 308.14,131.81 307.86,131.65 307.58,131.50 307.34,131.28 307.11,131.06 306.93,130.79 306.76,130.53 306.65,130.22 306.54,129.92 308.29,130.90 310.04,131.88 307.88,132.16 305.73,132.44 304.08,132.44 302.43,132.44 300.77,132.42 299.11,132.39 297.93,132.43 296.75,132.47 295.29,132.47 293.82,132.47 291.76,132.34 289.70,132.21 287.87,132.16 286.03,132.12 283.61,131.51 281.20,130.90 279.84,130.76 278.48,130.63 277.00,130.57 275.52,130.52 274.40,130.55 273.27,130.58 271.14,129.98 269.00,129.37 265.98,129.09 262.96,128.82 260.66,128.66 258.37,128.50 255.01,128.41 251.65,128.31 248.77,128.26 245.90,128.21 242.77,128.17 239.63,128.14 236.86,128.11 234.09,128.09 231.00,128.07 227.90,128.06 225.63,128.04 223.36,128.03 220.47,128.03 217.59,128.02 214.45,128.01 211.31,128.01 208.05,128.00 204.80,128.00 201.98,127.99 199.16,127.99 196.05,127.99 192.93,127.99 189.69,127.98 186.45,127.98 184.12,127.98 181.78,127.98 178.87,127.98 175.96,127.98 173.29,127.98 170.61,127.98 167.56,127.98 164.51,127.98 161.77,127.98 159.04,127.98 156.06,128.45 153.08,128.92 151.28,129.19 149.47,129.47 146.86,130.00 144.24,130.54 141.59,130.78 138.93,131.02 135.88,131.11 132.83,131.21 130.58,131.25 128.33,131.28 126.41,131.34 124.50,131.40 122.73,131.47 120.97,131.53 119.47,132.03 117.96,132.53 115.65,132.71 113.34,132.90 111.08,133.42 108.82,133.94 105.79,134.17 102.76,134.41 101.03,134.57 99.30,134.74 97.58,134.84 95.87,134.94 94.19,135.01 92.51,135.07 91.07,135.54 89.64,136.02 87.83,136.29 86.03,136.55 83.80,136.57 81.57,136.59 79.20,136.57 76.83,136.55 74.86,136.57 72.90,136.58 70.63,136.55 68.36,136.51 66.62,136.98 64.88,137.44 63.01,137.71 61.14,137.97 58.88,138.02 56.63,138.07 55.21,138.20 53.79,138.33 52.22,138.41 50.65,138.48 49.51,138.57 48.36,138.66 46.50,138.81 44.65,138.96 42.94,139.07 41.24,139.19 39.93,139.20 38.61,139.21 37.09,139.19 35.57,139.17 34.45,139.20 33.32,139.23 31.00,139.26 28.68,139.30 26.84,139.34 25.00,139.38 24.56,139.30 24.13,139.23 23.74,139.03 23.35,138.82 23.05,138.50 22.75,138.18 22.56,137.79 22.38,137.39 22.33,136.95 22.28,136.51 22.38,136.09 22.47,135.66 22.70,135.28 22.93,134.90 23.26,134.62 23.60,134.34 24.00,134.17 24.41,134.01 24.85,133.99 25.29,133.96 25.71,134.08 26.13,134.20 26.50,134.44 26.86,134.69 27.13,135.04 27.39,135.39 27.53,135.81 27.67,136.22 27.67,136.66 27.67,137.10 27.53,137.52 27.39,137.93 27.13,138.28 26.86,138.63 26.50,138.88 26.13,139.13 25.71,139.24 25.29,139.36 24.85,139.34 24.41,139.31 24.00,139.15 23.60,138.99 23.26,138.70 22.93,138.42 22.70,138.04 22.47,137.67 22.38,137.24 22.28,136.81 22.33,136.37 22.38,135.93 22.56,135.54 22.75,135.14 23.05,134.82 23.35,134.50 23.74,134.29 24.13,134.09 24.56,134.02 25.00,133.95 25.00,133.95 24.99,133.95 26.84,133.99 28.68,134.03 31.00,134.06 33.32,134.09 34.45,134.12 35.57,134.15 37.09,134.13 38.61,134.12 39.92,134.13 41.24,134.14 42.94,134.25 44.64,134.36 46.49,134.50 48.34,134.64 49.47,134.72 50.61,134.80 52.16,134.84 53.70,134.88 55.10,134.94 56.51,134.99 58.64,134.87 60.77,134.74 62.45,134.60 64.13,134.46 66.23,133.96 68.33,133.46 70.60,133.41 72.87,133.36 74.83,133.34 76.78,133.33 79.10,133.23 81.43,133.14 83.50,132.99 85.56,132.83 87.10,132.68 88.63,132.53 90.53,132.03 92.44,131.53 94.11,131.56 95.78,131.58 97.45,131.60 99.11,131.61 100.82,131.58 102.52,131.54 105.33,131.29 108.14,131.05 110.59,130.43 113.05,129.82 115.07,129.59 117.08,129.37 119.00,128.90 120.92,128.43 122.70,128.48 124.47,128.53 126.37,128.56 128.28,128.58 130.51,128.53 132.73,128.48 135.70,128.37 138.67,128.26 141.17,128.02 143.66,127.78 146.40,127.18 149.14,126.59 150.91,126.45 152.68,126.32 155.86,125.83 159.04,125.35 161.77,125.35 164.51,125.35 167.56,125.35 170.61,125.35 173.29,125.34 175.96,125.34 178.87,125.34 181.78,125.34 184.12,125.34 186.45,125.34 189.69,125.34 192.93,125.34 196.05,125.33 199.16,125.33 201.98,125.33 204.80,125.33 208.05,125.32 211.31,125.32 214.45,125.31 217.59,125.31 220.47,125.30 223.36,125.29 225.63,125.28 227.90,125.27 231.00,125.26 234.09,125.24 236.87,125.23 239.64,125.21 242.78,125.19 245.92,125.17 248.80,125.14 251.68,125.12 255.09,125.11 258.50,125.09 260.85,125.11 263.20,125.13 266.60,125.27 270.01,125.42 271.72,125.80 273.43,126.19 274.59,126.29 275.75,126.39 277.40,126.51 279.05,126.63 280.53,126.90 282.01,127.17 284.03,127.52 286.05,127.87 287.87,127.82 289.70,127.78 291.76,127.65 293.81,127.51 295.27,127.51 296.72,127.50 297.90,127.53 299.07,127.55 300.70,127.50 302.32,127.45 304.82,127.50 307.31,127.55 309.53,128.16 311.74,128.76 311.77,129.08 311.80,129.40 311.76,129.72 311.71,130.04 311.59,130.34 311.47,130.63 311.28,130.89 311.09,131.15 310.85,131.36 310.60,131.57 310.32,131.71 310.03,131.85 309.72,131.92 309.40,131.99 309.08,131.98 308.76,131.98 308.45,131.89 308.14,131.81 307.86,131.65 307.58,131.50 307.35,131.28 307.11,131.06 306.93,130.79 306.76,130.53 306.65,130.22 306.54,129.92 305.88,128.63 305.21,127.34 304.60,125.78 303.98,124.22 303.88,123.09 303.78,121.96 302.99,121.09 302.21,120.23 301.41,119.31 300.60,118.39 299.79,117.41 298.99,116.43 298.16,115.33 297.34,114.24 296.50,112.91 295.66,111.58 294.80,109.92 293.95,108.26 293.02,106.62 292.10,104.97 290.99,103.36 289.89,101.76 288.22,100.04 286.56,98.32 284.90,96.51 283.25,94.70 281.79,92.87 280.34,91.04 279.07,89.82 277.80,88.60 275.70,86.81 273.59,85.03 272.20,83.18 270.80,81.34 270.04,79.51 269.28,77.68 268.72,75.95 268.17,74.23 266.49,71.74 264.81,69.26 264.63,67.49 264.44,65.73 263.93,63.87 263.43,62.00 262.05,59.42 260.68,56.84 259.84,54.38 259.00,51.92 258.19,49.51 257.38,47.09 256.65,44.75 255.93,42.40 255.65,40.78 255.37,39.16 254.52,37.76 253.67,36.35 252.78,34.44 251.88,32.54 251.01,30.48 250.15,28.42 249.42,26.60 248.69,24.78 248.44,23.50 248.18,22.21 247.38,20.69 246.57,19.17 245.86,17.17 245.15,15.17 244.50,12.90 243.86,10.62 243.86,8.97 243.86,7.32 242.45,6.38 241.04,5.44 239.50,5.41 237.95,5.39 235.57,5.24 233.18,5.09 231.96,4.98 230.73,4.87 228.98,4.81 227.22,4.75 225.35,4.70 223.47,4.64 221.32,4.64 219.16,4.64 216.34,4.65 213.52,4.65 210.26,4.65 207.01,4.65 202.73,4.66 198.46,4.67 194.03,4.68 189.61,4.70 184.83,4.74 180.06,4.77 174.46,4.86 168.87,4.95 162.46,5.15 156.06,5.35 148.78,5.83 141.50,6.31 134.63,6.31 127.75,6.32 120.60,6.32 113.44,6.32 105.63,6.31 97.82,6.31 90.71,6.30 83.60,6.30 75.89,6.28 68.18,6.26 60.18,6.21 52.19,6.15 45.78,6.02 39.36,5.89 33.30,5.57 27.24,5.26 20.96,4.50 14.68,3.75 10.09,3.09 5.50,2.43 2.62,1.98 -0.25,1.54 -0.43,1.48 -0.61,1.43 -0.78,1.33 -0.94,1.24 -1.07,1.11 -1.21,0.98 -1.31,0.82 -1.41,0.66 -1.47,0.48 -1.53,0.30 -1.54,0.11 -1.56,-0.06 -1.52,-0.25 -1.49,-0.44 -1.42,-0.61 -1.34,-0.78 -1.23,-0.93 -1.12,-1.08 -0.97,-1.20 -0.82,-1.32 -0.65,-1.40 -0.48,-1.48 -0.30,-1.52 -0.11,-1.55 0.06,-1.54 0.25,-1.54 0.25,-1.54 L 0.25,-1.54 Z"></path></g><g transform="translate(376.6666666666665 508.33333333333326) rotate(0 -21.666666666666515 3.3333333333333712)" stroke="none"><path fill="#1e1e1e" d="M 0.79,1.98 Q 0.79,1.98 -1.65,2.84 -4.09,3.69 -7.25,4.08 -10.42,4.46 -12.17,4.67 -13.93,4.87 -15.67,4.98 -17.41,5.08 -19.11,5.14 -20.81,5.19 -22.49,5.23 -24.18,5.26 -25.37,5.34 -26.56,5.42 -28.03,5.45 -29.49,5.49 -31.04,5.49 -32.59,5.49 -34.50,6.26 -36.41,7.03 -38.34,7.28 -40.28,7.53 -40.73,7.89 -41.18,8.25 -41.49,8.55 -41.80,8.85 -42.19,9.03 -42.58,9.22 -43.01,9.27 -43.44,9.33 -43.86,9.24 -44.28,9.15 -44.65,8.94 -45.03,8.72 -45.31,8.39 -45.59,8.07 -45.76,7.67 -45.92,7.27 -45.95,6.84 -45.98,6.41 -45.87,5.99 -45.76,5.58 -45.53,5.22 -45.29,4.86 -44.95,4.59 -44.61,4.32 -44.20,4.18 -43.80,4.04 -43.37,4.03 -42.93,4.02 -42.52,4.16 -42.11,4.29 -41.77,4.54 -41.42,4.80 -41.17,5.15 -40.92,5.51 -40.80,5.92 -40.68,6.34 -40.70,6.77 -40.72,7.20 -40.87,7.60 -41.02,8.00 -41.30,8.34 -41.57,8.67 -41.94,8.90 -42.31,9.13 -42.73,9.22 -43.15,9.32 -43.58,9.28 -44.01,9.24 -44.40,9.07 -44.79,8.89 -45.11,8.60 -45.43,8.30 -45.64,7.93 -45.84,7.55 -45.92,7.12 -45.99,6.70 -45.93,6.27 -45.87,5.85 -45.67,5.46 -45.47,5.08 -45.47,5.08 -45.47,5.08 -42.20,3.73 -38.92,2.38 -37.37,2.28 -35.83,2.18 -34.28,1.67 -32.72,1.16 -31.11,1.16 -29.50,1.16 -28.04,1.19 -26.58,1.22 -25.39,1.29 -24.21,1.36 -22.55,1.36 -20.88,1.37 -19.23,1.36 -17.57,1.36 -15.93,1.32 -14.29,1.27 -12.59,1.13 -10.90,0.99 -8.19,0.56 -5.49,0.13 -3.14,-0.92 -0.79,-1.98 -0.54,-2.04 -0.29,-2.11 -0.03,-2.11 0.21,-2.12 0.46,-2.06 0.72,-2.00 0.95,-1.89 1.18,-1.77 1.37,-1.61 1.57,-1.44 1.72,-1.23 1.87,-1.02 1.96,-0.78 2.06,-0.54 2.09,-0.29 2.13,-0.03 2.10,0.21 2.08,0.47 1.99,0.71 1.90,0.95 1.76,1.17 1.62,1.38 1.43,1.55 1.24,1.73 1.01,1.85 0.79,1.98 0.79,1.98 L 0.79,1.98 Z"></path></g><g transform="translate(333.3333333333335 513.3333333333333) rotate(0 -161.66666666666674 -65.83333333333331)" stroke="none"><path fill="#1e1e1e" d="M 0,1.71 Q 0,1.71 -1.92,1.70 -3.84,1.70 -6.25,1.15 -8.66,0.60 -10.06,0.49 -11.45,0.38 -12.95,0.35 -14.45,0.32 -16.99,0.21 -19.53,0.10 -21.58,0.05 -23.63,0.00 -26.90,-0.05 -30.16,-0.10 -32.99,-0.13 -35.82,-0.17 -38.46,-0.19 -41.09,-0.22 -43.65,-0.24 -46.21,-0.26 -48.26,-0.25 -50.30,-0.24 -53.09,-0.26 -55.88,-0.27 -58.98,-0.28 -62.08,-0.29 -64.83,-0.30 -67.59,-0.31 -70.20,-0.31 -72.81,-0.32 -74.39,-0.22 -75.98,-0.13 -78.09,-0.16 -80.21,-0.18 -81.58,-0.08 -82.96,0.01 -84.98,-0.00 -87.00,-0.03 -89.30,-0.07 -91.60,-0.11 -93.53,-0.10 -95.47,-0.09 -97.73,-0.12 -99.99,-0.16 -102.39,-0.19 -104.78,-0.21 -107.24,-0.23 -109.70,-0.25 -112.66,-0.26 -115.62,-0.28 -118.79,-0.29 -121.97,-0.30 -124.76,-0.30 -127.54,-0.31 -130.16,-0.32 -132.79,-0.32 -135.82,-0.32 -138.85,-0.33 -142.05,-0.33 -145.26,-0.33 -147.58,-0.34 -149.90,-0.34 -152.32,-0.34 -154.75,-0.34 -157.69,-0.34 -160.64,-0.34 -163.81,-0.34 -166.98,-0.34 -169.76,-0.34 -172.55,-0.35 -176.12,-0.35 -179.70,-0.35 -182.66,-0.35 -185.62,-0.35 -188.32,-0.35 -191.01,-0.35 -193.59,-0.35 -196.18,-0.35 -197.75,-0.25 -199.33,-0.15 -200.96,-0.08 -202.59,-0.01 -203.76,0.08 -204.93,0.18 -207.28,0.32 -209.63,0.46 -211.17,0.47 -212.72,0.49 -213.85,0.55 -214.98,0.61 -216.83,0.72 -218.68,0.83 -220.86,0.88 -223.04,0.93 -225.00,1.00 -226.97,1.06 -229.27,0.88 -231.58,0.70 -234.00,0.56 -236.42,0.42 -240.44,-0.16 -244.46,-0.75 -246.56,-1.02 -248.67,-1.30 -250.49,-1.38 -252.32,-1.46 -255.00,-1.56 -257.68,-1.65 -259.78,-1.70 -261.89,-1.76 -264.22,-1.80 -266.55,-1.83 -268.02,-1.74 -269.49,-1.65 -270.59,-1.56 -271.70,-1.46 -273.12,-1.40 -274.55,-1.34 -275.64,-1.26 -276.72,-1.19 -278.62,-1.24 -280.52,-1.29 -281.81,-1.24 -283.09,-1.18 -285.03,-1.05 -286.98,-0.93 -289.65,-0.95 -292.32,-0.96 -294.05,-1.00 -295.78,-1.04 -297.47,-1.07 -299.16,-1.09 -300.84,-1.11 -302.52,-1.12 -304.19,-1.14 -305.86,-1.15 -307.05,-1.09 -308.24,-1.04 -310.12,-0.93 -312.00,-0.82 -313.34,-0.81 -314.68,-0.80 -316.65,-0.73 -318.63,-0.66 -320.80,-0.81 -322.96,-0.97 -324.05,-2.92 -325.13,-4.87 -324.31,-6.54 -323.49,-8.21 -322.58,-9.28 -321.67,-10.36 -320.22,-11.71 -318.77,-13.06 -317.23,-14.87 -315.68,-16.68 -313.93,-18.49 -312.18,-20.29 -309.89,-22.07 -307.60,-23.84 -306.25,-25.03 -304.90,-26.22 -303.33,-27.63 -301.77,-29.03 -299.57,-30.64 -297.38,-32.24 -295.08,-34.28 -292.78,-36.32 -290.35,-38.62 -287.92,-40.92 -285.39,-42.91 -282.86,-44.89 -280.87,-46.64 -278.88,-48.39 -276.55,-50.13 -274.21,-51.87 -273.42,-53.04 -272.63,-54.20 -270.12,-55.79 -267.60,-57.38 -266.31,-59.25 -265.01,-61.12 -263.42,-63.41 -261.82,-65.71 -259.61,-67.76 -257.39,-69.81 -256.08,-71.50 -254.77,-73.19 -253.19,-74.94 -251.61,-76.69 -250.55,-78.32 -249.49,-79.94 -248.57,-81.24 -247.65,-82.55 -246.86,-83.95 -246.08,-85.36 -244.69,-87.42 -243.30,-89.47 -242.87,-90.73 -242.44,-92.00 -241.74,-93.58 -241.03,-95.17 -240.23,-96.47 -239.43,-97.77 -238.68,-99.14 -237.93,-100.51 -236.44,-103.16 -234.94,-105.82 -233.91,-107.87 -232.88,-109.93 -232.61,-111.46 -232.33,-112.99 -231.46,-113.97 -230.59,-114.96 -230.12,-116.28 -229.64,-117.59 -228.94,-119.76 -228.24,-121.92 -227.44,-123.66 -226.64,-125.40 -225.50,-126.92 -224.36,-128.44 -223.47,-129.39 -222.58,-130.34 -222.85,-131.23 -223.13,-132.11 -222.97,-132.60 -222.82,-133.09 -222.52,-133.50 -222.22,-133.92 -221.80,-134.21 -221.38,-134.51 -220.89,-134.65 -220.40,-134.80 -219.89,-134.78 -219.37,-134.77 -218.89,-134.58 -218.42,-134.40 -218.02,-134.08 -217.62,-133.76 -217.35,-133.32 -217.08,-132.89 -216.96,-132.39 -216.84,-131.89 -216.88,-131.38 -216.93,-130.87 -217.14,-130.40 -217.34,-129.94 -217.69,-129.56 -218.03,-129.18 -218.48,-128.93 -218.93,-128.68 -219.43,-128.59 -219.93,-128.50 -220.44,-128.57 -220.95,-128.64 -221.41,-128.87 -221.86,-129.11 -222.22,-129.47 -222.58,-129.84 -222.80,-130.30 -223.03,-130.76 -223.09,-131.27 -223.16,-131.77 -223.06,-132.28 -222.96,-132.78 -222.70,-133.22 -222.45,-133.66 -222.06,-134.00 -221.68,-134.34 -221.21,-134.54 -220.73,-134.74 -220.22,-134.78 -219.71,-134.81 -219.22,-134.69 -218.72,-134.56 -218.29,-134.28 -217.86,-134.00 -217.54,-133.60 -217.23,-133.20 -217.05,-132.71 -216.88,-132.23 -216.87,-131.72 -216.86,-131.21 -216.86,-131.21 -216.86,-131.21 -218.23,-128.50 -219.60,-125.80 -220.37,-124.97 -221.15,-124.14 -221.81,-122.72 -222.47,-121.31 -222.85,-120.13 -223.23,-118.96 -223.65,-117.83 -224.06,-116.71 -224.30,-115.62 -224.54,-114.54 -225.18,-113.35 -225.83,-112.16 -226.98,-110.89 -228.12,-109.61 -229.23,-107.73 -230.34,-105.84 -231.00,-104.57 -231.65,-103.30 -232.57,-102.17 -233.49,-101.03 -233.98,-99.80 -234.46,-98.56 -235.34,-97.05 -236.22,-95.54 -236.99,-94.58 -237.75,-93.62 -238.49,-92.13 -239.22,-90.65 -239.93,-89.21 -240.64,-87.76 -241.92,-85.69 -243.21,-83.62 -244.20,-82.10 -245.19,-80.57 -246.19,-79.48 -247.19,-78.39 -248.40,-76.64 -249.60,-74.89 -251.11,-73.21 -252.62,-71.53 -254.06,-69.65 -255.51,-67.78 -257.51,-65.94 -259.51,-64.11 -261.09,-61.77 -262.66,-59.44 -264.30,-57.18 -265.95,-54.92 -268.09,-53.57 -270.24,-52.21 -271.40,-50.96 -272.55,-49.70 -274.80,-48.01 -277.04,-46.32 -279.07,-44.49 -281.10,-42.67 -283.50,-40.75 -285.91,-38.83 -288.33,-36.46 -290.76,-34.09 -293.11,-31.91 -295.47,-29.73 -297.46,-28.17 -299.46,-26.60 -300.98,-25.06 -302.50,-23.51 -303.91,-22.27 -305.32,-21.04 -307.26,-19.35 -309.21,-17.66 -310.66,-15.83 -312.12,-14.00 -313.60,-11.77 -315.08,-9.54 -316.25,-8.15 -317.41,-6.76 -318.14,-5.88 -318.88,-5.01 -320.03,-5.35 -321.18,-5.69 -319.90,-5.84 -318.63,-6.00 -316.65,-5.93 -314.68,-5.85 -313.34,-5.84 -312.00,-5.83 -310.12,-5.72 -308.24,-5.61 -307.05,-5.56 -305.86,-5.51 -304.19,-5.52 -302.52,-5.53 -300.84,-5.55 -299.16,-5.57 -297.47,-5.59 -295.78,-5.61 -294.05,-5.65 -292.32,-5.69 -289.65,-5.71 -286.98,-5.73 -285.03,-5.60 -283.09,-5.48 -281.81,-5.42 -280.52,-5.36 -278.62,-5.41 -276.72,-5.47 -275.64,-5.39 -274.55,-5.32 -273.12,-5.26 -271.69,-5.20 -270.59,-5.10 -269.48,-4.99 -268.01,-4.90 -266.54,-4.80 -264.20,-4.83 -261.86,-4.85 -259.75,-4.88 -257.63,-4.90 -254.89,-4.92 -252.15,-4.94 -250.25,-4.85 -248.34,-4.75 -246.17,-4.62 -244.00,-4.49 -240.21,-4.13 -236.42,-3.76 -234.00,-3.90 -231.58,-4.03 -229.27,-4.21 -226.97,-4.39 -225.00,-4.33 -223.04,-4.26 -220.86,-4.21 -218.68,-4.16 -216.83,-4.05 -214.98,-3.94 -213.85,-3.88 -212.72,-3.83 -211.17,-3.81 -209.63,-3.79 -207.28,-3.65 -204.93,-3.51 -203.76,-3.42 -202.59,-3.32 -200.96,-3.25 -199.33,-3.17 -197.75,-3.08 -196.18,-2.98 -193.59,-2.98 -191.01,-2.98 -188.32,-2.98 -185.62,-2.98 -182.66,-2.98 -179.70,-2.98 -176.12,-2.98 -172.55,-2.98 -169.76,-2.98 -166.98,-2.98 -163.81,-2.98 -160.64,-2.98 -157.69,-2.98 -154.75,-2.98 -152.32,-2.98 -149.90,-2.99 -147.58,-2.99 -145.26,-2.99 -142.05,-2.99 -138.85,-3.00 -135.82,-3.00 -132.79,-3.00 -130.16,-3.01 -127.54,-3.01 -124.76,-3.02 -121.97,-3.03 -118.79,-3.04 -115.62,-3.05 -112.66,-3.06 -109.70,-3.07 -107.24,-3.09 -104.78,-3.11 -102.39,-3.14 -99.99,-3.16 -97.73,-3.20 -95.47,-3.23 -93.53,-3.22 -91.60,-3.21 -89.30,-3.25 -87.00,-3.30 -84.98,-3.32 -82.96,-3.34 -81.58,-3.24 -80.21,-3.14 -78.09,-3.17 -75.98,-3.19 -74.39,-3.10 -72.81,-3.00 -70.20,-3.01 -67.59,-3.02 -64.83,-3.02 -62.08,-3.03 -58.98,-3.04 -55.88,-3.05 -53.09,-3.07 -50.30,-3.08 -48.26,-3.07 -46.21,-3.07 -43.65,-3.08 -41.09,-3.10 -38.45,-3.12 -35.81,-3.15 -32.99,-3.18 -30.16,-3.21 -26.88,-3.24 -23.61,-3.28 -21.55,-3.30 -19.48,-3.33 -16.86,-3.36 -14.24,-3.40 -12.60,-3.25 -10.96,-3.11 -9.48,-2.81 -8.00,-2.52 -5.91,-2.11 -3.82,-1.70 -1.91,-1.70 0,-1.71 0.20,-1.68 0.40,-1.66 0.60,-1.58 0.79,-1.51 0.96,-1.39 1.13,-1.28 1.27,-1.12 1.40,-0.97 1.50,-0.78 1.59,-0.60 1.64,-0.40 1.69,-0.20 1.69,0.00 1.69,0.20 1.64,0.40 1.59,0.60 1.50,0.78 1.40,0.97 1.27,1.12 1.13,1.28 0.96,1.39 0.79,1.51 0.60,1.58 0.40,1.66 0.20,1.68 -0.00,1.71 -0.00,1.71 L 0,1.71 Z"></path></g><g transform="translate(125 388.33333333333326) rotate(0 -7.5 41.666666666666686)" stroke="none"><path fill="#1e1e1e" d="M 1.41,0.70 Q 1.41,0.70 0.42,2.59 -0.56,4.49 -0.93,6.54 -1.30,8.59 -1.98,11.04 -2.66,13.49 -2.94,15.84 -3.21,18.19 -3.30,20.15 -3.40,22.12 -3.46,24.38 -3.53,26.64 -3.56,29.52 -3.59,32.40 -4.10,35.65 -4.60,38.89 -5.30,41.72 -6.01,44.55 -6.29,46.62 -6.57,48.68 -6.70,50.97 -6.82,53.27 -7.37,55.81 -7.91,58.34 -8.13,60.74 -8.35,63.13 -8.94,65.26 -9.53,67.39 -10.24,69.28 -10.95,71.17 -11.12,72.35 -11.28,73.54 -11.87,75.77 -12.45,77.99 -12.52,79.22 -12.60,80.44 -11.88,81.32 -11.17,82.20 -11.05,82.58 -10.93,82.95 -10.93,83.34 -10.93,83.74 -11.06,84.11 -11.19,84.48 -11.43,84.79 -11.67,85.10 -11.99,85.32 -12.32,85.54 -12.70,85.65 -13.08,85.75 -13.47,85.72 -13.87,85.70 -14.23,85.55 -14.60,85.40 -14.89,85.15 -15.19,84.89 -15.39,84.55 -15.59,84.21 -15.68,83.83 -15.76,83.44 -15.71,83.05 -15.67,82.66 -15.50,82.31 -15.33,81.95 -15.06,81.67 -14.79,81.38 -14.44,81.20 -14.09,81.02 -13.70,80.96 -13.31,80.90 -12.92,80.96 -12.54,81.03 -12.19,81.22 -11.84,81.40 -11.58,81.69 -11.31,81.98 -11.14,82.33 -10.98,82.69 -10.94,83.08 -10.90,83.48 -10.99,83.86 -11.07,84.24 -11.28,84.58 -11.48,84.92 -11.79,85.17 -12.09,85.42 -12.45,85.56 -12.82,85.71 -13.21,85.73 -13.61,85.74 -13.99,85.64 -14.36,85.53 -14.69,85.31 -15.01,85.08 -15.25,84.77 -15.48,84.45 -15.48,84.45 -15.48,84.45 -16.30,82.42 -17.11,80.38 -16.94,79.27 -16.77,78.17 -15.86,76.52 -14.95,74.88 -14.71,73.82 -14.47,72.76 -14.02,71.44 -13.57,70.13 -12.83,68.39 -12.10,66.66 -11.54,64.77 -10.98,62.88 -10.74,60.33 -10.50,57.78 -9.99,55.45 -9.47,53.12 -9.35,50.72 -9.22,48.32 -8.92,46.11 -8.62,43.91 -7.95,41.19 -7.28,38.47 -6.81,35.42 -6.33,32.38 -6.32,29.48 -6.31,26.58 -6.28,24.27 -6.24,21.95 -6.10,19.91 -5.96,17.88 -5.68,15.31 -5.40,12.75 -4.78,10.41 -4.16,8.07 -3.71,5.62 -3.26,3.17 -2.34,1.23 -1.41,-0.70 -1.30,-0.86 -1.20,-1.02 -1.06,-1.15 -0.92,-1.28 -0.75,-1.37 -0.58,-1.46 -0.40,-1.51 -0.22,-1.56 -0.03,-1.56 0.15,-1.57 0.34,-1.52 0.53,-1.48 0.70,-1.40 0.87,-1.31 1.01,-1.19 1.16,-1.07 1.27,-0.91 1.38,-0.76 1.45,-0.58 1.52,-0.40 1.55,-0.21 1.57,-0.03 1.55,0.15 1.54,0.34 1.47,0.52 1.41,0.70 1.41,0.70 L 1.41,0.70 Z"></path></g><g transform="translate(103.33333333333348 501.66666666666663) rotate(0 -3.333333333333485 55)" stroke="none"><path fill="#1e1e1e" d="M 1.53,0.30 Q 1.53,0.30 1.01,2.69 0.50,5.08 0.29,7.92 0.07,10.76 -0.02,14.37 -0.13,17.98 -0.18,21.91 -0.22,25.84 -0.73,31.41 -1.24,36.97 -1.45,42.16 -1.67,47.34 -2.25,51.54 -2.83,55.73 -3.07,59.36 -3.31,62.99 -3.90,66.07 -4.50,69.15 -4.74,71.33 -4.98,73.51 -5.04,75.38 -5.09,77.25 -5.15,79.48 -5.21,81.70 -5.19,83.61 -5.17,85.51 -5.07,86.80 -4.97,88.09 -4.90,89.60 -4.84,91.10 -4.90,93.18 -4.95,95.26 -4.94,97.10 -4.93,98.94 -4.84,100.20 -4.76,101.46 -4.71,102.96 -4.66,104.45 -4.59,105.57 -4.52,106.68 -4.45,108.34 -4.38,110.00 -4.44,110.36 -4.50,110.72 -4.67,111.05 -4.84,111.38 -5.11,111.63 -5.38,111.88 -5.72,112.04 -6.05,112.19 -6.42,112.23 -6.79,112.27 -7.15,112.19 -7.51,112.12 -7.82,111.92 -8.14,111.73 -8.38,111.45 -8.62,111.17 -8.75,110.83 -8.89,110.49 -8.91,110.12 -8.93,109.75 -8.83,109.39 -8.73,109.04 -8.53,108.73 -8.32,108.43 -8.02,108.20 -7.73,107.98 -7.38,107.86 -7.03,107.74 -6.66,107.74 -6.29,107.74 -5.94,107.86 -5.59,107.98 -5.30,108.20 -5.00,108.43 -4.80,108.73 -4.59,109.04 -4.49,109.39 -4.39,109.75 -4.41,110.12 -4.43,110.49 -4.57,110.83 -4.71,111.17 -4.95,111.45 -5.18,111.74 -5.50,111.93 -5.82,112.12 -6.18,112.19 -6.54,112.27 -6.91,112.23 -7.27,112.19 -7.61,112.04 -7.94,111.88 -8.21,111.63 -8.48,111.38 -8.65,111.05 -8.83,110.72 -8.88,110.36 -8.94,109.99 -8.94,109.99 -8.94,109.99 -8.88,108.34 -8.81,106.68 -8.73,105.57 -8.66,104.45 -8.61,102.96 -8.57,101.46 -8.48,100.20 -8.39,98.94 -8.38,97.10 -8.37,95.25 -8.42,93.18 -8.48,91.10 -8.40,89.58 -8.33,88.07 -8.21,86.78 -8.10,85.48 -8.04,83.56 -7.98,81.64 -7.95,79.37 -7.92,77.10 -7.77,75.16 -7.61,73.22 -7.36,70.93 -7.10,68.64 -6.54,65.73 -5.97,62.81 -5.72,59.09 -5.48,55.37 -4.92,51.30 -4.37,47.23 -4.16,41.98 -3.96,36.73 -3.47,31.27 -2.99,25.82 -2.97,21.86 -2.94,17.91 -2.87,14.23 -2.80,10.56 -2.61,7.53 -2.42,4.50 -1.97,2.09 -1.53,-0.30 -1.47,-0.48 -1.41,-0.66 -1.31,-0.82 -1.21,-0.98 -1.07,-1.11 -0.94,-1.24 -0.78,-1.33 -0.61,-1.43 -0.43,-1.48 -0.25,-1.54 -0.06,-1.54 0.11,-1.55 0.30,-1.52 0.48,-1.48 0.65,-1.40 0.82,-1.32 0.97,-1.20 1.12,-1.08 1.23,-0.93 1.34,-0.78 1.42,-0.61 1.49,-0.44 1.52,-0.25 1.56,-0.06 1.54,0.11 1.53,0.30 1.53,0.30 L 1.53,0.30 Z"></path></g><g transform="translate(631.6666666666665 501.66666666666663) rotate(0 0.8333333333334849 54.166666666666686)" stroke="none"><path fill="#1e1e1e" d="M 1.56,0 Q 1.56,0 1.52,3.35 1.49,6.70 1.46,11.48 1.44,16.26 1.42,22.13 1.40,27.99 1.39,34.32 1.38,40.64 1.37,47.64 1.36,54.65 1.35,60.50 1.34,66.35 1.34,71.71 1.33,77.07 1.81,81.19 2.28,85.31 2.48,89.05 2.69,92.79 2.77,95.81 2.86,98.84 2.89,101.09 2.93,103.33 3.06,104.76 3.19,106.19 3.17,106.37 3.15,106.56 3.08,106.74 3.02,106.91 2.92,107.07 2.81,107.22 2.68,107.35 2.54,107.47 2.37,107.56 2.21,107.65 2.03,107.70 1.85,107.75 1.66,107.75 1.48,107.75 1.30,107.71 1.11,107.67 0.95,107.59 0.78,107.50 0.64,107.38 0.50,107.26 0.39,107.11 0.28,106.96 0.21,106.78 0.14,106.61 0.12,106.42 0.09,106.24 0.16,102.37 0.23,98.51 0.14,95.08 0.04,91.66 0.08,91.40 0.12,91.14 0.25,90.91 0.37,90.68 0.56,90.50 0.75,90.32 0.99,90.21 1.23,90.10 1.49,90.07 1.75,90.04 2.01,90.10 2.26,90.15 2.49,90.29 2.71,90.42 2.88,90.62 3.05,90.83 3.15,91.07 3.25,91.31 3.26,91.58 3.28,91.84 3.21,92.09 3.14,92.34 2.99,92.56 2.84,92.78 2.63,92.94 2.42,93.10 2.17,93.18 1.92,93.26 1.66,93.26 1.40,93.26 1.15,93.18 0.90,93.10 0.69,92.94 0.48,92.78 0.33,92.56 0.19,92.34 0.12,92.09 0.05,91.84 0.06,91.57 0.08,91.31 0.17,91.07 0.27,90.82 0.44,90.62 0.61,90.42 0.84,90.29 1.06,90.15 1.32,90.10 1.58,90.04 1.84,90.07 2.10,90.10 2.34,90.21 2.57,90.32 2.77,90.50 2.96,90.68 3.08,90.91 3.20,91.14 3.24,91.40 3.29,91.66 3.29,91.66 3.29,91.66 3.18,95.09 3.08,98.51 3.13,102.35 3.19,106.19 3.17,106.37 3.15,106.56 3.08,106.74 3.02,106.91 2.92,107.07 2.81,107.22 2.68,107.35 2.54,107.47 2.37,107.56 2.21,107.65 2.03,107.70 1.85,107.75 1.66,107.75 1.48,107.75 1.30,107.71 1.11,107.67 0.95,107.59 0.78,107.50 0.64,107.38 0.50,107.26 0.39,107.11 0.28,106.96 0.21,106.78 0.14,106.61 0.12,106.42 0.09,106.24 0.19,104.81 0.29,103.38 0.25,101.15 0.21,98.92 0.12,95.92 0.04,92.93 -0.16,89.27 -0.36,85.61 -0.85,81.34 -1.33,77.07 -1.34,71.71 -1.34,66.35 -1.35,60.50 -1.36,54.65 -1.37,47.64 -1.38,40.64 -1.39,34.32 -1.40,27.99 -1.42,22.13 -1.44,16.26 -1.46,11.48 -1.49,6.70 -1.52,3.35 -1.56,0 -1.53,-0.18 -1.51,-0.37 -1.45,-0.54 -1.38,-0.72 -1.27,-0.88 -1.16,-1.03 -1.02,-1.16 -0.88,-1.28 -0.72,-1.37 -0.55,-1.46 -0.37,-1.50 -0.18,-1.55 0.00,-1.55 0.18,-1.55 0.37,-1.50 0.55,-1.46 0.72,-1.37 0.88,-1.28 1.02,-1.16 1.16,-1.03 1.27,-0.88 1.38,-0.72 1.45,-0.54 1.51,-0.37 1.53,-0.18 1.56,0.00 1.56,0.00 L 1.56,0 Z"></path></g><g transform="translate(581.6666666666665 371.66666666666663) rotate(0 0.8333333333334849 36.666666666666686)" stroke="none"><path fill="#1e1e1e" d="M 1.65,0 Q 1.65,0 1.65,1.91 1.66,3.83 1.61,7.04 1.56,10.25 1.53,13.53 1.49,16.81 1.47,22.04 1.44,27.27 1.42,31.41 1.41,35.54 1.39,40.18 1.38,44.81 1.37,48.70 1.36,52.58 1.35,55.67 1.35,58.76 1.41,60.55 1.47,62.35 1.53,64.05 1.59,65.74 2.44,67.77 3.30,69.80 3.54,71.46 3.78,73.12 3.76,73.47 3.74,73.81 3.61,74.13 3.47,74.45 3.25,74.71 3.02,74.97 2.72,75.14 2.43,75.32 2.09,75.39 1.75,75.46 1.41,75.42 1.07,75.38 0.75,75.23 0.44,75.08 0.20,74.84 -0.04,74.60 -0.20,74.29 -0.36,73.98 -0.41,73.64 -0.46,73.30 -0.40,72.96 -0.34,72.62 -0.17,72.32 -0.01,72.02 0.23,71.78 0.49,71.55 0.80,71.41 1.12,71.27 1.46,71.23 1.80,71.20 2.14,71.28 2.48,71.36 2.77,71.54 3.06,71.72 3.28,71.99 3.50,72.25 3.63,72.57 3.75,72.90 3.76,73.24 3.78,73.59 3.68,73.92 3.59,74.25 3.39,74.53 3.19,74.81 2.91,75.02 2.64,75.22 2.31,75.33 1.98,75.44 1.63,75.43 1.29,75.43 0.96,75.31 0.64,75.20 0.37,74.99 0.10,74.77 -0.08,74.49 -0.27,74.20 -0.36,73.87 -0.45,73.53 -0.45,73.53 -0.45,73.53 -0.58,71.20 -0.71,68.86 -1.15,67.34 -1.59,65.83 -1.53,64.09 -1.47,62.35 -1.41,60.55 -1.35,58.76 -1.35,55.67 -1.36,52.58 -1.37,48.70 -1.38,44.81 -1.39,40.18 -1.41,35.54 -1.42,31.41 -1.44,27.27 -1.47,22.04 -1.49,16.81 -1.53,13.53 -1.56,10.25 -1.61,7.04 -1.66,3.83 -1.65,1.91 -1.65,0 -1.62,-0.19 -1.60,-0.39 -1.53,-0.58 -1.46,-0.76 -1.35,-0.93 -1.23,-1.09 -1.08,-1.22 -0.93,-1.36 -0.76,-1.45 -0.58,-1.54 -0.39,-1.59 -0.19,-1.64 0.00,-1.64 0.19,-1.64 0.39,-1.59 0.58,-1.54 0.76,-1.45 0.93,-1.36 1.08,-1.22 1.23,-1.09 1.35,-0.93 1.46,-0.76 1.53,-0.58 1.60,-0.39 1.62,-0.19 1.65,0.00 1.65,0.00 L 1.65,0 Z"></path></g><g transform="translate(80 433.33333333333326) rotate(0 276.66666666666674 4.166666666666686)" stroke="none"><path fill="#1e1e1e" d="M 0,-1.56 Q 0,-1.56 2.39,-1.52 4.79,-1.49 9.71,-0.98 14.63,-0.47 20.54,0.22 26.44,0.92 33.69,1.22 40.93,1.52 50.75,2.13 60.58,2.74 70.95,3.01 81.32,3.27 90.05,3.38 98.77,3.49 106.31,3.54 113.85,3.59 120.89,3.62 127.93,3.64 135.23,3.65 142.53,3.66 150.43,3.66 158.32,3.67 166.95,3.67 175.58,3.67 184.99,3.68 194.41,3.68 204.64,3.68 214.87,3.68 224.49,3.68 234.11,3.68 244.43,3.68 254.74,3.68 265.36,3.68 275.97,3.68 288.15,3.68 300.33,3.68 313.19,4.16 326.06,4.64 339.17,4.84 352.28,5.05 364.56,5.13 376.84,5.22 389.25,5.26 401.65,5.29 413.64,5.31 425.62,5.33 436.01,5.81 446.40,6.30 455.58,6.50 464.76,6.71 473.46,6.80 482.15,6.89 489.20,6.92 496.24,6.96 502.11,6.98 507.98,6.99 513.35,7.00 518.72,7.01 521.96,7.01 525.21,7.01 527.54,7.01 529.88,7.01 532.31,7.01 534.74,7.01 537.21,7.01 539.68,7.01 542.64,7.01 545.61,7.01 547.35,6.94 549.09,6.86 551.21,6.74 553.33,6.63 553.60,6.67 553.87,6.72 554.11,6.85 554.36,6.98 554.55,7.17 554.74,7.37 554.85,7.62 554.97,7.87 555.00,8.15 555.03,8.42 554.97,8.69 554.91,8.96 554.77,9.19 554.62,9.43 554.41,9.61 554.20,9.78 553.95,9.89 553.69,9.99 553.42,10.00 553.14,10.02 552.88,9.94 552.61,9.87 552.39,9.72 552.16,9.56 551.99,9.34 551.83,9.12 551.74,8.86 551.65,8.60 551.65,8.33 551.65,8.05 551.74,7.79 551.83,7.53 551.99,7.31 552.16,7.09 552.39,6.94 552.61,6.79 552.88,6.71 553.14,6.64 553.42,6.65 553.69,6.67 553.95,6.77 554.20,6.87 554.41,7.05 554.62,7.23 554.77,7.46 554.91,7.70 554.97,7.97 555.03,8.24 555.00,8.51 554.97,8.78 554.85,9.03 554.73,9.28 554.55,9.48 554.36,9.68 554.11,9.81 553.87,9.94 553.60,9.98 553.33,10.03 553.33,10.03 553.33,10.03 551.21,9.91 549.09,9.80 547.35,9.72 545.61,9.64 542.64,9.64 539.68,9.64 537.21,9.64 534.74,9.64 532.31,9.64 529.87,9.64 527.54,9.64 525.20,9.64 521.96,9.63 518.72,9.63 513.35,9.62 507.98,9.62 502.10,9.60 496.23,9.59 489.18,9.55 482.12,9.51 473.41,9.42 464.70,9.34 455.49,9.13 446.28,8.92 435.95,8.44 425.61,7.95 413.63,7.94 401.65,7.92 389.24,7.88 376.82,7.85 364.53,7.76 352.24,7.67 339.10,7.47 325.96,7.27 313.14,6.79 300.33,6.31 288.15,6.31 275.97,6.31 265.36,6.31 254.74,6.31 244.43,6.31 234.11,6.31 224.49,6.31 214.87,6.31 204.64,6.31 194.41,6.31 184.99,6.31 175.58,6.31 166.95,6.31 158.32,6.31 150.43,6.31 142.53,6.31 135.22,6.30 127.92,6.29 120.88,6.28 113.83,6.26 106.29,6.22 98.74,6.17 90.00,6.07 81.26,5.97 70.83,5.72 60.41,5.47 50.61,4.87 40.82,4.28 33.47,4.00 26.12,3.72 20.23,3.05 14.35,2.39 9.57,1.94 4.79,1.49 2.39,1.52 0,1.56 -0.18,1.53 -0.37,1.51 -0.54,1.45 -0.72,1.38 -0.88,1.27 -1.03,1.16 -1.16,1.02 -1.28,0.88 -1.37,0.72 -1.46,0.55 -1.50,0.37 -1.55,0.18 -1.55,-0.00 -1.55,-0.18 -1.50,-0.37 -1.46,-0.55 -1.37,-0.72 -1.28,-0.88 -1.16,-1.02 -1.03,-1.16 -0.88,-1.27 -0.72,-1.38 -0.54,-1.45 -0.37,-1.51 -0.18,-1.53 0.00,-1.56 0.00,-1.56 L 0,-1.56 Z"></path></g><g transform="translate(358.3333333333335 400) rotate(0 61.666666666666515 -21.666666666666686)" stroke="none"><path fill="#1e1e1e" d="M -1.25,-1.00 Q -1.25,-1.00 0.69,-3.37 2.64,-5.74 4.95,-8.22 7.26,-10.69 10.26,-12.78 13.26,-14.87 15.88,-17.10 18.49,-19.34 21.04,-21.72 23.59,-24.10 25.64,-26.07 27.69,-28.04 29.00,-29.39 30.32,-30.74 31.86,-32.25 33.40,-33.75 35.02,-35.34 36.64,-36.94 37.74,-38.16 38.85,-39.38 39.80,-40.44 40.75,-41.51 42.35,-42.14 43.96,-42.77 45.22,-43.88 46.48,-44.98 48.90,-45.32 51.32,-45.65 53.35,-45.57 55.37,-45.49 57.18,-45.46 59.00,-45.43 61.40,-44.83 63.81,-44.23 66.22,-43.45 68.63,-42.68 70.66,-41.83 72.69,-40.99 74.17,-40.18 75.64,-39.37 77.63,-38.00 79.61,-36.63 81.77,-35.62 83.92,-34.61 85.85,-33.65 87.78,-32.70 89.00,-32.45 90.22,-32.20 91.59,-32.13 92.96,-32.06 94.50,-32.03 96.05,-32.01 97.19,-32.05 98.33,-32.10 99.77,-32.13 101.20,-32.15 102.77,-32.16 104.34,-32.16 105.97,-32.16 107.59,-32.16 108.76,-32.22 109.93,-32.27 111.84,-32.19 113.76,-32.11 116.44,-32.84 119.13,-33.57 121.14,-33.79 123.15,-34.01 123.53,-33.98 123.91,-33.95 124.26,-33.79 124.61,-33.64 124.89,-33.39 125.17,-33.13 125.36,-32.80 125.54,-32.46 125.61,-32.09 125.68,-31.72 125.63,-31.34 125.58,-30.96 125.41,-30.62 125.24,-30.28 124.96,-30.01 124.69,-29.74 124.35,-29.57 124.01,-29.41 123.63,-29.36 123.25,-29.31 122.88,-29.38 122.51,-29.45 122.18,-29.64 121.84,-29.83 121.59,-30.12 121.34,-30.40 121.19,-30.75 121.04,-31.10 121.01,-31.48 120.98,-31.86 121.07,-32.23 121.17,-32.60 121.38,-32.92 121.58,-33.24 121.88,-33.48 122.18,-33.72 122.54,-33.85 122.89,-33.98 123.28,-33.99 123.66,-33.99 124.02,-33.88 124.38,-33.77 124.69,-33.54 125.00,-33.32 125.22,-33.01 125.44,-32.70 125.55,-32.33 125.66,-31.97 125.65,-31.59 125.64,-31.21 125.51,-30.85 125.37,-30.49 125.13,-30.20 124.89,-29.90 124.57,-29.70 124.25,-29.49 123.88,-29.40 123.51,-29.31 123.51,-29.31 123.51,-29.31 121.62,-29.23 119.72,-29.15 118.44,-29.02 117.15,-28.89 115.50,-28.38 113.85,-27.88 111.89,-27.80 109.93,-27.72 108.76,-27.78 107.59,-27.84 105.96,-27.84 104.33,-27.84 102.75,-27.86 101.16,-27.88 99.70,-27.93 98.23,-27.98 97.05,-28.08 95.88,-28.19 94.22,-28.31 92.56,-28.42 90.91,-28.68 89.26,-28.95 87.88,-29.47 86.50,-30.00 84.57,-30.89 82.64,-31.77 80.23,-32.82 77.81,-33.87 75.80,-35.10 73.79,-36.34 72.64,-37.14 71.49,-37.94 69.58,-38.63 67.67,-39.32 65.34,-39.91 63.00,-40.50 61.00,-40.85 59.00,-41.20 57.21,-41.15 55.41,-41.10 53.46,-40.98 51.51,-40.86 49.38,-40.89 47.25,-40.93 46.28,-40.13 45.30,-39.33 44.17,-39.13 43.03,-38.94 42.04,-38.06 41.04,-37.18 39.82,-36.08 38.59,-34.98 36.99,-33.36 35.39,-31.75 33.87,-30.21 32.35,-28.67 30.96,-27.38 29.57,-26.09 27.52,-24.09 25.47,-22.10 22.89,-19.66 20.31,-17.22 17.60,-14.88 14.90,-12.53 12.15,-10.62 9.41,-8.70 7.21,-6.27 5.02,-3.83 3.13,-1.41 1.25,1.00 1.11,1.13 0.97,1.27 0.80,1.37 0.64,1.46 0.45,1.52 0.27,1.58 0.07,1.59 -0.11,1.59 -0.30,1.56 -0.49,1.52 -0.66,1.44 -0.84,1.36 -0.99,1.24 -1.14,1.12 -1.26,0.96 -1.38,0.81 -1.45,0.63 -1.53,0.46 -1.56,0.27 -1.60,0.08 -1.58,-0.11 -1.57,-0.30 -1.51,-0.48 -1.45,-0.67 -1.35,-0.83 -1.25,-1.00 -1.25,-1.00 L -1.25,-1.00 Z"></path></g><g transform="translate(355 400) rotate(0 -51.66666666666674 -20.83333333333337)" stroke="none"><path fill="#1e1e1e" d="M 0.31,1.90 Q 0.31,1.90 -2.57,2.30 -5.47,2.70 -9.29,2.37 -13.11,2.04 -16.73,0.89 -20.35,-0.25 -22.82,-1.24 -25.29,-2.23 -27.41,-3.68 -29.53,-5.13 -30.95,-6.17 -32.36,-7.21 -33.58,-8.74 -34.80,-10.27 -35.43,-11.48 -36.06,-12.69 -36.75,-14.06 -37.44,-15.42 -37.83,-17.20 -38.21,-18.97 -39.17,-20.98 -40.14,-22.99 -40.45,-24.96 -40.75,-26.93 -40.87,-28.66 -40.99,-30.40 -40.99,-31.72 -40.99,-33.04 -40.90,-34.67 -40.81,-36.29 -41.96,-36.58 -43.12,-36.86 -44.22,-37.63 -45.32,-38.40 -47.57,-39.20 -49.82,-40.01 -51.52,-40.19 -53.22,-40.38 -56.06,-40.54 -58.90,-40.71 -60.65,-40.79 -62.41,-40.87 -63.63,-40.85 -64.86,-40.82 -66.73,-40.75 -68.61,-40.67 -70.30,-39.73 -72.00,-38.79 -74.33,-37.21 -76.67,-35.63 -78.28,-34.83 -79.90,-34.04 -81.56,-33.26 -83.22,-32.49 -84.89,-31.70 -86.57,-30.92 -88.26,-30.13 -89.95,-29.34 -91.86,-28.90 -93.77,-28.47 -95.03,-28.24 -96.30,-28.02 -99.80,-27.78 -103.30,-27.54 -103.69,-27.60 -104.08,-27.66 -104.43,-27.84 -104.79,-28.02 -105.06,-28.31 -105.34,-28.59 -105.51,-28.95 -105.68,-29.31 -105.73,-29.70 -105.78,-30.10 -105.70,-30.48 -105.62,-30.87 -105.42,-31.21 -105.22,-31.56 -104.92,-31.82 -104.62,-32.08 -104.25,-32.23 -103.89,-32.38 -103.49,-32.41 -103.10,-32.44 -102.71,-32.34 -102.33,-32.23 -102.00,-32.02 -101.67,-31.80 -101.42,-31.48 -101.18,-31.17 -101.05,-30.80 -100.91,-30.42 -100.91,-30.03 -100.90,-29.63 -101.02,-29.25 -101.15,-28.88 -101.38,-28.56 -101.62,-28.24 -101.94,-28.01 -102.27,-27.78 -102.65,-27.67 -103.03,-27.56 -103.43,-27.58 -103.82,-27.59 -104.19,-27.74 -104.56,-27.88 -104.87,-28.13 -105.18,-28.38 -105.39,-28.72 -105.59,-29.06 -105.68,-29.44 -105.78,-29.83 -105.74,-30.22 -105.70,-30.62 -105.54,-30.98 -105.38,-31.34 -105.11,-31.64 -104.84,-31.93 -104.49,-32.12 -104.14,-32.31 -103.75,-32.38 -103.36,-32.45 -103.36,-32.45 -103.36,-32.45 -100.11,-32.43 -96.85,-32.41 -95.75,-32.49 -94.64,-32.57 -93.23,-32.84 -91.81,-33.12 -90.19,-33.99 -88.56,-34.86 -86.95,-35.74 -85.35,-36.62 -83.79,-37.50 -82.22,-38.38 -80.77,-39.23 -79.32,-40.08 -78.16,-40.80 -77.00,-41.52 -75.94,-42.37 -74.89,-43.22 -73.57,-44.03 -72.24,-44.84 -70.48,-45.41 -68.71,-45.98 -66.77,-45.90 -64.84,-45.82 -63.61,-45.79 -62.38,-45.76 -60.62,-45.82 -58.85,-45.89 -56.92,-45.99 -54.98,-46.09 -53.88,-46.03 -52.78,-45.96 -51.17,-45.83 -49.56,-45.70 -47.66,-44.84 -45.77,-43.99 -43.34,-43.01 -40.92,-42.03 -39.68,-41.41 -38.43,-40.78 -37.14,-39.21 -35.85,-37.64 -35.75,-35.35 -35.65,-33.06 -35.68,-30.93 -35.71,-28.81 -35.76,-27.22 -35.80,-25.64 -35.68,-24.13 -35.55,-22.62 -34.92,-21.18 -34.28,-19.74 -34.09,-18.39 -33.91,-17.05 -33.01,-14.64 -32.11,-12.23 -31.24,-10.95 -30.38,-9.66 -29.14,-8.59 -27.91,-7.51 -26.05,-6.26 -24.20,-5.00 -21.81,-4.11 -19.43,-3.22 -16.14,-2.23 -12.85,-1.23 -9.43,-1.00 -6.02,-0.78 -3.17,-1.34 -0.31,-1.90 -0.08,-1.92 0.14,-1.93 0.37,-1.88 0.60,-1.83 0.81,-1.73 1.02,-1.64 1.20,-1.49 1.39,-1.34 1.53,-1.16 1.67,-0.97 1.76,-0.76 1.85,-0.54 1.89,-0.31 1.93,-0.08 1.91,0.14 1.89,0.37 1.82,0.60 1.75,0.82 1.62,1.02 1.50,1.21 1.33,1.38 1.16,1.54 0.96,1.66 0.76,1.77 0.54,1.84 0.31,1.90 0.31,1.90 L 0.31,1.90 Z"></path></g></svg>