<svg width="120" height="120" xmlns="http://www.w3.org/2000/svg"><path fill="#6C3608" stroke="#6C3608" opacity=".18" d="m72.5 2-2 3 2-3ZM60.5 19l-1 2 1-2ZM53.5 29l-1 2 1-2ZM51.5 32l-1 2 1-2ZM43.5 33l5.5.5-5.5.5v-1ZM30.5 38l-1 2 1-2ZM62.5 39l6.5 3.5-1.5-.5-5-2v-1ZM70.5 43l3.5 1.5-1.5.5-2-2ZM17.5 45l-1 2 1-2ZM77.5 46l4.5 2.5-1.5-.5q-3.7-.3-3-2ZM83.5 49l3.5 2.5-1.5-.5-2-2ZM7.5 57l.5 2.5H7l.5-2.5ZM6.5 66l.5 2.5H6l.5-2.5ZM119.5 82l.5 2.5h-1l.5-2.5ZM118.5 89l.5 2.5h-1l.5-2.5ZM5.5 92l1 2-1-2ZM117.5 93l.5 2.5h-1l.5-2.5ZM22.5 99l4 6 1.5.5-1.5.5q-4.4-2.3-4-7ZM115.5 99l-.5 1.5-.5 1.5h-11v-1h10l2-2ZM33.5 101q3.3 1.8-.5 3.5.8 2.3-1.5 1.5l1.5-2.5.5-2.5ZM92.5 101l5.5.5-12.5 2.5v-1l7-2ZM47.5 102l3.5 1.5-2.5.5-1.5-.5-1.5 2.5.5-1.5 1.5-2.5Z"/><path fill="#6C3608" stroke="#6C3608" opacity=".18" d="m36.5 103 3.5 2.5-1.5.5-2.5-1 .5-2ZM52.5 104l6.5.5-6.5.5v-1ZM63.5 104l4.5.5-4.5.5v-1ZM77.5 104l6.5.5-6.5.5v-1ZM69.5 105l6.5.5-6.5.5v-1ZM41.5 106l2.5.5-2.5.5v-1Z"/><path fill="#FCD668" stroke="#FCD668" opacity=".996" d="m73.5 3-2 3 2-3ZM70.5 7l-1 2 1-2ZM42.5 38q5.4-1.9 4.5 1.5L41.5 46l-.5-2-7.5 1q-9 8.3-20.5 13-1.2-6.4 3.5-8 11.5-7.5 26-12ZM54.5 58h8l1.5 1.5q-.7 2.3 1.5 1.5l-.5 1.5q1.1 3.3-1.5 2.5l-19 9-8 1-19 11-.5-3.5L34.5 68l7-2 13-8ZM11 69q3.7-1.2 2 4-3.7 1.2-2-4Z"/><path fill="#030201" stroke="#030201" opacity=".98" d="M75.5 3 82 8.5l-7 12L48.5 57l-15 7 2.5-3.5L75.5 3ZM13.5 93q2.8 3.8 8.5 3-2.9 7.2-9.5 12l-10 7-.5-3.5L6.5 98l1 3 6-8Z"/><path fill="#EBA90F" stroke="#EBA90F" opacity=".961" d="m42.5 34 3.5.5-3.5.5v-1ZM36.5 36l1.5.5-3.5 1.5v-1l2-1ZM32.5 38l-1 2-2 1 1-2 2-1ZM63.5 41l7.5 3.5-1.5.5q-1.4-2.6-6-2l-6 4 2-3 4-3ZM74.5 46l18 10 14.5 4.5q-1.2 3.8-7.5 2.5l-8-3L76 48.5q.8-2.2-1.5-1.5v-1ZM11.5 50l-1 2 1-2ZM35.5 52q2.3-.7 1.5 1.5L34.5 56h-2L26 60l-5 14.5.5 1.5-2 1-.5-4.5 4-12 3.5-3.5 9-5ZM8.5 56l.5 6.5H8l.5-6.5ZM109.5 61q6-1.5 7.5 1.5l-1.5-.5h-6v-1ZM7.5 66l.5 5.5H7l.5-5.5ZM32.5 66l-1 2 1-2ZM27.5 70l-4 5 4-5ZM6.5 76l.5 4.5H6l.5-4.5ZM101.5 77l4.5 1 8.5 11 2 1 1-2 .5 2.5-2.5 6.5-11-8h-7l-14 5h-12q-8.7-2.3-13-9l-8-1-12 3-16 7h-5L14 91.5 12.5 89l-1.5.5 1.5-2.5 4 5h5l20-9 16-1 12 7 11 1q8.9-2.1 14.5-7.5-.7-2.2 1.5-1.5l5-4ZM118.5 80l.5 6.5h-1l.5-6.5ZM6.5 91l3.5 1.5-2.5.5-1-2Z"/><path fill="#BB6909" stroke="#BB6909" opacity=".992" d="m62.5 40 .5 2-3.5 2 3-4ZM56.5 47l-1 2 1-2ZM38.5 51l-1 2 1-2ZM36.5 54l-4 5-6.5 3.5-.5 1.5-.5-1.5 7.5-6.5 1 1 3-3ZM49.5 56l-1 2 1-2ZM24.5 65l.5 2.5h-1l.5-2.5ZM30.5 67l-2 3 2-3ZM23.5 69l.5 1.5-1 2 3-1-4 3 1.5-5.5ZM46.5 85h11q6.6 10.4 24 10l16-5h6l10.5 6 1 3.5-1.5-.5-10-6-5-1-12 4-11 1q-12.6-2.9-20-11h-9l-9 3v-1l9-3ZM34.5 89l1.5.5L23.5 95h-5v-1h5l11-5ZM46.5 94l7 1 5.5 3.5q.8 3.8-1.5 4.5l-8-2-4.5-4.5 1.5-2.5ZM39.5 95l6.5 4.5q.8 3.8-1.5 4.5l-2 1-5.5-4.5 2.5-5.5ZM28.5 99l1.5 3-3-.5 1.5-2.5Z"/><path fill="#FED55A" stroke="#FED55A" d="M46.5 36q2.6-.7 1.5 2h-5.5l-10 4v-1l14-5ZM29.5 42l1.5.5-6.5 3.5 1-2 4-2ZM36.5 44q5.4-1.9 4.5 1.5h2L39.5 47l-3-1L18 58.5l-2 3v13Q11.3 78.8 9.5 86L9 73.5l1-1 2-19 3.5-3.5-2.5 3.5q-1.9 5.4 1.5 4.5l22-14ZM11 69q-2 5 2 4 2-5-2-4Z"/><path fill="#FED55A" stroke="#FED55A" d="m20.5 47-1 2-2 1 1-2 2-1ZM56.5 52l6.5 1q-1.1 2.7 1.5 2l4 1L79 63.5q3.4 2.6 2 10L79.5 75h-9l-1-1h-9l-4 1h-2l-16 3-21 10Q15 87 16 82.5l7.5-6.5-3 4-3.5 2.5.5 3.5 19-11 8-1L65 65l1-3.5-2-.5-1.5-3h-8l-5 2-4 4-11 4-6 5 3-4q4.3-4.2 12-5l8.5-6q-.7-3.8 2.5-5l2-1Z"/><path fill="#FECE41" stroke="#FECE41" opacity=".996" d="M44.5 35q5.4-1.9 4.5 1.5l-1.5-.5Q25.9 40.9 12 53.5l-2 19-1 1v12h1q1.3-7.2 6-11v-13l3.5-4.5 13-9 6-2 2.5 1.5-2.5 2.5h-2Q26.1 53.1 20 60.5l-3 16q-5.5 5.1-7 13.5-3 1.3-2-2.5l-1-4 1-1v-12l2-8v-7l3.5-5.5q13.7-9.3 31-15Z"/><path fill="#FECE41" stroke="#FECE41" opacity=".996" d="M58.5 49h6Q75.3 53.3 83 60.5l7 14-2 4.5-12.5 3h-9l-8-3h-11l-9 2-9 5-12 4q-3.2-1.7-3.5-6.5l3.5-4.5 5-3-2 3-4.5 3.5Q15 87 17.5 88l21-10 8-1 9-3 4 1 1-1h9l1 1h9q3.3-1.7 1.5-8.5L77.5 62l-9-6-5.5-1q1.1-2.7-1.5-2l-5-1-4.5 3.5q1.1 3.3-1.5 2.5l-7 6q-7.7.8-12 5l-7 7 8-9 14-7 12-11ZM116.5 66l1.5 1.5v9h-1q.9-3-3.5-1.5-2.7-1.2-1.5-6.5l4.5-2.5Z"/><path fill="#F7BD26" stroke="#F7BD26" opacity=".992" d="m40.5 35 3.5.5L32.5 40l1-2 7-3ZM24.5 43l-1 2-6 3 1-2 6-3ZM63.5 43h3l9.5 4 1.5 3 16 11 6 2h5l4-2q1.5 2.5 7 1l1.5 1.5 1 3-2.5.5-3.5 1.5q-1.2 5.3 1.5 6.5 4.4-1.5 3.5 1.5h1l.5-7.5.5 10.5q-2.8 1.8-1 8l-1.5 2.5-5.5-4.5-5-7.5-4.5-1-6.5 4-1.5 3q-6.4 6.6-20 6l-16-8h-11l-5 1-20 9h-5l-4-5-3 5L6 90.5 7.5 72 8 82.5l-1 4L8 90q2.7 1.1 2-1.5l7-12 3-16 4.5-4.5 13-7q3 1.5 0 3-9.4 2.1-14.5 8.5l-4 12v4l1.5-.5q7.3-1.7 10-8l-7 8-8.5 5.5-1 4 3.5 4.5 12-4 9-5 9-2h11q5.8 4.2 17 3L88 79l2-4.5-4-10-4.5-5.5-17-10h-6l-7 6 2.5-3.5 5.5-6.5 4-2ZM15.5 48l-1 2-3.5 2.5L8.5 70 8 63.5l1-1v-8l4.5-5.5 2-1ZM34.5 65l-1 2 1-2Z"/><path fill="#5A514A" stroke="#5A514A" opacity=".937" d="M73.5 2 75 4.5 30.5 67l-3 2 .5-1.5 41-61L73.5 2ZM11.5 91q2.6-.8 1.5 2.5L7.5 101 7 97.5l4.5-6.5Z"/><path fill="#D38503" stroke="#D38503" opacity=".796" d="m63.5 40 2.5 1.5-1.5.5-1-2ZM25.5 41l1.5.5-2.5 1.5 1-2ZM61.5 42l-1 2 1-2ZM18.5 45l-1 2 1-2ZM13.5 48l-1 2 1-2ZM82.5 49l1 2-1-2ZM85.5 51l8.5 4.5-1.5.5-6-3-1-2ZM9.5 52 9 53.5 8.5 56 8 53.5 9.5 52ZM31.5 56l-3 4 3-4ZM103.5 59l12 1 2.5 2.5-.5 1.5-2-3q-9.2 1.1-12-2ZM7.5 60l.5 5.5H7l.5-5.5ZM6.5 69l.5 6.5-1 1v15l3 2-1.5.5L5 91.5v-16L6.5 69ZM21.5 72l.5 2.5h-1l.5-2.5ZM119.5 73l.5 8.5h-1l.5-8.5ZM50.5 84l5.5.5-5.5.5v-1ZM58.5 85l5 6-5-6ZM97.5 89h7l11 8 1-3 .5 2.5-1.5 2.5-1.5-3-7.5-5-9-1-13 4v-1l13-4ZM74.5 94l7.5.5-7.5.5v-1Z"/><path fill="#A15006" stroke="#A15006" opacity=".996" d="m61.5 40-1 2 1-2ZM58.5 44l-1 2 1-2ZM27.5 61l-1 2 1-2ZM28.5 63l1.5.5-3.5 4.5-1.5-3.5h1l.5 1.5 2-3ZM24.5 68l.5 3.5-2 1 1.5-4.5ZM28.5 68l-2 3 2-3ZM46.5 86Q58 84 61 90.5L57.5 88q-3.5-2.5-11-1v-1ZM42.5 87l2.5.5-2.5.5v-1ZM42.5 89q3.1 4.4 9.5 5.5l-3.5.5-2-1-1.5 2.5 4.5 4.5 8 2q2.3-.7 1.5-4.5l-5-3 1.5-.5 2 1v-2l6 1 3.5 3.5 1 2-4.5.5-3.5-2.5q1.9 5.4-1.5 4.5h-2q-6.7 1.2-9-2l-1.5.5q.5-4-2.5-4.5l-4-2-2.5 5.5 5.5 4.5 3-2 .5 2-3.5 1q-5.7-1.2-8.5-5.5-.8-5.3 2-7-2.2-1.2.5-2.5l6.5 4-.5-6ZM13.5 91l1 2-1-2ZM62.5 91q6.2 6.3 19 6l19-5 13.5 7-.5 2-7-3q-6.1.7-8.5-1 1.8-4.5-3.5-3-7.3 4.2-19 4l-10-3-3-4ZM28.5 97l3.5 1.5 1 4q-.7 3.3-5.5 2.5l-2.5-1-1-4.5 4.5-2.5Zm.5 2-2 3h3l-1-3Z"/><path fill="#85420B" stroke="#85420B" opacity=".984" d="m61.5 39-1 2 1-2ZM59.5 42l-1 2 1-2ZM56.5 46l-1 2 1-2ZM53.5 50l-1 2 1-2ZM47.5 57l-1 2 1-2ZM32.5 59l.5 1.5-4.5 5.5 1-3-2.5 1.5-1 3h2L25.5 71l-.5-4.5 3.5-5.5 4-2ZM33.5 64l1.5.5-2.5 1.5 1-2ZM45.5 87h10l10 8 10 3h6L98 94q-1.5 3.7 1.5 3l13.5 3.5-20.5.5-8 3-16 1-8-2-2 1v-1q3.4.9 1.5-4.5L55.5 95l-10-3-3-3-.5 3.5 2 3-1.5-.5-6-4q-2.7 1.3-.5 2.5-2.8 1.7-2 7l1.5 2.5-3.5-2-1.5-4-6.5 2.5-.5 1.5-1.5-5-4-.5 7.5-.5q8.6-5.4 20-8ZM58 94l6 7h4l-1-2-3-4-6-1ZM15.5 93l1 2-1-2Z"/><path fill="#85420B" stroke="#85420B" opacity=".984" d="m47.5 101 2.5 1.5-1.5.5-2.5-.5 1.5-1.5ZM32.5 103l-2 3-2.5-.5 4.5-2.5ZM51.5 103l5.5.5-5.5.5v-1Z"/></svg>